FrauncesItalic-BlackOpMin.ufo
<glyph name="exclam" format="2">
  <advance width="800"/>
  <unicode hex="0021"/>
  <outline>
    <contour>
      <point x="681" y="1496" type="curve" smooth="yes"/>
      <point x="506" y="1496"/>
      <point x="404" y="1414"/>
      <point x="367" y="1277" type="curve" smooth="yes"/>
      <point x="358" y="1242"/>
      <point x="352" y="1189"/>
      <point x="349" y="1144" type="curve" smooth="yes"/>
      <point x="327" y="614" type="line" smooth="yes"/>
      <point x="325" y="536"/>
      <point x="353" y="504"/>
      <point x="415" y="504" type="curve" smooth="yes"/>
      <point x="477" y="504"/>
      <point x="523" y="536"/>
      <point x="561" y="614" type="curve" smooth="yes"/>
      <point x="823" y="1144" type="line" smooth="yes"/>
      <point x="846" y="1189"/>
      <point x="868" y="1242"/>
      <point x="877" y="1277" type="curve" smooth="yes"/>
      <point x="914" y="1414"/>
      <point x="856" y="1496"/>
    </contour>
    <component base="period" xOffset="-14"/>
  </outline>
</glyph>
<glyph name="numbersign" format="1">
  <advance width="645"/>
  <unicode hex="0023"/>
  <outline>
    <contour>
      <point x="293" y="334" type="curve" smooth="yes"/>
      <point x="214" y="159"/>
      <point x="143" y="129"/>
      <point x="123" y="50" type="curve" smooth="yes"/>
      <point x="113" y="9"/>
      <point x="139" y="-16"/>
      <point x="189" y="-16" type="curve" smooth="yes"/>
      <point x="222" y="-16"/>
      <point x="273" y="-3"/>
      <point x="292" y="48" type="curve" smooth="yes"/>
      <point x="315" y="122"/>
      <point x="278" y="161"/>
      <point x="352" y="334" type="curve" smooth="yes"/>
      <point x="426" y="506"/>
      <point x="497" y="540"/>
      <point x="514" y="618" type="curve" smooth="yes"/>
      <point x="525" y="659"/>
      <point x="498" y="683"/>
      <point x="453" y="683" type="curve" smooth="yes"/>
      <point x="404" y="683"/>
      <point x="360" y="665"/>
      <point x="345" y="616" type="curve" smooth="yes"/>
      <point x="316" y="532"/>
      <point x="365" y="499"/>
    </contour>
    <contour>
      <point x="477" y="334" type="curve" smooth="yes"/>
      <point x="408" y="160"/>
      <point x="329" y="129"/>
      <point x="309" y="50" type="curve" smooth="yes"/>
      <point x="299" y="9"/>
      <point x="329" y="-16"/>
      <point x="375" y="-16" type="curve" smooth="yes"/>
      <point x="410" y="-16"/>
      <point x="462" y="-3"/>
      <point x="479" y="48" type="curve" smooth="yes"/>
      <point x="502" y="122"/>
      <point x="464" y="159"/>
      <point x="538" y="334" type="curve" smooth="yes"/>
      <point x="609" y="506"/>
      <point x="685" y="540"/>
      <point x="702" y="618" type="curve" smooth="yes"/>
      <point x="713" y="659"/>
      <point x="686" y="683"/>
      <point x="643" y="683" type="curve" smooth="yes"/>
      <point x="589" y="683"/>
      <point x="552" y="665"/>
      <point x="534" y="616" type="curve" smooth="yes"/>
      <point x="502" y="535"/>
      <point x="547" y="519"/>
    </contour>
    <contour>
      <point x="432" y="395" type="curve" smooth="yes"/>
      <point x="556" y="395"/>
      <point x="590" y="340"/>
      <point x="659" y="340" type="curve" smooth="yes"/>
      <point x="723" y="340"/>
      <point x="765" y="385"/>
      <point x="775" y="425" type="curve" smooth="yes"/>
      <point x="786" y="467"/>
      <point x="769" y="505"/>
      <point x="710" y="505" type="curve" smooth="yes"/>
      <point x="641" y="505"/>
      <point x="574" y="454"/>
      <point x="448" y="453" type="curve" smooth="yes"/>
      <point x="326" y="453"/>
      <point x="290" y="506"/>
      <point x="220" y="506" type="curve" smooth="yes"/>
      <point x="156" y="506"/>
      <point x="122" y="469"/>
      <point x="111" y="426" type="curve" smooth="yes"/>
      <point x="97" y="379"/>
      <point x="113" y="343"/>
      <point x="178" y="342" type="curve" smooth="yes"/>
      <point x="245" y="341"/>
      <point x="310" y="395"/>
    </contour>
    <contour>
      <point x="371" y="211" type="curve" smooth="yes"/>
      <point x="495" y="211"/>
      <point x="529" y="161"/>
      <point x="600" y="161" type="curve" smooth="yes"/>
      <point x="664" y="161"/>
      <point x="701" y="202"/>
      <point x="713" y="247" type="curve" smooth="yes"/>
      <point x="725" y="285"/>
      <point x="710" y="326"/>
      <point x="648" y="326" type="curve" smooth="yes"/>
      <point x="582" y="326"/>
      <point x="515" y="273"/>
      <point x="387" y="272" type="curve" smooth="yes"/>
      <point x="266" y="272"/>
      <point x="229" y="327"/>
      <point x="160" y="327" type="curve" smooth="yes"/>
      <point x="97" y="327"/>
      <point x="59" y="287"/>
      <point x="50" y="248" type="curve" smooth="yes"/>
      <point x="36" y="196"/>
      <point x="54" y="164"/>
      <point x="117" y="163" type="curve" smooth="yes"/>
      <point x="183" y="162"/>
      <point x="248" y="211"/>
    </contour>
  </outline>
</glyph>
<glyph name="dollar" format="1">
  <advance width="549"/>
  <unicode hex="0024"/>
  <outline>
    <contour>
      <point x="276" y="0" type="curve" smooth="yes"/>
      <point x="440" y="0"/>
      <point x="564" y="85"/>
      <point x="589" y="185" type="curve" smooth="yes"/>
      <point x="610" y="258"/>
      <point x="577" y="337"/>
      <point x="432" y="383" type="curve" smooth="yes"/>
      <point x="329" y="420"/>
      <point x="295" y="441"/>
      <point x="306" y="483" type="curve" smooth="yes"/>
      <point x="317" y="524"/>
      <point x="364" y="551"/>
      <point x="413" y="551" type="curve" smooth="yes"/>
      <point x="471" y="551"/>
      <point x="498" y="518"/>
      <point x="486" y="473" type="curve" smooth="yes"/>
      <point x="479" y="447" type="line" smooth="yes"/>
      <point x="465" y="393"/>
      <point x="495" y="357"/>
      <point x="543" y="357" type="curve" smooth="yes"/>
      <point x="591" y="357"/>
      <point x="643" y="398"/>
      <point x="657" y="450" type="curve" smooth="yes"/>
      <point x="682" y="548"/>
      <point x="594" y="629"/>
      <point x="457" y="629" type="curve" smooth="yes"/>
      <point x="306" y="629"/>
      <point x="180" y="541"/>
      <point x="153" y="434" type="curve" smooth="yes"/>
      <point x="128" y="344"/>
      <point x="169" y="281"/>
      <point x="293" y="234" type="curve" smooth="yes"/>
      <point x="396" y="194"/>
      <point x="427" y="173"/>
      <point x="418" y="135" type="curve" smooth="yes"/>
      <point x="408" y="100"/>
      <point x="362" y="77"/>
      <point x="306" y="77" type="curve" smooth="yes"/>
      <point x="250" y="77"/>
      <point x="224" y="113"/>
      <point x="236" y="166" type="curve" smooth="yes"/>
      <point x="243" y="192" type="line" smooth="yes"/>
      <point x="259" y="247"/>
      <point x="228" y="283"/>
      <point x="179" y="283" type="curve" smooth="yes"/>
      <point x="131" y="283"/>
      <point x="82" y="242"/>
      <point x="68" y="190" type="curve" smooth="yes"/>
      <point x="41" y="87"/>
      <point x="134" y="0"/>
    </contour>
    <contour>
      <point x="324" y="235" type="line"/>
      <point x="289" y="101"/>
      <point x="218" y="64"/>
      <point x="200" y="-4" type="curve" smooth="yes"/>
      <point x="185" y="-64"/>
      <point x="217" y="-90"/>
      <point x="259" y="-90" type="curve" smooth="yes"/>
      <point x="304" y="-90"/>
      <point x="343" y="-61"/>
      <point x="359" y="-5" type="curve" smooth="yes"/>
      <point x="378" y="63"/>
      <point x="327" y="99"/>
      <point x="365" y="235" type="curve"/>
    </contour>
    <contour>
      <point x="400" y="375" type="line"/>
      <point x="442" y="528"/>
      <point x="513" y="567"/>
      <point x="532" y="638" type="curve" smooth="yes"/>
      <point x="545" y="695"/>
      <point x="513" y="724"/>
      <point x="472" y="724" type="curve" smooth="yes"/>
      <point x="431" y="724"/>
      <point x="387" y="698"/>
      <point x="371" y="640" type="curve" smooth="yes"/>
      <point x="353" y="570"/>
      <point x="404" y="532"/>
      <point x="360" y="375" type="curve"/>
    </contour>
  </outline>
</glyph>
<glyph name="ampersand" format="2">
  <advance width="767"/>
  <unicode hex="0026"/>
  <outline>
    <contour>
      <point x="183" y="161" type="line" smooth="yes"/>
      <point x="5" y="35"/>
      <point x="-34" y="-45"/>
      <point x="-34" y="-108" type="curve" smooth="yes"/>
      <point x="-34" y="-201"/>
      <point x="21" y="-245"/>
      <point x="92" y="-245" type="curve" smooth="yes"/>
      <point x="168" y="-245"/>
      <point x="226" y="-193"/>
      <point x="226" y="-129" type="curve" smooth="yes"/>
      <point x="226" y="-84"/>
      <point x="187" y="-65"/>
      <point x="187" y="-18" type="curve" smooth="yes"/>
      <point x="187" y="24"/>
      <point x="194" y="75"/>
      <point x="266" y="123" type="curve" smooth="yes"/>
      <point x="634" y="379" type="line" smooth="yes"/>
      <point x="777" y="478"/>
      <point x="822" y="546"/>
      <point x="822" y="619" type="curve" smooth="yes"/>
      <point x="822" y="680"/>
      <point x="776" y="715"/>
      <point x="725" y="715" type="curve" smooth="yes"/>
      <point x="637" y="715"/>
      <point x="575" y="657"/>
      <point x="575" y="606" type="curve" smooth="yes"/>
      <point x="575" y="569"/>
      <point x="604" y="547"/>
      <point x="604" y="501" type="curve" smooth="yes"/>
      <point x="604" y="473"/>
      <point x="593" y="448"/>
      <point x="549" y="419" type="curve" smooth="yes"/>
    </contour>
    <contour>
      <point x="591" y="122" type="curve" smooth="yes"/>
      <point x="591" y="92"/>
      <point x="550" y="81"/>
      <point x="501" y="81" type="curve" smooth="yes"/>
      <point x="385" y="81"/>
      <point x="321" y="143"/>
      <point x="321" y="247" type="curve" smooth="yes"/>
      <point x="321" y="356"/>
      <point x="362" y="432"/>
      <point x="409" y="432" type="curve" smooth="yes"/>
      <point x="414" y="432"/>
      <point x="430" y="419"/>
      <point x="430" y="380" type="curve" smooth="yes"/>
      <point x="430" y="272"/>
      <point x="410" y="217"/>
      <point x="438" y="238" type="curve" smooth="yes"/>
      <point x="517" y="298"/>
      <point x="575" y="329"/>
      <point x="607" y="329" type="curve" smooth="yes"/>
      <point x="636" y="329"/>
      <point x="655" y="357"/>
      <point x="655" y="390" type="curve" smooth="yes"/>
      <point x="655" y="452"/>
      <point x="558" y="501"/>
      <point x="422" y="501" type="curve" smooth="yes"/>
      <point x="252" y="501"/>
      <point x="113" y="358"/>
      <point x="113" y="195" type="curve" smooth="yes"/>
      <point x="113" y="68"/>
      <point x="222" y="-15"/>
      <point x="439" y="-15" type="curve" smooth="yes"/>
      <point x="691" y="-15"/>
      <point x="789" y="57"/>
      <point x="789" y="181" type="curve" smooth="yes"/>
      <point x="789" y="268"/>
      <point x="732" y="310"/>
      <point x="662" y="310" type="curve" smooth="yes"/>
      <point x="598" y="310"/>
      <point x="563" y="267"/>
      <point x="563" y="224" type="curve" smooth="yes"/>
      <point x="563" y="182"/>
      <point x="591" y="160"/>
    </contour>
  </outline>
</glyph>
<glyph name="parenleft" format="1">
  <advance width="430"/>
  <unicode hex="0028"/>
  <outline>
    <contour>
      <point x="128" y="295" type="curve" smooth="yes"/>
      <point x="62" y="53"/>
      <point x="142" y="-107"/>
      <point x="263" y="-151" type="curve" smooth="yes"/>
      <point x="292" y="-162"/>
      <point x="324" y="-166"/>
      <point x="341" y="-166" type="curve" smooth="yes"/>
      <point x="362" y="-166"/>
      <point x="381" y="-151"/>
      <point x="387" y="-129" type="curve" smooth="yes"/>
      <point x="391" y="-115"/>
      <point x="386" y="-106"/>
      <point x="365" y="-93" type="curve" smooth="yes"/>
      <point x="293" y="-55"/>
      <point x="279" y="91"/>
      <point x="335" y="295" type="curve" smooth="yes"/>
      <point x="389" y="496"/>
      <point x="483" y="641"/>
      <point x="570" y="680" type="curve" smooth="yes"/>
      <point x="598" y="691"/>
      <point x="609" y="704"/>
      <point x="613" y="721" type="curve" smooth="yes"/>
      <point x="619" y="737"/>
      <point x="609" y="754"/>
      <point x="590" y="754" type="curve" smooth="yes"/>
      <point x="573" y="754"/>
      <point x="549" y="744"/>
      <point x="504" y="729" type="curve" smooth="yes"/>
      <point x="332" y="665"/>
      <point x="180" y="486"/>
    </contour>
  </outline>
</glyph>
<glyph name="asterisk" format="1">
  <advance width="498"/>
  <unicode hex="002A"/>
  <outline>
    <contour>
      <point x="408" y="518" type="line"/>
      <point x="429" y="594"/>
      <point x="502" y="611"/>
      <point x="514" y="659" type="curve" smooth="yes"/>
      <point x="530" y="719"/>
      <point x="496" y="747"/>
      <point x="452" y="747" type="curve" smooth="yes"/>
      <point x="407" y="747"/>
      <point x="355" y="719"/>
      <point x="339" y="663" type="curve" smooth="yes"/>
      <point x="325" y="615"/>
      <point x="387" y="593"/>
      <point x="367" y="518" type="curve"/>
    </contour>
    <contour>
      <point x="400" y="535" type="line"/>
      <point x="335" y="559"/>
      <point x="359" y="629"/>
      <point x="316" y="644" type="curve" smooth="yes"/>
      <point x="263" y="663"/>
      <point x="218" y="633"/>
      <point x="191" y="591" type="curve" smooth="yes"/>
      <point x="166" y="549"/>
      <point x="165" y="497"/>
      <point x="212" y="477" type="curve" smooth="yes"/>
      <point x="255" y="462"/>
      <point x="312" y="521"/>
      <point x="376" y="496" type="curve"/>
    </contour>
    <contour>
      <point x="379" y="527" type="line"/>
      <point x="315" y="467"/>
      <point x="258" y="494"/>
      <point x="218" y="455" type="curve" smooth="yes"/>
      <point x="171" y="405"/>
      <point x="176" y="360"/>
      <point x="202" y="333" type="curve" smooth="yes"/>
      <point x="233" y="306"/>
      <point x="286" y="303"/>
      <point x="330" y="347" type="curve" smooth="yes"/>
      <point x="369" y="386"/>
      <point x="343" y="444"/>
      <point x="405" y="504" type="curve"/>
    </contour>
    <contour>
      <point x="373" y="508" type="line"/>
      <point x="399" y="445"/>
      <point x="340" y="392"/>
      <point x="357" y="352" type="curve" smooth="yes"/>
      <point x="380" y="303"/>
      <point x="430" y="306"/>
      <point x="471" y="331" type="curve" smooth="yes"/>
      <point x="516" y="356"/>
      <point x="549" y="407"/>
      <point x="529" y="454" type="curve" smooth="yes"/>
      <point x="513" y="492"/>
      <point x="438" y="470"/>
      <point x="412" y="531" type="curve"/>
    </contour>
    <contour>
      <point x="390" y="500" type="line"/>
      <point x="469" y="524"/>
      <point x="492" y="464"/>
      <point x="541" y="478" type="curve" smooth="yes"/>
      <point x="604" y="498"/>
      <point x="630" y="545"/>
      <point x="626" y="586" type="curve" smooth="yes"/>
      <point x="625" y="630"/>
      <point x="593" y="665"/>
      <point x="537" y="649" type="curve" smooth="yes"/>
      <point x="485" y="633"/>
      <point x="465" y="563"/>
      <point x="389" y="539" type="curve"/>
    </contour>
  </outline>
</glyph>
<glyph name="plus" format="1">
  <advance width="498"/>
  <unicode hex="002B"/>
  <outline>
    <contour>
      <point x="91" y="303" type="curve" smooth="yes"/>
      <point x="80" y="263"/>
      <point x="108" y="231"/>
      <point x="147" y="231" type="curve" smooth="yes"/>
      <point x="202" y="231"/>
      <point x="273" y="246"/>
      <point x="318" y="246" type="curve" smooth="yes"/>
      <point x="364" y="246"/>
      <point x="422" y="231"/>
      <point x="473" y="231" type="curve" smooth="yes"/>
      <point x="519" y="231"/>
      <point x="558" y="263"/>
      <point x="569" y="303" type="curve" smooth="yes"/>
      <point x="580" y="344"/>
      <point x="557" y="377"/>
      <point x="514" y="377" type="curve" smooth="yes"/>
      <point x="461" y="377"/>
      <point x="394" y="362"/>
      <point x="349" y="362" type="curve" smooth="yes"/>
      <point x="297" y="362"/>
      <point x="243" y="377"/>
      <point x="189" y="377" type="curve" smooth="yes"/>
      <point x="151" y="377"/>
      <point x="102" y="344"/>
    </contour>
    <contour>
      <point x="269" y="63" type="curve" smooth="yes"/>
      <point x="309" y="63"/>
      <point x="351" y="98"/>
      <point x="362" y="139" type="curve" smooth="yes"/>
      <point x="377" y="194"/>
      <point x="380" y="260"/>
      <point x="392" y="305" type="curve" smooth="yes"/>
      <point x="404" y="351"/>
      <point x="436" y="414"/>
      <point x="450" y="465" type="curve" smooth="yes"/>
      <point x="463" y="511"/>
      <point x="439" y="541"/>
      <point x="399" y="541" type="curve" smooth="yes"/>
      <point x="356" y="541"/>
      <point x="316" y="510"/>
      <point x="305" y="465" type="curve" smooth="yes"/>
      <point x="290" y="414"/>
      <point x="288" y="351"/>
      <point x="276" y="305" type="curve" smooth="yes"/>
      <point x="262" y="253"/>
      <point x="232" y="194"/>
      <point x="217" y="140" type="curve" smooth="yes"/>
      <point x="206" y="102"/>
      <point x="228" y="63"/>
    </contour>
  </outline>
</glyph>
<glyph name="comma" format="2">
  <advance width="300"/>
  <unicode hex="002C"/>
  <outline>
    <contour>
      <point x="90" y="13" type="curve" smooth="yes"/>
      <point x="124" y="-3"/>
      <point x="133" y="-13"/>
      <point x="133" y="-37" type="curve" smooth="yes"/>
      <point x="133" y="-61"/>
      <point x="105" y="-87"/>
      <point x="32" y="-114" type="curve" smooth="yes"/>
      <point x="-10" y="-131"/>
      <point x="-19" y="-153"/>
      <point x="-19" y="-173" type="curve" smooth="yes"/>
      <point x="-19" y="-198"/>
      <point x="-1" y="-219"/>
      <point x="21" y="-219" type="curve" smooth="yes"/>
      <point x="45" y="-219"/>
      <point x="75" y="-211"/>
      <point x="105" y="-198" type="curve" smooth="yes"/>
      <point x="235" y="-141"/>
      <point x="308" y="-52"/>
      <point x="308" y="83" type="curve" smooth="yes"/>
      <point x="308" y="156"/>
      <point x="267" y="215"/>
      <point x="194" y="215" type="curve" smooth="yes"/>
      <point x="105" y="215"/>
      <point x="43" y="150"/>
      <point x="43" y="84" type="curve" smooth="yes"/>
      <point x="43" y="44"/>
      <point x="64" y="24"/>
    </contour>
  </outline>
</glyph>
<glyph name="hyphen" format="2">
  <advance width="934"/>
  <unicode hex="002D"/>
  <outline>
    <contour>
      <point x="786" y="687" type="curve" smooth="yes"/>
      <point x="317" y="687" type="line" smooth="yes"/>
      <point x="266" y="687"/>
      <point x="233" y="668"/>
      <point x="193" y="603" type="curve" smooth="yes"/>
      <point x="139" y="517" type="line" smooth="yes"/>
      <point x="99" y="454"/>
      <point x="116" y="413"/>
      <point x="171" y="413" type="curve" smooth="yes"/>
      <point x="662" y="413" type="line" smooth="yes"/>
      <point x="713" y="413"/>
      <point x="746" y="432"/>
      <point x="786" y="497" type="curve" smooth="yes"/>
      <point x="840" y="583" type="line" smooth="yes"/>
      <point x="873" y="636"/>
      <point x="852" y="687"/>
    </contour>
  </outline>
</glyph>
<glyph name="period" format="2">
  <advance width="350"/>
  <unicode hex="002E"/>
  <outline>
    <contour>
      <point x="153" y="-15" type="curve" smooth="yes"/>
      <point x="249" y="-15.0"/>
      <point x="313.0" y="40.0"/>
      <point x="313" y="105" type="curve" smooth="yes"/>
      <point x="313" y="164"/>
      <point x="266" y="205"/>
      <point x="194" y="205" type="curve" smooth="yes"/>
      <point x="97.0" y="205.0"/>
      <point x="33.0" y="140.0"/>
      <point x="33" y="87" type="curve" smooth="yes"/>
      <point x="33" y="28"/>
      <point x="82" y="-15"/>
    </contour>
  </outline>
</glyph>
<glyph name="slash" format="2">
  <advance width="1024"/>
  <unicode hex="002F"/>
  <outline>
    <contour>
      <point x="647" y="569" type="curve" smooth="yes"/>
      <point x="801" y="780"/>
      <point x="1108" y="1162"/>
      <point x="1239" y="1339" type="curve" smooth="yes"/>
      <point x="1299" y="1421"/>
      <point x="1299" y="1486"/>
      <point x="1232" y="1522" type="curve" smooth="yes"/>
      <point x="1163" y="1558"/>
      <point x="1095" y="1529"/>
      <point x="1035" y="1448" type="curve" smooth="yes"/>
      <point x="905" y="1271"/>
      <point x="650" y="864"/>
      <point x="494" y="650" type="curve" smooth="yes"/>
      <point x="338" y="435"/>
      <point x="6" y="61"/>
      <point x="-128" y="-120" type="curve" smooth="yes"/>
      <point x="-188" y="-202"/>
      <point x="-187" y="-266"/>
      <point x="-119" y="-303" type="curve" smooth="yes"/>
      <point x="-52" y="-339"/>
      <point x="16" y="-311"/>
      <point x="76" y="-229" type="curve" smooth="yes"/>
      <point x="209" y="-48"/>
      <point x="492" y="355"/>
    </contour>
  </outline>
</glyph>
<glyph name="zero" format="2">
  <advance width="1378"/>
  <unicode hex="0030"/>
  <outline>
    <contour>
      <point x="1018.0" y="1336.0" type="curve" smooth="yes"/>
      <point x="650.0" y="1336.0"/>
      <point x="314.0" y="1102.0"/>
      <point x="212.0" y="722.0" type="curve" smooth="yes"/>
      <point x="74.0" y="230.0"/>
      <point x="196.0" y="-30.0"/>
      <point x="646.0" y="-30.0" type="curve" smooth="yes"/>
      <point x="992.0" y="-30.0"/>
      <point x="1360.0" y="196.0"/>
      <point x="1480.0" y="642.0" type="curve" smooth="yes"/>
      <point x="1596.0" y="1084.0"/>
      <point x="1436.0" y="1336.0"/>
    </contour>
    <contour>
      <point x="992.0" y="558.0" type="curve" smooth="yes"/>
      <point x="912.0" y="248.0"/>
      <point x="804.0" y="156.0"/>
      <point x="692.0" y="156.0" type="curve" smooth="yes"/>
      <point x="664.0" y="156.0"/>
      <point x="568.0" y="342.0"/>
      <point x="688.0" y="792.0" type="curve" smooth="yes"/>
      <point x="768.0" y="1078.0"/>
      <point x="862.0" y="1152.0"/>
      <point x="974.0" y="1152.0" type="curve" smooth="yes"/>
      <point x="1018.0" y="1152.0"/>
      <point x="1094.0" y="952.0"/>
    </contour>
  </outline>
</glyph>
<glyph name="one" format="2">
  <advance width="965"/>
  <unicode hex="0031"/>
  <outline>
    <contour>
      <point x="343" y="1075" type="line" smooth="yes"/>
      <point x="265" y="1075"/>
      <point x="243" y="1122"/>
      <point x="262" y="1190" type="curve" smooth="yes"/>
      <point x="281" y="1257"/>
      <point x="343" y="1307"/>
      <point x="419" y="1307" type="curve" smooth="yes"/>
      <point x="501" y="1307" type="line" smooth="yes"/>
      <point x="626" y="1307"/>
      <point x="695" y="1344"/>
      <point x="787" y="1383" type="curve" smooth="yes"/>
      <point x="840" y="1406"/>
      <point x="875" y="1415"/>
      <point x="909" y="1415" type="curve" smooth="yes"/>
      <point x="977" y="1415"/>
      <point x="1006" y="1378"/>
      <point x="984" y="1302" type="curve" smooth="yes"/>
      <point x="702" y="319" type="line" smooth="yes"/>
      <point x="687" y="267"/>
      <point x="699" y="244"/>
      <point x="730" y="233" type="curve" smooth="yes"/>
      <point x="807" y="207" type="line" smooth="yes"/>
      <point x="857" y="190"/>
      <point x="878" y="155"/>
      <point x="863" y="102" type="curve" smooth="yes"/>
      <point x="845" y="39"/>
      <point x="798" y="0"/>
      <point x="719" y="0" type="curve" smooth="yes"/>
      <point x="65" y="0" type="line" smooth="yes"/>
      <point x="-14" y="0"/>
      <point x="-39" y="39"/>
      <point x="-21" y="102" type="curve" smooth="yes"/>
      <point x="-6" y="155"/>
      <point x="38" y="189"/>
      <point x="96" y="208" type="curve" smooth="yes"/>
      <point x="172" y="233" type="line" smooth="yes"/>
      <point x="208" y="245"/>
      <point x="234" y="267"/>
      <point x="248" y="319" type="curve" smooth="yes"/>
      <point x="434" y="965" type="line" smooth="yes"/>
      <point x="459" y="1053"/>
      <point x="444" y="1075"/>
      <point x="387" y="1075" type="curve" smooth="yes"/>
    </contour>
  </outline>
</glyph>
<glyph name="two" format="2">
  <advance width="1164"/>
  <unicode hex="0032"/>
  <outline>
    <contour>
      <point x="620.0" y="642.0" type="curve" smooth="yes"/>
      <point x="264.0" y="516.0"/>
      <point x="98.0" y="326.0"/>
      <point x="64.0" y="172.0" type="curve" smooth="yes"/>
      <point x="34.0" y="44.0"/>
      <point x="92.0" y="-30.0"/>
      <point x="198.0" y="-30.0" type="curve" smooth="yes"/>
      <point x="264.0" y="-30.0"/>
      <point x="292.0" y="46.0"/>
      <point x="382.0" y="46.0" type="curve" smooth="yes"/>
      <point x="550.0" y="46.0"/>
      <point x="626.0" y="-30.0"/>
      <point x="832.0" y="-30.0" type="curve" smooth="yes"/>
      <point x="1052.0" y="-30.0"/>
      <point x="1246.0" y="98.0"/>
      <point x="1296.0" y="358.0" type="curve" smooth="yes"/>
      <point x="1314.0" y="452.0"/>
      <point x="1286.0" y="494.0"/>
      <point x="1220.0" y="494.0" type="curve" smooth="yes"/>
      <point x="1170.0" y="494.0"/>
      <point x="1124.0" y="466.0"/>
      <point x="1094.0" y="412.0" type="curve" smooth="yes"/>
      <point x="1060.0" y="346.0"/>
      <point x="1028.0" y="326.0"/>
      <point x="960.0" y="326.0" type="curve" smooth="yes"/>
      <point x="832.0" y="326.0"/>
      <point x="732.0" y="390.0"/>
      <point x="528.0" y="390.0" type="curve" smooth="yes"/>
      <point x="346.0" y="390.0"/>
      <point x="240.0" y="228.0"/>
      <point x="202.0" y="64.0" type="curve"/>
      <point x="300.0" y="66.0" type="line"/>
      <point x="330.0" y="210.0"/>
      <point x="402.0" y="344.0"/>
      <point x="738.0" y="468.0" type="curve" smooth="yes"/>
      <point x="1154.0" y="636.0"/>
      <point x="1358.0" y="778.0"/>
      <point x="1408.0" y="974.0" type="curve" smooth="yes"/>
      <point x="1460.0" y="1184.0"/>
      <point x="1300.0" y="1340.0"/>
      <point x="926.0" y="1340.0" type="curve" smooth="yes"/>
      <point x="554.0" y="1340.0"/>
      <point x="358.0" y="1218.0"/>
      <point x="316.0" y="996.0" type="curve" smooth="yes"/>
      <point x="290.0" y="838.0"/>
      <point x="366.0" y="732.0"/>
      <point x="488.0" y="732.0" type="curve" smooth="yes"/>
      <point x="616.0" y="732.0"/>
      <point x="722.0" y="822.0"/>
      <point x="760.0" y="960.0" type="curve" smooth="yes"/>
      <point x="772.0" y="1002.0" type="line" smooth="yes"/>
      <point x="804.0" y="1110.0"/>
      <point x="848.0" y="1164.0"/>
      <point x="900.0" y="1164.0" type="curve" smooth="yes"/>
      <point x="940.0" y="1164.0"/>
      <point x="976.0" y="1094.0"/>
      <point x="952.0" y="976.0" type="curve" smooth="yes"/>
      <point x="918.0" y="812.0"/>
      <point x="826.0" y="710.0"/>
    </contour>
  </outline>
</glyph>
<glyph name="three" format="2">
  <advance width="1220"/>
  <unicode hex="0033"/>
  <outline>
    <contour>
      <point x="677" y="721" type="line"/>
      <point x="1239" y="1107" type="line" smooth="yes"/>
      <point x="1337" y="1175"/>
      <point x="1386" y="1227"/>
      <point x="1401" y="1284" type="curve" smooth="yes"/>
      <point x="1419" y="1352"/>
      <point x="1384" y="1400"/>
      <point x="1307" y="1400" type="curve" smooth="yes"/>
      <point x="515" y="1400" type="line" smooth="yes"/>
      <point x="425" y="1400"/>
      <point x="358" y="1352"/>
      <point x="331" y="1277" type="curve" smooth="yes"/>
      <point x="207" y="932" type="line" smooth="yes"/>
      <point x="190" y="884"/>
      <point x="210" y="840"/>
      <point x="254" y="840" type="curve" smooth="yes"/>
      <point x="306" y="840"/>
      <point x="370" y="884"/>
      <point x="403" y="928" type="curve" smooth="yes"/>
      <point x="435" y="972" type="line" smooth="yes"/>
      <point x="479" y="1031"/>
      <point x="538" y="1059"/>
      <point x="613" y="1059" type="curve" smooth="yes"/>
      <point x="1094" y="1059" type="line"/>
      <point x="1126" y="1240" type="line"/>
      <point x="571" y="834" type="line" smooth="yes"/>
      <point x="513" y="791"/>
      <point x="466" y="742"/>
      <point x="451" y="685" type="curve" smooth="yes"/>
      <point x="435" y="626"/>
      <point x="466" y="585"/>
      <point x="520" y="585" type="curve" smooth="yes"/>
      <point x="599" y="585" type="line" smooth="yes"/>
      <point x="713" y="585"/>
      <point x="767" y="500"/>
      <point x="722" y="331" type="curve" smooth="yes"/>
      <point x="683" y="185"/>
      <point x="607" y="110"/>
      <point x="526" y="110" type="curve" smooth="yes"/>
      <point x="453" y="110"/>
      <point x="419" y="161"/>
      <point x="437" y="227" type="curve" smooth="yes"/>
      <point x="456" y="300" type="line" smooth="yes"/>
      <point x="491" y="431"/>
      <point x="427" y="517"/>
      <point x="303" y="517" type="curve" smooth="yes"/>
      <point x="164" y="517"/>
      <point x="33" y="430"/>
      <point x="1" y="309" type="curve" smooth="yes"/>
      <point x="-54" y="106"/>
      <point x="78" y="-40"/>
      <point x="427" y="-40" type="curve" smooth="yes"/>
      <point x="820" y="-40"/>
      <point x="1107" y="138"/>
      <point x="1181" y="415" type="curve" smooth="yes"/>
      <point x="1241" y="637"/>
      <point x="1141" y="796"/>
      <point x="909" y="796" type="curve" smooth="yes"/>
      <point x="814" y="796"/>
      <point x="747" y="788"/>
      <point x="681" y="766" type="curve"/>
    </contour>
  </outline>
</glyph>
<glyph name="four" format="1">
  <advance width="582"/>
  <unicode hex="0034"/>
  <outline>
    <contour>
      <point x="390" y="312" type="curve" smooth="yes"/>
      <point x="349" y="161" type="line" smooth="yes"/>
      <point x="341" y="131"/>
      <point x="325" y="122"/>
      <point x="296" y="111" type="curve" smooth="yes"/>
      <point x="285" y="102" type="line" smooth="yes"/>
      <point x="238" y="87"/>
      <point x="210" y="83"/>
      <point x="201" y="49" type="curve" smooth="yes"/>
      <point x="192" y="14"/>
      <point x="204" y="0"/>
      <point x="240" y="0" type="curve" smooth="yes"/>
      <point x="535" y="0" type="line" smooth="yes"/>
      <point x="570" y="0"/>
      <point x="591" y="14"/>
      <point x="600" y="49" type="curve" smooth="yes"/>
      <point x="610" y="83"/>
      <point x="595" y="103"/>
      <point x="566" y="108" type="curve" smooth="yes"/>
      <point x="554" y="109" type="line" smooth="yes"/>
      <point x="530" y="114"/>
      <point x="521" y="128"/>
      <point x="527" y="158" type="curve" smooth="yes"/>
      <point x="592" y="404" type="line" smooth="yes"/>
      <point x="604" y="446"/>
      <point x="591" y="463"/>
      <point x="566" y="463" type="curve" smooth="yes"/>
      <point x="548" y="463"/>
      <point x="529" y="461"/>
      <point x="496" y="434" type="curve" smooth="yes"/>
      <point x="436" y="386" type="line" smooth="yes"/>
      <point x="413" y="368"/>
      <point x="397" y="348"/>
    </contour>
    <contour>
      <point x="264" y="378" type="curve" smooth="yes"/>
      <point x="151" y="311" type="line" smooth="yes"/>
      <point x="112" y="282"/>
      <point x="67" y="246"/>
      <point x="59" y="215" type="curve" smooth="yes"/>
      <point x="48" y="174"/>
      <point x="67" y="149"/>
      <point x="112" y="149" type="curve" smooth="yes"/>
      <point x="559" y="149" type="line" smooth="yes"/>
      <point x="608" y="149"/>
      <point x="631" y="166"/>
      <point x="645" y="207" type="curve" smooth="yes"/>
      <point x="653" y="236"/>
      <point x="625" y="250"/>
      <point x="588" y="250" type="curve" smooth="yes"/>
      <point x="183" y="250" type="line"/>
      <point x="162" y="228" type="line"/>
      <point x="408" y="390" type="line" smooth="yes"/>
      <point x="531" y="484"/>
      <point x="583" y="531"/>
      <point x="594" y="569" type="curve" smooth="yes"/>
      <point x="611" y="633"/>
      <point x="571" y="680"/>
      <point x="503" y="680" type="curve" smooth="yes"/>
      <point x="418" y="680"/>
      <point x="352" y="617"/>
      <point x="334" y="551" type="curve" smooth="yes"/>
      <point x="324" y="512"/>
      <point x="359" y="500"/>
      <point x="351" y="465" type="curve" smooth="yes"/>
      <point x="348" y="455"/>
      <point x="320" y="420"/>
    </contour>
  </outline>
</glyph>
<glyph name="five" format="2">
  <advance width="1260"/>
  <unicode hex="0035"/>
  <outline>
    <contour>
      <point x="20" y="281" type="curve" smooth="yes"/>
      <point x="-29" y="97"/>
      <point x="108" y="-40"/>
      <point x="459" y="-40" type="curve" smooth="yes"/>
      <point x="830" y="-40"/>
      <point x="1118" y="125"/>
      <point x="1198" y="423" type="curve" smooth="yes"/>
      <point x="1270" y="689"/>
      <point x="1101" y="860"/>
      <point x="781" y="860" type="curve" smooth="yes"/>
      <point x="601" y="860"/>
      <point x="482" y="826"/>
      <point x="340" y="739" type="curve"/>
      <point x="413" y="712" type="line"/>
      <point x="566" y="1285" type="line"/>
      <point x="373" y="1067" type="line"/>
      <point x="494" y="1006"/>
      <point x="716" y="962"/>
      <point x="912" y="962" type="curve" smooth="yes"/>
      <point x="1173" y="962"/>
      <point x="1349" y="1060"/>
      <point x="1460" y="1339" type="curve" smooth="yes"/>
      <point x="1496" y="1431"/>
      <point x="1470" y="1449"/>
      <point x="1443" y="1455" type="curve" smooth="yes"/>
      <point x="1408" y="1462"/>
      <point x="1378" y="1450"/>
      <point x="1353" y="1431" type="curve" smooth="yes"/>
      <point x="1309" y="1395"/>
      <point x="1221" y="1365"/>
      <point x="1105" y="1365" type="curve" smooth="yes"/>
      <point x="969" y="1365"/>
      <point x="805" y="1386"/>
      <point x="666" y="1426" type="curve" smooth="yes"/>
      <point x="632" y="1436"/>
      <point x="593" y="1442"/>
      <point x="555" y="1442" type="curve" smooth="yes"/>
      <point x="451" y="1442"/>
      <point x="392" y="1384"/>
      <point x="367" y="1291" type="curve" smooth="yes"/>
      <point x="200" y="669" type="line" smooth="yes"/>
      <point x="187" y="618"/>
      <point x="219" y="574"/>
      <point x="267" y="574" type="curve" smooth="yes"/>
      <point x="313" y="574"/>
      <point x="340" y="582"/>
      <point x="404" y="614" type="curve" smooth="yes"/>
      <point x="452" y="639"/>
      <point x="488" y="646"/>
      <point x="536" y="646" type="curve" smooth="yes"/>
      <point x="679" y="646"/>
      <point x="737" y="547"/>
      <point x="686" y="357" type="curve" smooth="yes"/>
      <point x="644" y="200"/>
      <point x="567" y="108"/>
      <point x="495" y="108" type="curve" smooth="yes"/>
      <point x="440" y="108"/>
      <point x="423" y="155"/>
      <point x="439" y="216" type="curve" smooth="yes"/>
      <point x="465" y="313" type="line" smooth="yes"/>
      <point x="496" y="428"/>
      <point x="422" y="506"/>
      <point x="308" y="506" type="curve" smooth="yes"/>
      <point x="179" y="506"/>
      <point x="55" y="412"/>
    </contour>
  </outline>
</glyph>
<glyph name="six" format="2">
  <advance width="1356"/>
  <unicode hex="0036"/>
  <outline>
    <contour>
      <point x="988.0" y="1340.0" type="curve" smooth="yes"/>
      <point x="520.0" y="1340.0"/>
      <point x="190.0" y="974.0"/>
      <point x="190.0" y="448.0" type="curve" smooth="yes"/>
      <point x="190.0" y="156.0"/>
      <point x="342.0" y="-30.0"/>
      <point x="710.0" y="-30.0" type="curve" smooth="yes"/>
      <point x="1126.0" y="-30.0"/>
      <point x="1376.0" y="214.0"/>
      <point x="1376.0" y="504.0" type="curve" smooth="yes"/>
      <point x="1376.0" y="702.0"/>
      <point x="1222.0" y="844.0"/>
      <point x="976.0" y="844.0" type="curve" smooth="yes"/>
      <point x="716.0" y="844.0"/>
      <point x="516.0" y="678.0"/>
      <point x="464.0" y="478.0" type="curve"/>
      <point x="586.0" y="452.0" type="line"/>
      <point x="608.0" y="546.0"/>
      <point x="698.0" y="612.0"/>
      <point x="780.0" y="612.0" type="curve" smooth="yes"/>
      <point x="890.0" y="612.0"/>
      <point x="960.0" y="560.0"/>
      <point x="960.0" y="454.0" type="curve" smooth="yes"/>
      <point x="960.0" y="258.0"/>
      <point x="888.0" y="162.0"/>
      <point x="758.0" y="162.0" type="curve" smooth="yes"/>
      <point x="666.0" y="162.0"/>
      <point x="600.0" y="218.0"/>
      <point x="600.0" y="288.0" type="curve" smooth="yes"/>
      <point x="600.0" y="856.0"/>
      <point x="794.0" y="1134.0"/>
      <point x="974.0" y="1134.0" type="curve" smooth="yes"/>
      <point x="1028.0" y="1134.0"/>
      <point x="1076.0" y="1092.0"/>
      <point x="1074.0" y="1038.0" type="curve" smooth="yes"/>
      <point x="1074.0" y="1012.0"/>
      <point x="1076.0" y="1000.0"/>
      <point x="1076.0" y="972.0" type="curve" smooth="yes"/>
      <point x="1074.0" y="838.0"/>
      <point x="1168.0" y="754.0"/>
      <point x="1304.0" y="754.0" type="curve" smooth="yes"/>
      <point x="1428.0" y="754.0"/>
      <point x="1524.0" y="868.0"/>
      <point x="1524.0" y="1002.0" type="curve" smooth="yes"/>
      <point x="1524.0" y="1194.0"/>
      <point x="1370.0" y="1340.0"/>
    </contour>
  </outline>
</glyph>
<glyph name="seven" format="2">
  <advance width="1200"/>
  <unicode hex="0037"/>
  <outline>
    <contour>
      <point x="1017" y="1031" type="line"/>
      <point x="772" y="861" type="line" smooth="yes"/>
      <point x="498" y="671"/>
      <point x="316" y="474"/>
      <point x="263" y="277" type="curve" smooth="yes"/>
      <point x="210" y="79"/>
      <point x="299" y="-43"/>
      <point x="485" y="-43" type="curve" smooth="yes"/>
      <point x="690" y="-43"/>
      <point x="831" y="84"/>
      <point x="869" y="228" type="curve" smooth="yes"/>
      <point x="902" y="352"/>
      <point x="786" y="404"/>
      <point x="828" y="558" type="curve" smooth="yes"/>
      <point x="863" y="690"/>
      <point x="965" y="828"/>
      <point x="1098" y="931" type="curve" smooth="yes"/>
      <point x="1291" y="1079" type="line" smooth="yes"/>
      <point x="1418" y="1176"/>
      <point x="1429" y="1231"/>
      <point x="1443" y="1282" type="curve" smooth="yes"/>
      <point x="1461" y="1351"/>
      <point x="1417" y="1400"/>
      <point x="1327" y="1400" type="curve" smooth="yes"/>
      <point x="475" y="1400" type="line" smooth="yes"/>
      <point x="396" y="1400"/>
      <point x="336" y="1349"/>
      <point x="311" y="1273" type="curve" smooth="yes"/>
      <point x="178" y="864" type="line" smooth="yes"/>
      <point x="153" y="789"/>
      <point x="182" y="749"/>
      <point x="232" y="749" type="curve" smooth="yes"/>
      <point x="288" y="749"/>
      <point x="336" y="787"/>
      <point x="373" y="838" type="curve" smooth="yes"/>
      <point x="430" y="919" type="line" smooth="yes"/>
      <point x="471" y="976"/>
      <point x="519" y="996"/>
      <point x="583" y="996" type="curve" smooth="yes"/>
      <point x="1082" y="996" type="line"/>
    </contour>
  </outline>
</glyph>
<glyph name="eight" format="2">
  <advance width="1330"/>
  <unicode hex="0038"/>
  <outline>
    <contour>
      <point x="451" y="-39" type="curve" smooth="yes"/>
      <point x="860" y="-39"/>
      <point x="1137" y="138"/>
      <point x="1192" y="330" type="curve" smooth="yes"/>
      <point x="1256" y="555"/>
      <point x="1159" y="684"/>
      <point x="907" y="772" type="curve" smooth="yes"/>
      <point x="705" y="843"/>
      <point x="635" y="957"/>
      <point x="680" y="1113" type="curve" smooth="yes"/>
      <point x="709" y="1214"/>
      <point x="778" y="1286"/>
      <point x="883" y="1286" type="curve" smooth="yes"/>
      <point x="997" y="1286"/>
      <point x="1020" y="1210"/>
      <point x="987" y="1096" type="curve" smooth="yes"/>
      <point x="950" y="966"/>
      <point x="874" y="860"/>
      <point x="790" y="797" type="curve"/>
      <point x="808" y="728" type="line"/>
      <point x="1139" y="728"/>
      <point x="1345" y="889"/>
      <point x="1391" y="1049" type="curve" smooth="yes"/>
      <point x="1457" y="1280"/>
      <point x="1299" y="1440"/>
      <point x="981" y="1440" type="curve" smooth="yes"/>
      <point x="552" y="1440"/>
      <point x="292" y="1223"/>
      <point x="229" y="1008" type="curve" smooth="yes"/>
      <point x="163" y="781"/>
      <point x="247" y="638"/>
      <point x="523" y="556" type="curve" smooth="yes"/>
      <point x="729" y="495"/>
      <point x="763" y="399"/>
      <point x="727" y="273" type="curve" smooth="yes"/>
      <point x="698" y="170"/>
      <point x="637" y="104"/>
      <point x="544" y="104" type="curve" smooth="yes"/>
      <point x="433" y="104"/>
      <point x="414" y="185"/>
      <point x="441" y="279" type="curve" smooth="yes"/>
      <point x="470" y="379"/>
      <point x="528" y="489"/>
      <point x="601" y="543" type="curve"/>
      <point x="621" y="602" type="line"/>
      <point x="276" y="602"/>
      <point x="68" y="467"/>
      <point x="25" y="317" type="curve" smooth="yes"/>
      <point x="-33" y="114"/>
      <point x="71" y="-39"/>
    </contour>
  </outline>
</glyph>
<glyph name="nine" format="2">
  <advance width="1363"/>
  <unicode hex="0039"/>
  <outline>
    <contour>
      <point x="441" y="-40" type="curve" smooth="yes"/>
      <point x="905" y="-40"/>
      <point x="1257" y="217"/>
      <point x="1388" y="707" type="curve" smooth="yes"/>
      <point x="1519" y="1193"/>
      <point x="1366" y="1440"/>
      <point x="942" y="1440" type="curve" smooth="yes"/>
      <point x="558" y="1440"/>
      <point x="262" y="1236"/>
      <point x="182" y="938" type="curve" smooth="yes"/>
      <point x="111" y="672"/>
      <point x="248" y="525"/>
      <point x="517" y="525" type="curve" smooth="yes"/>
      <point x="788" y="525"/>
      <point x="1040" y="672"/>
      <point x="1085" y="838" type="curve"/>
      <point x="981" y="871" type="line"/>
      <point x="961" y="795"/>
      <point x="867" y="741"/>
      <point x="765" y="741" type="curve" smooth="yes"/>
      <point x="667" y="741"/>
      <point x="606" y="820"/>
      <point x="647" y="973" type="curve" smooth="yes"/>
      <point x="692" y="1142"/>
      <point x="772" y="1233"/>
      <point x="861" y="1233" type="curve" smooth="yes"/>
      <point x="952" y="1233"/>
      <point x="1000" y="1119"/>
      <point x="897" y="736" type="curve" smooth="yes"/>
      <point x="786" y="320"/>
      <point x="666" y="136"/>
      <point x="567" y="136" type="curve" smooth="yes"/>
      <point x="506" y="136"/>
      <point x="496" y="176"/>
      <point x="507" y="215" type="curve" smooth="yes"/>
      <point x="513" y="238" type="line" smooth="yes"/>
      <point x="555" y="396"/>
      <point x="478" y="483"/>
      <point x="306" y="483" type="curve" smooth="yes"/>
      <point x="165" y="483"/>
      <point x="55" y="405"/>
      <point x="19" y="271" type="curve" smooth="yes"/>
      <point x="-25" y="110"/>
      <point x="105" y="-40"/>
    </contour>
  </outline>
</glyph>
<glyph name="question" format="2">
  <advance width="1294"/>
  <unicode hex="003F"/>
  <outline>
    <contour>
      <point x="462" y="657" type="line" smooth="yes"/>
      <point x="465" y="738"/>
      <point x="506" y="800"/>
      <point x="618" y="852" type="curve" smooth="yes"/>
      <point x="691" y="886" type="line" smooth="yes"/>
      <point x="796" y="935"/>
      <point x="845" y="1000"/>
      <point x="874" y="1107" type="curve" smooth="yes"/>
      <point x="908" y="1236"/>
      <point x="880" y="1298"/>
      <point x="814" y="1298" type="curve" smooth="yes"/>
      <point x="753" y="1298"/>
      <point x="710" y="1268"/>
      <point x="695" y="1213" type="curve" smooth="yes"/>
      <point x="676" y="1139" type="line" smooth="yes"/>
      <point x="633" y="980"/>
      <point x="528" y="892"/>
      <point x="381" y="892" type="curve" smooth="yes"/>
      <point x="253" y="892"/>
      <point x="190" y="991"/>
      <point x="230" y="1137" type="curve" smooth="yes"/>
      <point x="277" y="1310"/>
      <point x="545" y="1476"/>
      <point x="881" y="1476" type="curve" smooth="yes"/>
      <point x="1276" y="1476"/>
      <point x="1413" y="1303"/>
      <point x="1354" y="1083" type="curve" smooth="yes"/>
      <point x="1304" y="896"/>
      <point x="1158" y="779"/>
      <point x="883" y="733" type="curve" smooth="yes"/>
      <point x="841" y="726" type="line" smooth="yes"/>
      <point x="787" y="717"/>
      <point x="777" y="689"/>
      <point x="759" y="660" type="curve" smooth="yes"/>
      <point x="748" y="642" type="line" smooth="yes"/>
      <point x="680" y="527"/>
      <point x="638" y="484"/>
      <point x="564" y="484" type="curve" smooth="yes"/>
      <point x="488" y="484"/>
      <point x="459" y="535"/>
      <point x="462" y="636" type="curve" smooth="yes"/>
    </contour>
    <component base="period" xOffset="138"/>
  </outline>
</glyph>
<glyph name="at" format="1">
  <advance width="824"/>
  <unicode hex="0040"/>
  <outline>
    <contour>
      <point x="394" y="238" type="curve" smooth="yes"/>
      <point x="384" y="316"/>
      <point x="455" y="383"/>
      <point x="492" y="383" type="curve" smooth="yes"/>
      <point x="515" y="383"/>
      <point x="522" y="371"/>
      <point x="524" y="347" type="curve" smooth="yes"/>
      <point x="526" y="305"/>
      <point x="471" y="196"/>
      <point x="427" y="196" type="curve" smooth="yes"/>
      <point x="415" y="196"/>
      <point x="399" y="199"/>
    </contour>
    <contour>
      <point x="723" y="175" type="curve" smooth="yes"/>
      <point x="696" y="175"/>
      <point x="683" y="187"/>
      <point x="683" y="198" type="curve" smooth="yes"/>
      <point x="683" y="220"/>
      <point x="688" y="276"/>
      <point x="694" y="302" type="curve" smooth="yes"/>
      <point x="703" y="360"/>
      <point x="741" y="370"/>
      <point x="741" y="417" type="curve" smooth="yes"/>
      <point x="741" y="468"/>
      <point x="693" y="503"/>
      <point x="602" y="503" type="curve" smooth="yes"/>
      <point x="397" y="503"/>
      <point x="201" y="309"/>
      <point x="217" y="131" type="curve" smooth="yes"/>
      <point x="223" y="82"/>
      <point x="267" y="62"/>
      <point x="332" y="62" type="curve" smooth="yes"/>
      <point x="410" y="62"/>
      <point x="503" y="106"/>
      <point x="549" y="246" type="curve"/>
      <point x="528" y="301" type="line"/>
      <point x="532" y="220"/>
      <point x="506" y="187"/>
      <point x="510" y="133" type="curve" smooth="yes"/>
      <point x="516" y="92"/>
      <point x="529" y="62"/>
      <point x="621" y="62" type="curve" smooth="yes"/>
      <point x="735" y="62"/>
      <point x="913" y="230"/>
      <point x="913" y="418" type="curve" smooth="yes"/>
      <point x="913" y="571"/>
      <point x="815" y="665"/>
      <point x="590" y="665" type="curve" smooth="yes"/>
      <point x="303" y="665"/>
      <point x="63" y="380"/>
      <point x="63" y="129" type="curve" smooth="yes"/>
      <point x="63" y="-55"/>
      <point x="158" y="-148"/>
      <point x="349" y="-148" type="curve" smooth="yes"/>
      <point x="502" y="-148"/>
      <point x="625" y="-100"/>
      <point x="737" y="5" type="curve" smooth="yes"/>
      <point x="785" y="51"/>
      <point x="749" y="94"/>
      <point x="706" y="51" type="curve" smooth="yes"/>
      <point x="617" y="-38"/>
      <point x="492" y="-82"/>
      <point x="362" y="-82" type="curve" smooth="yes"/>
      <point x="221" y="-82"/>
      <point x="133" y="-15"/>
      <point x="133" y="148" type="curve" smooth="yes"/>
      <point x="133" y="342"/>
      <point x="345" y="603"/>
      <point x="572" y="603" type="curve" smooth="yes"/>
      <point x="748" y="603"/>
      <point x="843" y="527"/>
      <point x="843" y="407" type="curve" smooth="yes"/>
      <point x="843" y="281"/>
      <point x="768" y="175"/>
    </contour>
  </outline>
</glyph>
<glyph name="A" format="2">
  <advance width="1480"/>
  <unicode hex="0041"/>
  <anchor x="1060.0" y="1532.0" name="center"/>
  <outline>
    <contour>
      <point x="394.0" y="316.0" type="curve" smooth="yes"/>
      <point x="394.0" y="332.0"/>
      <point x="402.0" y="356.0"/>
      <point x="430.0" y="404.0" type="curve" smooth="yes"/>
      <point x="696.0" y="856.0" type="line" smooth="yes"/>
      <point x="808.0" y="1046.0"/>
      <point x="878.0" y="1104.0"/>
      <point x="948.0" y="1142.0" type="curve"/>
      <point x="826.0" y="1180.0" type="line"/>
      <point x="832.0" y="924.0"/>
      <point x="830.0" y="600.0"/>
      <point x="830.0" y="416.0" type="curve" smooth="yes"/>
      <point x="830.0" y="318.0"/>
      <point x="810.0" y="248.0"/>
      <point x="744.0" y="226.0" type="curve" smooth="yes"/>
      <point x="732.0" y="222.0" type="line" smooth="yes"/>
      <point x="662.0" y="198.0"/>
      <point x="632.0" y="156.0"/>
      <point x="632.0" y="96.0" type="curve" smooth="yes"/>
      <point x="632.0" y="44.0"/>
      <point x="666.0" y="0.0"/>
      <point x="724.0" y="0.0" type="curve" smooth="yes"/>
      <point x="1274.0" y="0.0" type="line" smooth="yes"/>
      <point x="1348.0" y="0.0"/>
      <point x="1406.0" y="46.0"/>
      <point x="1406.0" y="108.0" type="curve" smooth="yes"/>
      <point x="1406.0" y="158.0"/>
      <point x="1398.0" y="196.0"/>
      <point x="1340.0" y="236.0" type="curve" smooth="yes"/>
      <point x="1302.0" y="258.0"/>
      <point x="1294.0" y="324.0"/>
      <point x="1282.0" y="418.0" type="curve" smooth="yes"/>
      <point x="1270.0" y="512.0"/>
      <point x="1264.0" y="814.0"/>
      <point x="1258.0" y="994.0" type="curve" smooth="yes"/>
      <point x="1256.0" y="1070.0"/>
      <point x="1298.0" y="1156.0"/>
      <point x="1356.0" y="1206.0" type="curve" smooth="yes"/>
      <point x="1398.0" y="1242.0"/>
      <point x="1414.0" y="1268.0"/>
      <point x="1414.0" y="1320.0" type="curve" smooth="yes"/>
      <point x="1414.0" y="1386.0"/>
      <point x="1360.0" y="1436.0"/>
      <point x="1208.0" y="1436.0" type="curve" smooth="yes"/>
      <point x="944.0" y="1436.0"/>
      <point x="706.0" y="1284.0"/>
      <point x="516.0" y="962.0" type="curve" smooth="yes"/>
      <point x="210.0" y="444.0" type="line" smooth="yes"/>
      <point x="158.0" y="356.0"/>
      <point x="104.0" y="320.0"/>
      <point x="64.0" y="290.0" type="curve" smooth="yes"/>
      <point x="-22.0" y="224.0"/>
      <point x="-58.0" y="166.0"/>
      <point x="-58.0" y="102.0" type="curve" smooth="yes"/>
      <point x="-58.0" y="44.0"/>
      <point x="-16.0" y="0.0"/>
      <point x="48.0" y="0.0" type="curve" smooth="yes"/>
      <point x="414.0" y="0.0" type="line" smooth="yes"/>
      <point x="486.0" y="0.0"/>
      <point x="532.0" y="44.0"/>
      <point x="532.0" y="114.0" type="curve" smooth="yes"/>
      <point x="532.0" y="162.0"/>
      <point x="500.0" y="212.0"/>
      <point x="440.0" y="250.0" type="curve" smooth="yes"/>
      <point x="416.0" y="266.0"/>
      <point x="394.0" y="292.0"/>
    </contour>
    <contour>
      <point x="330.0" y="424.0" type="line"/>
      <point x="934.0" y="424.0" type="line"/>
      <point x="946.0" y="610.0" type="line"/>
      <point x="350.0" y="610.0" type="line"/>
    </contour>
  </outline>
</glyph>
<glyph name="B" format="2">
  <advance width="1532"/>
  <unicode hex="0042"/>
  <outline>
    <contour>
      <point x="792" y="1014" type="curve" smooth="yes"/>
      <point x="824" y="1136"/>
      <point x="900" y="1190"/>
      <point x="976" y="1190" type="curve" smooth="yes"/>
      <point x="1054" y="1190"/>
      <point x="1102" y="1130"/>
      <point x="1102" y="1026" type="curve" smooth="yes"/>
      <point x="1102" y="846"/>
      <point x="990" y="750"/>
      <point x="838" y="750" type="curve" smooth="yes"/>
      <point x="580" y="750" type="line"/>
      <point x="534" y="578" type="line"/>
      <point x="828" y="578" type="line" smooth="yes"/>
      <point x="942" y="578"/>
      <point x="1004" y="516"/>
      <point x="1004" y="410" type="curve" smooth="yes"/>
      <point x="1004" y="294"/>
      <point x="922" y="216"/>
      <point x="806" y="216" type="curve" smooth="yes"/>
      <point x="700" y="216"/>
      <point x="618" y="290"/>
      <point x="646" y="450" type="curve" smooth="yes"/>
      <point x="658" y="516"/>
      <point x="750" y="860"/>
    </contour>
    <contour>
      <point x="334" y="1400" type="line" smooth="yes"/>
      <point x="254" y="1400"/>
      <point x="222" y="1356"/>
      <point x="222" y="1310" type="curve" smooth="yes"/>
      <point x="222" y="1246"/>
      <point x="243" y="1222"/>
      <point x="296" y="1204" type="curve" smooth="yes"/>
      <point x="314" y="1198" type="line" smooth="yes"/>
      <point x="364" y="1181"/>
      <point x="377" y="1117"/>
      <point x="358" y="1006" type="curve" smooth="yes"/>
      <point x="320" y="784"/>
      <point x="240" y="546"/>
      <point x="170" y="316" type="curve" smooth="yes"/>
      <point x="154" y="266"/>
      <point x="127" y="237"/>
      <point x="86" y="220" type="curve" smooth="yes"/>
      <point x="66" y="212" type="line" smooth="yes"/>
      <point x="-13" y="181"/>
      <point x="-36" y="138"/>
      <point x="-36" y="90" type="curve" smooth="yes"/>
      <point x="-36" y="36"/>
      <point x="-4" y="0"/>
      <point x="54" y="0" type="curve" smooth="yes"/>
      <point x="780" y="0" type="line" smooth="yes"/>
      <point x="1232" y="0"/>
      <point x="1482" y="172"/>
      <point x="1482" y="408" type="curve" smooth="yes"/>
      <point x="1482" y="588"/>
      <point x="1382" y="696"/>
      <point x="1042" y="696" type="curve"/>
      <point x="1044" y="678" type="line"/>
      <point x="1368" y="678"/>
      <point x="1562" y="820"/>
      <point x="1562" y="1034" type="curve" smooth="yes"/>
      <point x="1562" y="1274"/>
      <point x="1392" y="1400"/>
      <point x="1048" y="1400" type="curve" smooth="yes"/>
    </contour>
  </outline>
</glyph>
<glyph name="C" format="2">
  <advance width="1396"/>
  <unicode hex="0043"/>
  <outline>
    <contour>
      <point x="1355" y="418"/>
      <point x="1330" y="476"/>
      <point x="1273" y="491" type="curve" smooth="yes"/>
      <point x="1218" y="507"/>
      <point x="1150" y="482"/>
      <point x="1094" y="403" type="curve" smooth="yes"/>
      <point x="1019" y="305"/>
      <point x="939" y="254"/>
      <point x="848" y="254" type="curve" smooth="yes"/>
      <point x="697" y="254"/>
      <point x="573" y="410"/>
      <point x="648" y="751" type="curve" smooth="yes"/>
      <point x="712" y="1040"/>
      <point x="849" y="1206"/>
      <point x="1002" y="1206" type="curve" smooth="yes"/>
      <point x="1115" y="1206"/>
      <point x="1177" y="1178"/>
      <point x="1213" y="1068" type="curve" smooth="yes"/>
      <point x="1242" y="984" type="line" smooth="yes"/>
      <point x="1268" y="903"/>
      <point x="1313" y="860"/>
      <point x="1382" y="860" type="curve" smooth="yes"/>
      <point x="1442" y="860"/>
      <point x="1485" y="912"/>
      <point x="1490" y="1034" type="curve" smooth="yes"/>
      <point x="1500" y="1262" type="line" smooth="yes"/>
      <point x="1505" y="1371"/>
      <point x="1458" y="1435"/>
      <point x="1399" y="1435" type="curve" smooth="yes"/>
      <point x="1331" y="1435"/>
      <point x="1294" y="1368"/>
      <point x="1244" y="1368" type="curve" smooth="yes"/>
      <point x="1203" y="1368"/>
      <point x="1135" y="1430"/>
      <point x="965" y="1430" type="curve" smooth="yes"/>
      <point x="529" y="1430"/>
      <point x="188" y="1161"/>
      <point x="105" y="700" type="curve" smooth="yes"/>
      <point x="14" y="196"/>
      <point x="266" y="-30"/>
      <point x="650" y="-30" type="curve" smooth="yes"/>
      <point x="951" y="-30"/>
      <point x="1200" y="89"/>
      <point x="1292" y="282" type="curve" smooth="yes"/>
    </contour>
  </outline>
</glyph>
<glyph name="D" format="2">
  <advance width="1598"/>
  <unicode hex="0044"/>
  <outline>
    <contour>
      <point x="802" y="214" type="curve" smooth="yes"/>
      <point x="870" y="214" type="line" smooth="yes"/>
      <point x="766" y="214"/>
      <point x="668" y="296"/>
      <point x="668" y="408" type="curve" smooth="yes"/>
      <point x="668" y="468"/>
      <point x="674" y="536"/>
      <point x="682" y="568" type="curve" smooth="yes"/>
      <point x="686" y="568"/>
      <point x="786" y="948"/>
      <point x="802" y="982" type="curve" smooth="yes"/>
      <point x="862" y="1148"/>
      <point x="914" y="1186"/>
      <point x="976" y="1186" type="curve" smooth="yes"/>
      <point x="980" y="1186" type="line" smooth="yes"/>
      <point x="1078" y="1186"/>
      <point x="1136" y="1058"/>
      <point x="1136" y="858" type="curve" smooth="yes"/>
      <point x="1136" y="318"/>
      <point x="998" y="214"/>
    </contour>
    <contour>
      <point x="-26" y="88" type="curve" smooth="yes"/>
      <point x="-20" y="30"/>
      <point x="6" y="0"/>
      <point x="46" y="0" type="curve" smooth="yes"/>
      <point x="820" y="0" type="line" smooth="yes"/>
      <point x="1264" y="0"/>
      <point x="1602" y="350"/>
      <point x="1602" y="772" type="curve" smooth="yes"/>
      <point x="1602" y="1136"/>
      <point x="1372" y="1400"/>
      <point x="1046" y="1400" type="curve" smooth="yes"/>
      <point x="314" y="1400" type="line" smooth="yes"/>
      <point x="264" y="1400"/>
      <point x="226" y="1336"/>
      <point x="232" y="1284" type="curve" smooth="yes"/>
      <point x="240" y="1236"/>
      <point x="266" y="1210"/>
      <point x="286" y="1200" type="curve" smooth="yes"/>
      <point x="336" y="1188" type="line" smooth="yes"/>
      <point x="358" y="1182"/>
      <point x="372" y="1172"/>
      <point x="384" y="1136" type="curve" smooth="yes"/>
      <point x="440" y="1174"/>
      <point x="276" y="634"/>
      <point x="206" y="406" type="curve" smooth="yes"/>
      <point x="156" y="250"/>
      <point x="138" y="226"/>
      <point x="90" y="212" type="curve" smooth="yes"/>
      <point x="34" y="200" type="line" smooth="yes"/>
      <point x="-10" y="190"/>
      <point x="-36" y="126"/>
    </contour>
  </outline>
</glyph>
<glyph name="E" format="2">
  <advance width="1384"/>
  <unicode hex="0045"/>
  <anchor x="768" y="1468.0" name="center"/>
  <outline>
    <contour>
      <point x="550" y="818" type="line"/>
      <point x="504" y="630" type="line"/>
      <point x="890" y="630" type="line" smooth="yes"/>
      <point x="960" y="630"/>
      <point x="975" y="613"/>
      <point x="1020" y="568" type="curve" smooth="yes"/>
      <point x="1053" y="535"/>
      <point x="1094" y="512"/>
      <point x="1142" y="512" type="curve" smooth="yes"/>
      <point x="1192" y="512"/>
      <point x="1226" y="548"/>
      <point x="1218" y="626" type="curve" smooth="yes"/>
      <point x="1196" y="834" type="line" smooth="yes"/>
      <point x="1189" y="898"/>
      <point x="1146" y="938"/>
      <point x="1094" y="938" type="curve" smooth="yes"/>
      <point x="1057" y="938"/>
      <point x="1033" y="919"/>
      <point x="994" y="884" type="curve" smooth="yes"/>
      <point x="944" y="828"/>
      <point x="888" y="818"/>
      <point x="818" y="818" type="curve" smooth="yes"/>
    </contour>
    <contour>
      <point x="868" y="0" type="line" smooth="yes"/>
      <point x="928" y="0"/>
      <point x="992" y="-40"/>
      <point x="1054" y="-40" type="curve" smooth="yes"/>
      <point x="1183" y="-40"/>
      <point x="1310" y="116"/>
      <point x="1310" y="300" type="curve" smooth="yes"/>
      <point x="1310" y="398"/>
      <point x="1274" y="448"/>
      <point x="1224" y="448" type="curve" smooth="yes"/>
      <point x="1170" y="448"/>
      <point x="1132" y="418"/>
      <point x="1092" y="356" type="curve" smooth="yes"/>
      <point x="1010" y="230"/>
      <point x="900" y="178"/>
      <point x="792" y="178" type="curve" smooth="yes"/>
      <point x="744" y="178" type="line" smooth="yes"/>
      <point x="678" y="178"/>
      <point x="638" y="220"/>
      <point x="648" y="286" type="curve" smooth="yes"/>
      <point x="669" y="419"/>
      <point x="836" y="1054"/>
      <point x="882" y="1220" type="curve"/>
      <point x="1002" y="1220" type="line" smooth="yes"/>
      <point x="1077" y="1220"/>
      <point x="1147" y="1186"/>
      <point x="1196" y="1072" type="curve" smooth="yes"/>
      <point x="1228" y="996"/>
      <point x="1278" y="946"/>
      <point x="1356" y="946" type="curve" smooth="yes"/>
      <point x="1426" y="946"/>
      <point x="1472" y="1008"/>
      <point x="1456" y="1114" type="curve" smooth="yes"/>
      <point x="1422" y="1344" type="line" smooth="yes"/>
      <point x="1410" y="1421"/>
      <point x="1367" y="1456"/>
      <point x="1304" y="1456" type="curve" smooth="yes"/>
      <point x="1238" y="1456"/>
      <point x="1180" y="1400"/>
      <point x="1084" y="1400" type="curve" smooth="yes"/>
      <point x="363" y="1400" type="line" smooth="yes"/>
      <point x="305" y="1400"/>
      <point x="265" y="1356"/>
      <point x="265" y="1296" type="curve" smooth="yes"/>
      <point x="265" y="1235"/>
      <point x="291" y="1202"/>
      <point x="317" y="1190" type="curve" smooth="yes"/>
      <point x="339" y="1180" type="line" smooth="yes"/>
      <point x="363" y="1169"/>
      <point x="385" y="1126"/>
      <point x="372" y="1043" type="curve" smooth="yes"/>
      <point x="361" y="974"/>
      <point x="208" y="403"/>
      <point x="184" y="328" type="curve" smooth="yes"/>
      <point x="159" y="251"/>
      <point x="139" y="225"/>
      <point x="96" y="210" type="curve" smooth="yes"/>
      <point x="84" y="206" type="line" smooth="yes"/>
      <point x="29" y="188"/>
      <point x="6" y="154"/>
      <point x="6" y="98" type="curve" smooth="yes"/>
      <point x="6" y="36"/>
      <point x="40" y="0"/>
      <point x="102" y="0" type="curve" smooth="yes"/>
    </contour>
  </outline>
</glyph>
<glyph name="F" format="2">
  <advance width="1328"/>
  <unicode hex="0046"/>
  <outline>
    <contour>
      <point x="266" y="1301" type="curve" smooth="yes"/>
      <point x="262" y="1240"/>
      <point x="288" y="1215"/>
      <point x="330" y="1196" type="curve" smooth="yes"/>
      <point x="350" y="1187" type="line" smooth="yes"/>
      <point x="381" y="1173"/>
      <point x="393" y="1136"/>
      <point x="380" y="1070" type="curve" smooth="yes"/>
      <point x="350" y="923"/>
      <point x="250" y="520"/>
      <point x="194" y="318" type="curve" smooth="yes"/>
      <point x="176" y="253"/>
      <point x="154" y="231"/>
      <point x="108" y="214" type="curve" smooth="yes"/>
      <point x="87" y="206" type="line" smooth="yes"/>
      <point x="42" y="189"/>
      <point x="10" y="149"/>
      <point x="6" y="94" type="curve" smooth="yes"/>
      <point x="2" y="36"/>
      <point x="31" y="0"/>
      <point x="80" y="0" type="curve" smooth="yes"/>
      <point x="708" y="0" type="line" smooth="yes"/>
      <point x="785" y="0"/>
      <point x="806" y="48"/>
      <point x="806" y="104" type="curve" smooth="yes"/>
      <point x="806" y="148"/>
      <point x="793" y="177"/>
      <point x="742" y="196" type="curve" smooth="yes"/>
      <point x="710" y="208" type="line" smooth="yes"/>
      <point x="669" y="223"/>
      <point x="634" y="252"/>
      <point x="648" y="330" type="curve" smooth="yes"/>
      <point x="676" y="482"/>
      <point x="803" y="1012"/>
      <point x="868" y="1232" type="curve"/>
      <point x="976" y="1232" type="line" smooth="yes"/>
      <point x="1050" y="1232"/>
      <point x="1107" y="1203"/>
      <point x="1156" y="1108" type="curve" smooth="yes"/>
      <point x="1185" y="1052" type="line" smooth="yes"/>
      <point x="1232" y="961"/>
      <point x="1269" y="920"/>
      <point x="1342" y="920" type="curve" smooth="yes"/>
      <point x="1404" y="920"/>
      <point x="1454" y="974"/>
      <point x="1446" y="1080" type="curve" smooth="yes"/>
      <point x="1424" y="1346" type="line" smooth="yes"/>
      <point x="1418" y="1416"/>
      <point x="1384" y="1444"/>
      <point x="1328" y="1444" type="curve" smooth="yes"/>
      <point x="1268" y="1444"/>
      <point x="1214" y="1400"/>
      <point x="1128" y="1400" type="curve" smooth="yes"/>
      <point x="368" y="1400" type="line" smooth="yes"/>
      <point x="306" y="1400"/>
      <point x="270" y="1366"/>
    </contour>
    <contour>
      <point x="574" y="778" type="line"/>
      <point x="528" y="590" type="line"/>
      <point x="854" y="590" type="line" smooth="yes"/>
      <point x="939" y="590"/>
      <point x="972" y="572"/>
      <point x="1010" y="524" type="curve" smooth="yes"/>
      <point x="1059" y="467"/>
      <point x="1084" y="446"/>
      <point x="1134" y="446" type="curve" smooth="yes"/>
      <point x="1182" y="446"/>
      <point x="1211" y="482"/>
      <point x="1202" y="548" type="curve" smooth="yes"/>
      <point x="1168" y="808" type="line" smooth="yes"/>
      <point x="1160" y="876"/>
      <point x="1126" y="918"/>
      <point x="1080" y="918" type="curve" smooth="yes"/>
      <point x="1046" y="918"/>
      <point x="1016" y="904"/>
      <point x="986" y="864" type="curve" smooth="yes"/>
      <point x="938" y="798"/>
      <point x="876" y="778"/>
      <point x="802" y="778" type="curve" smooth="yes"/>
    </contour>
  </outline>
</glyph>
<glyph name="G" format="2">
  <advance width="794"/>
  <unicode hex="0047"/>
  <anchor x="614" y="783" name="center"/>
  <outline>
    <contour>
      <point x="569" y="714" type="curve" smooth="yes"/>
      <point x="317" y="714"/>
      <point x="108" y="499"/>
      <point x="108" y="262" type="curve" smooth="yes"/>
      <point x="108" y="96"/>
      <point x="216" y="-15"/>
      <point x="389" y="-15" type="curve" smooth="yes"/>
      <point x="475" y="-15"/>
      <point x="506" y="14"/>
      <point x="533" y="14" type="curve" smooth="yes"/>
      <point x="577" y="14"/>
      <point x="593" y="-15"/>
      <point x="641" y="-15" type="curve" smooth="yes"/>
      <point x="676" y="-15"/>
      <point x="699" y="17"/>
      <point x="717" y="84" type="curve" smooth="yes"/>
      <point x="728" y="133"/>
      <point x="739" y="172"/>
      <point x="739" y="170" type="curve" smooth="yes"/>
      <point x="767" y="250"/>
      <point x="780" y="261"/>
      <point x="813" y="272" type="curve" smooth="yes"/>
      <point x="853" y="283"/>
      <point x="868" y="306"/>
      <point x="869" y="333" type="curve" smooth="yes"/>
      <point x="872" y="362"/>
      <point x="857" y="377"/>
      <point x="811" y="377" type="curve" smooth="yes"/>
      <point x="517" y="377" type="line" smooth="yes"/>
      <point x="486" y="377"/>
      <point x="467" y="361"/>
      <point x="467" y="329" type="curve" smooth="yes"/>
      <point x="467" y="304"/>
      <point x="474" y="290"/>
      <point x="508" y="279" type="curve" smooth="yes"/>
      <point x="529" y="273" type="line" smooth="yes"/>
      <point x="552" y="265"/>
      <point x="562" y="246"/>
      <point x="554" y="195" type="curve" smooth="yes"/>
      <point x="543" y="129"/>
      <point x="504" y="103"/>
      <point x="460" y="103" type="curve" smooth="yes"/>
      <point x="387" y="103"/>
      <point x="350" y="174"/>
      <point x="350" y="281" type="curve" smooth="yes"/>
      <point x="350" y="452"/>
      <point x="441" y="620"/>
      <point x="557" y="620" type="curve" smooth="yes"/>
      <point x="613" y="620"/>
      <point x="652" y="577"/>
      <point x="693" y="501" type="curve" smooth="yes"/>
      <point x="698" y="491" type="line" smooth="yes"/>
      <point x="726" y="441"/>
      <point x="741" y="418"/>
      <point x="783" y="418" type="curve" smooth="yes"/>
      <point x="813" y="418"/>
      <point x="834" y="438"/>
      <point x="836" y="485" type="curve" smooth="yes"/>
      <point x="838" y="675" type="line" smooth="yes"/>
      <point x="839" y="706"/>
      <point x="824" y="725"/>
      <point x="806" y="725" type="curve" smooth="yes"/>
      <point x="765" y="725"/>
      <point x="733" y="678"/>
      <point x="689" y="678" type="curve" smooth="yes"/>
      <point x="666" y="678"/>
      <point x="631" y="714"/>
    </contour>
  </outline>
</glyph>
<glyph name="H" format="2">
  <advance width="1750"/>
  <unicode hex="0048"/>
  <outline>
    <contour>
      <point x="616.0" y="780.0" type="line"/>
      <point x="532.0" y="564.0" type="line"/>
      <point x="1298.0" y="564.0" type="line"/>
      <point x="1382.0" y="780.0" type="line"/>
    </contour>
    <contour>
      <point x="638.0" y="278.0" type="curve" smooth="yes"/>
      <point x="646.0" y="326.0"/>
      <point x="780" y="886"/>
      <point x="852.0" y="1100.0" type="curve" smooth="yes"/>
      <point x="869.7461438018154" y="1153.2384314054461"/>
      <point x="889.2211239039239" y="1173.5672910577355"/>
      <point x="908.0" y="1184.0" type="curve" smooth="yes"/>
      <point x="926.0" y="1194.0" type="line" smooth="yes"/>
      <point x="971.991901133219" y="1219.5510561851218"/>
      <point x="1008.0" y="1246.0"/>
      <point x="1008.0" y="1304.0" type="curve" smooth="yes"/>
      <point x="1008.0" y="1360.0"/>
      <point x="979" y="1400"/>
      <point x="914.0" y="1400.0" type="curve" smooth="yes"/>
      <point x="368.0" y="1400.0" type="line" smooth="yes"/>
      <point x="314.0" y="1400.0"/>
      <point x="280.0" y="1348.0"/>
      <point x="280.0" y="1286.0" type="curve" smooth="yes"/>
      <point x="280.0" y="1234.0"/>
      <point x="301" y="1213"/>
      <point x="344.0" y="1192.0" type="curve" smooth="yes"/>
      <point x="352.0" y="1188.0" type="line" smooth="yes"/>
      <point x="378.9258240356725" y="1174.5370879821637"/>
      <point x="392.9424220580499" y="1157.720335710528"/>
      <point x="386.0" y="1124.0" type="curve" smooth="yes"/>
      <point x="347" y="922"/>
      <point x="239" y="511"/>
      <point x="178.0" y="306.0" type="curve" smooth="yes"/>
      <point x="162.27897437559605" y="252.9415385176367"/>
      <point x="148.36493551816363" y="231.76906746115043"/>
      <point x="116.0" y="220.0" type="curve" smooth="yes"/>
      <point x="94.0" y="212.0" type="line" smooth="yes"/>
      <point x="50.8095477610388" y="196.2943810040141"/>
      <point x="20.0" y="156.0"/>
      <point x="20.0" y="98.0" type="curve" smooth="yes"/>
      <point x="20.0" y="42.0"/>
      <point x="52.326530612244895" y="0.0"/>
      <point x="108.0" y="0.0" type="curve" smooth="yes"/>
      <point x="631.0" y="0.0" type="line" smooth="yes"/>
      <point x="710" y="0"/>
      <point x="751.0" y="44.0"/>
      <point x="751.0" y="112.0" type="curve" smooth="yes"/>
      <point x="751.0" y="162.0"/>
      <point x="722.2859207624592" y="187.51536635981455"/>
      <point x="691.0" y="212.0" type="curve" smooth="yes"/>
      <point x="668.0" y="230.0" type="line" smooth="yes"/>
      <point x="650.7286669622652" y="243.516695420836"/>
      <point x="634.0280986920619" y="256.1545428063407"/>
    </contour>
    <contour>
      <point x="1492" y="293" type="curve" smooth="yes"/>
      <point x="1528" y="484"/>
      <point x="1645" y="914"/>
      <point x="1704.0" y="1100.0" type="curve" smooth="yes"/>
      <point x="1720.7839625591052" y="1153.31376342304"/>
      <point x="1740.137478939385" y="1176.9062424783517"/>
      <point x="1760.0" y="1184.0" type="curve" smooth="yes"/>
      <point x="1788.0" y="1194.0" type="line" smooth="yes"/>
      <point x="1836" y="1211"/>
      <point x="1860.0" y="1246.0"/>
      <point x="1860.0" y="1304.0" type="curve" smooth="yes"/>
      <point x="1860.0" y="1360.0"/>
      <point x="1831.0" y="1400.0"/>
      <point x="1766.0" y="1400.0" type="curve" smooth="yes"/>
      <point x="1230.0" y="1400.0" type="line" smooth="yes"/>
      <point x="1170" y="1400"/>
      <point x="1132.0" y="1348.0"/>
      <point x="1132.0" y="1286.0" type="curve" smooth="yes"/>
      <point x="1132.0" y="1234.0"/>
      <point x="1153" y="1213"/>
      <point x="1196.0" y="1192.0" type="curve" smooth="yes"/>
      <point x="1204.0" y="1188.0" type="line" smooth="yes"/>
      <point x="1230.9258240356726" y="1174.5370879821637"/>
      <point x="1244.94242205805" y="1157.7203357105282"/>
      <point x="1238.0" y="1124.0" type="curve" smooth="yes"/>
      <point x="1201" y="954"/>
      <point x="1108.0" y="571.0"/>
      <point x="1030.0" y="306.0" type="curve" smooth="yes"/>
      <point x="1014.278974375596" y="252.9415385176367"/>
      <point x="1000.3649355181636" y="231.76906746115043"/>
      <point x="968.0" y="220.0" type="curve" smooth="yes"/>
      <point x="946.0" y="212.0" type="line" smooth="yes"/>
      <point x="898" y="194"/>
      <point x="872.0" y="156.0"/>
      <point x="872.0" y="98.0" type="curve" smooth="yes"/>
      <point x="872.0" y="42.0"/>
      <point x="898" y="0"/>
      <point x="960.0" y="0.0" type="curve" smooth="yes"/>
      <point x="1474.0" y="0.0" type="line" smooth="yes"/>
      <point x="1560.0" y="0.0"/>
      <point x="1604.0" y="44.0"/>
      <point x="1604.0" y="112.0" type="curve" smooth="yes"/>
      <point x="1604.0" y="162.0"/>
      <point x="1575" y="189"/>
      <point x="1544.0" y="212.0" type="curve" smooth="yes"/>
      <point x="1520.0" y="230.0" type="line" smooth="yes"/>
      <point x="1502.193306372318" y="243.35502022076162"/>
      <point x="1485.0554995819564" y="256.2933549331986"/>
    </contour>
  </outline>
</glyph>
<glyph name="I" format="2">
  <advance width="454"/>
  <unicode hex="0049"/>
  <outline>
    <contour>
      <point x="319" y="139" type="curve" smooth="yes"/>
      <point x="323" y="163"/>
      <point x="369" y="390"/>
      <point x="426" y="550" type="curve" smooth="yes"/>
      <point x="436" y="577"/>
      <point x="447" y="589"/>
      <point x="459" y="592" type="curve" smooth="yes"/>
      <point x="478" y="597" type="line" smooth="yes"/>
      <point x="506" y="603"/>
      <point x="524" y="623"/>
      <point x="524" y="652" type="curve" smooth="yes"/>
      <point x="524" y="680"/>
      <point x="503" y="700"/>
      <point x="467" y="700" type="curve" smooth="yes"/>
      <point x="169" y="700" type="line" smooth="yes"/>
      <point x="139" y="700"/>
      <point x="120" y="674"/>
      <point x="120" y="643" type="curve" smooth="yes"/>
      <point x="120" y="617"/>
      <point x="135" y="602"/>
      <point x="162" y="596" type="curve" smooth="yes"/>
      <point x="171" y="594" type="line" smooth="yes"/>
      <point x="189" y="591"/>
      <point x="195" y="579"/>
      <point x="193" y="562" type="curve" smooth="yes"/>
      <point x="190" y="537"/>
      <point x="131" y="294"/>
      <point x="89" y="153" type="curve" smooth="yes"/>
      <point x="81" y="126"/>
      <point x="69" y="115"/>
      <point x="48" y="110" type="curve" smooth="yes"/>
      <point x="32" y="106" type="line" smooth="yes"/>
      <point x="7" y="100"/>
      <point x="-10" y="78"/>
      <point x="-10" y="49" type="curve" smooth="yes"/>
      <point x="-10" y="21"/>
      <point x="8" y="0"/>
      <point x="39" y="0" type="curve" smooth="yes"/>
      <point x="331" y="0" type="line" smooth="yes"/>
      <point x="374" y="0"/>
      <point x="396" y="22"/>
      <point x="396" y="56" type="curve" smooth="yes"/>
      <point x="396" y="81"/>
      <point x="381" y="98"/>
      <point x="361" y="106" type="curve" smooth="yes"/>
      <point x="339" y="115" type="line" smooth="yes"/>
      <point x="327" y="120"/>
      <point x="317" y="128"/>
    </contour>
  </outline>
</glyph>
<glyph name="J" format="2">
  <advance width="439"/>
  <unicode hex="004A"/>
  <outline>
    <contour>
      <point x="470" y="495" type="curve" smooth="yes"/>
      <point x="493" y="568"/>
      <point x="511" y="570"/>
      <point x="531" y="579" type="curve" smooth="yes"/>
      <point x="543" y="586" type="line" smooth="yes"/>
      <point x="580" y="600"/>
      <point x="615" y="631"/>
      <point x="611" y="656" type="curve" smooth="yes"/>
      <point x="608" y="686"/>
      <point x="601" y="700"/>
      <point x="561" y="700" type="curve" smooth="yes"/>
      <point x="225" y="700" type="line" smooth="yes"/>
      <point x="193" y="700"/>
      <point x="169" y="682"/>
      <point x="172" y="652" type="curve" smooth="yes"/>
      <point x="176" y="623"/>
      <point x="195" y="609"/>
      <point x="211" y="600" type="curve" smooth="yes"/>
      <point x="218" y="596" type="line" smooth="yes"/>
      <point x="238" y="587"/>
      <point x="264" y="554"/>
      <point x="253" y="495" type="curve" smooth="yes"/>
      <point x="240" y="424"/>
      <point x="139" y="204"/>
      <point x="179" y="181" type="curve" smooth="yes"/>
      <point x="196" y="127"/>
      <point x="246" y="100"/>
      <point x="246" y="39" type="curve" smooth="yes"/>
      <point x="246" y="-6"/>
      <point x="221" y="-28"/>
      <point x="187" y="-28" type="curve" smooth="yes"/>
      <point x="132" y="-28"/>
      <point x="83" y="17"/>
      <point x="23" y="17" type="curve" smooth="yes"/>
      <point x="-40" y="17"/>
      <point x="-77" y="-32"/>
      <point x="-77" y="-89" type="curve"/>
      <point x="-77" y="-153"/>
      <point x="-34" y="-196"/>
      <point x="45" y="-196" type="curve" smooth="yes"/>
      <point x="189" y="-196"/>
      <point x="331" y="-110"/>
      <point x="374" y="117" type="curve" smooth="yes"/>
      <point x="383" y="160"/>
      <point x="441" y="404"/>
    </contour>
  </outline>
</glyph>
<glyph name="K" format="2">
  <advance width="1650"/>
  <unicode hex="004B"/>
  <outline>
    <contour>
      <point x="753" y="632" type="line"/>
      <point x="948" y="151" type="line" smooth="yes"/>
      <point x="997" y="29"/>
      <point x="1053" y="-30"/>
      <point x="1204" y="-30" type="curve" smooth="yes"/>
      <point x="1366" y="-30"/>
      <point x="1524" y="79"/>
      <point x="1582" y="246" type="curve" smooth="yes"/>
      <point x="1611" y="329"/>
      <point x="1582" y="369"/>
      <point x="1545" y="378" type="curve" smooth="yes"/>
      <point x="1525" y="383"/>
      <point x="1495" y="376"/>
      <point x="1468" y="358" type="curve" smooth="yes"/>
      <point x="1444" y="342"/>
      <point x="1425" y="328"/>
      <point x="1399" y="328" type="curve" smooth="yes"/>
      <point x="1344" y="328"/>
      <point x="1327" y="381"/>
      <point x="1298" y="450" type="curve" smooth="yes"/>
      <point x="1104" y="912" type="line"/>
    </contour>
    <contour>
      <point x="597" y="374" type="line"/>
      <point x="1155" y="919" type="line" smooth="yes"/>
      <point x="1210.2366500540907" y="972.9497746944076"/>
      <point x="1276" y="1010"/>
      <point x="1325" y="1010" type="curve" smooth="yes"/>
      <point x="1410" y="1010"/>
      <point x="1473.0" y="959.0"/>
      <point x="1553" y="959" type="curve" smooth="yes"/>
      <point x="1649.2696629213483" y="959.0"/>
      <point x="1706.0" y="1056.0"/>
      <point x="1706" y="1190" type="curve" smooth="yes"/>
      <point x="1706.0" y="1327.0"/>
      <point x="1638.4642857142858" y="1430.0"/>
      <point x="1523" y="1430" type="curve" smooth="yes"/>
      <point x="1428.13698630137" y="1430.0"/>
      <point x="1367.2850939258303" y="1384.4568858435723"/>
      <point x="1246" y="1263" type="curve" smooth="yes"/>
      <point x="540" y="556" type="line"/>
    </contour>
    <contour>
      <point x="607" y="278" type="curve" smooth="yes"/>
      <point x="615" y="326"/>
      <point x="773" y="884"/>
      <point x="838" y="1100" type="curve" smooth="yes"/>
      <point x="854" y="1153"/>
      <point x="875" y="1174"/>
      <point x="894" y="1184" type="curve" smooth="yes"/>
      <point x="912" y="1194" type="line" smooth="yes"/>
      <point x="958" y="1220"/>
      <point x="994" y="1246"/>
      <point x="994" y="1304" type="curve" smooth="yes"/>
      <point x="994" y="1360"/>
      <point x="965" y="1400"/>
      <point x="900" y="1400" type="curve" smooth="yes"/>
      <point x="414" y="1400" type="line" smooth="yes"/>
      <point x="336" y="1400"/>
      <point x="292" y="1353"/>
      <point x="292" y="1285" type="curve" smooth="yes"/>
      <point x="292" y="1243"/>
      <point x="311" y="1218"/>
      <point x="349" y="1196" type="curve" smooth="yes"/>
      <point x="375" y="1181" type="line" smooth="yes"/>
      <point x="396" y="1169"/>
      <point x="408" y="1154"/>
      <point x="402" y="1124" type="curve" smooth="yes"/>
      <point x="358" y="921"/>
      <point x="238" y="512"/>
      <point x="177" y="306" type="curve" smooth="yes"/>
      <point x="162" y="256"/>
      <point x="151" y="240"/>
      <point x="124" y="227" type="curve" smooth="yes"/>
      <point x="92" y="211" type="line" smooth="yes"/>
      <point x="54" y="192"/>
      <point x="18" y="155"/>
      <point x="18" y="98" type="curve" smooth="yes"/>
      <point x="18" y="42"/>
      <point x="39" y="0"/>
      <point x="123" y="0" type="curve" smooth="yes"/>
      <point x="600" y="0" type="line" smooth="yes"/>
      <point x="679" y="0"/>
      <point x="720" y="44"/>
      <point x="720" y="112" type="curve" smooth="yes"/>
      <point x="720" y="162"/>
      <point x="691" y="188"/>
      <point x="660" y="212" type="curve" smooth="yes"/>
      <point x="637" y="230" type="line" smooth="yes"/>
      <point x="620" y="244"/>
      <point x="603" y="256"/>
    </contour>
  </outline>
</glyph>
<glyph name="L" format="1">
  <advance width="608"/>
  <unicode hex="004C"/>
  <outline>
    <contour>
      <point x="412" y="0" type="line" smooth="yes"/>
      <point x="461" y="0"/>
      <point x="489" y="-16"/>
      <point x="523" y="-16" type="curve" smooth="yes"/>
      <point x="602" y="-16"/>
      <point x="669" y="87"/>
      <point x="669" y="196" type="curve" smooth="yes"/>
      <point x="669" y="241"/>
      <point x="651" y="259"/>
      <point x="622" y="259" type="curve" smooth="yes"/>
      <point x="598" y="259"/>
      <point x="574" y="248"/>
      <point x="546" y="205" type="curve" smooth="yes"/>
      <point x="523" y="169" type="line" smooth="yes"/>
      <point x="497" y="129"/>
      <point x="491" y="99"/>
      <point x="460" y="99" type="curve" smooth="yes"/>
      <point x="396" y="99"/>
      <point x="372" y="123"/>
      <point x="372" y="155" type="curve" smooth="yes"/>
      <point x="372" y="198"/>
      <point x="412" y="396"/>
      <point x="466" y="550" type="curve" smooth="yes"/>
      <point x="476" y="576"/>
      <point x="487" y="590"/>
      <point x="510" y="595" type="curve" smooth="yes"/>
      <point x="536" y="601" type="line" smooth="yes"/>
      <point x="557" y="607"/>
      <point x="574" y="619"/>
      <point x="570" y="651" type="curve" smooth="yes"/>
      <point x="566" y="677"/>
      <point x="562" y="699"/>
      <point x="524" y="699" type="curve" smooth="yes"/>
      <point x="213" y="699" type="line" smooth="yes"/>
      <point x="189" y="699"/>
      <point x="184" y="685"/>
      <point x="175" y="651" type="curve" smooth="yes"/>
      <point x="168" y="620"/>
      <point x="179" y="607"/>
      <point x="199" y="601" type="curve" smooth="yes"/>
      <point x="223" y="595" type="line" smooth="yes"/>
      <point x="241" y="590"/>
      <point x="248" y="576"/>
      <point x="245" y="557" type="curve" smooth="yes"/>
      <point x="220" y="424"/>
      <point x="188" y="289"/>
      <point x="148" y="162" type="curve" smooth="yes"/>
      <point x="136" y="134"/>
      <point x="127" y="116"/>
      <point x="102" y="110" type="curve" smooth="yes"/>
      <point x="81" y="105" type="line" smooth="yes"/>
      <point x="52" y="99"/>
      <point x="46" y="79"/>
      <point x="40" y="52" type="curve" smooth="yes"/>
      <point x="30" y="16"/>
      <point x="50" y="0"/>
      <point x="87" y="0" type="curve" smooth="yes"/>
    </contour>
  </outline>
</glyph>
<glyph name="M" format="2">
  <advance width="1018"/>
  <unicode hex="004D"/>
  <outline>
    <contour>
      <point x="596" y="205" type="line"/>
      <point x="563" y="356"/>
      <point x="521" y="507"/>
      <point x="498" y="622" type="curve" smooth="yes"/>
      <point x="485" y="690"/>
      <point x="446" y="700"/>
      <point x="395" y="700" type="curve" smooth="yes"/>
      <point x="251" y="700" type="line" smooth="yes"/>
      <point x="221" y="700"/>
      <point x="192" y="688"/>
      <point x="195" y="658" type="curve" smooth="yes"/>
      <point x="198" y="624"/>
      <point x="214" y="611"/>
      <point x="236" y="596" type="curve" smooth="yes"/>
      <point x="242" y="588" type="line" smooth="yes"/>
      <point x="256" y="577"/>
      <point x="268" y="570"/>
      <point x="262" y="552" type="curve" smooth="yes"/>
      <point x="181" y="252" type="line" smooth="yes"/>
      <point x="153" y="157"/>
      <point x="129" y="128"/>
      <point x="103" y="118" type="curve" smooth="yes"/>
      <point x="82" y="109" type="line" smooth="yes"/>
      <point x="40" y="90"/>
      <point x="19" y="73"/>
      <point x="22" y="48" type="curve" smooth="yes"/>
      <point x="27" y="19"/>
      <point x="35" y="0"/>
      <point x="66" y="0" type="curve" smooth="yes"/>
      <point x="303" y="0" type="line" smooth="yes"/>
      <point x="332" y="0"/>
      <point x="366" y="18"/>
      <point x="361" y="49" type="curve" smooth="yes"/>
      <point x="357" y="76"/>
      <point x="356" y="81"/>
      <point x="306" y="109" type="curve" smooth="yes"/>
      <point x="314" y="107" type="line" smooth="yes"/>
      <point x="281" y="125"/>
      <point x="267" y="162"/>
      <point x="293" y="250" type="curve" smooth="yes"/>
      <point x="350" y="476" type="line"/>
      <point x="313" y="463" type="line"/>
      <point x="350" y="299"/>
      <point x="387" y="201"/>
      <point x="402" y="163" type="curve" smooth="yes"/>
      <point x="420" y="65"/>
      <point x="458" y="50"/>
      <point x="501" y="50" type="curve" smooth="yes"/>
      <point x="529" y="50"/>
      <point x="552" y="60"/>
      <point x="596" y="126" type="curve" smooth="yes"/>
      <point x="797" y="425" type="line"/>
      <point x="799" y="428" type="line"/>
      <point x="784" y="328"/>
      <point x="752" y="236"/>
      <point x="734" y="148" type="curve" smooth="yes"/>
      <point x="729" y="122"/>
      <point x="714" y="109"/>
      <point x="695" y="105" type="curve" smooth="yes"/>
      <point x="667" y="98" type="line" smooth="yes"/>
      <point x="635" y="90"/>
      <point x="610" y="69"/>
      <point x="615" y="46" type="curve" smooth="yes"/>
      <point x="618" y="24"/>
      <point x="623" y="0"/>
      <point x="659" y="0" type="curve" smooth="yes"/>
      <point x="975" y="0" type="line" smooth="yes"/>
      <point x="1008" y="0"/>
      <point x="1032" y="16"/>
      <point x="1029" y="46" type="curve" smooth="yes"/>
      <point x="1025" y="71"/>
      <point x="1015" y="88"/>
      <point x="988" y="98" type="curve" smooth="yes"/>
      <point x="973" y="104" type="line" smooth="yes"/>
      <point x="952" y="112"/>
      <point x="945" y="122"/>
      <point x="949" y="148" type="curve" smooth="yes"/>
      <point x="966" y="281"/>
      <point x="1010" y="415"/>
      <point x="1039" y="554" type="curve" smooth="yes"/>
      <point x="1044" y="579"/>
      <point x="1058" y="593"/>
      <point x="1077" y="597" type="curve" smooth="yes"/>
      <point x="1108" y="604" type="line" smooth="yes"/>
      <point x="1128" y="608"/>
      <point x="1145" y="634"/>
      <point x="1141" y="654" type="curve" smooth="yes"/>
      <point x="1138" y="686"/>
      <point x="1114" y="700"/>
      <point x="1095" y="700" type="curve" smooth="yes"/>
      <point x="1095" y="700"/>
      <point x="910" y="700"/>
      <point x="877" y="700" type="curve" smooth="yes"/>
      <point x="849" y="700"/>
      <point x="819" y="689"/>
      <point x="783" y="632" type="curve" smooth="yes"/>
      <point x="497" y="174" type="line"/>
    </contour>
  </outline>
</glyph>
<glyph name="N" format="2">
  <advance width="1569"/>
  <unicode hex="004E"/>
  <outline>
    <contour>
      <point x="430" y="394" type="line" smooth="yes"/>
      <point x="414" y="329"/>
      <point x="423" y="263"/>
      <point x="472" y="226" type="curve" smooth="yes"/>
      <point x="496" y="208" type="line" smooth="yes"/>
      <point x="532" y="181"/>
      <point x="566" y="146"/>
      <point x="566" y="92" type="curve" smooth="yes"/>
      <point x="566" y="30"/>
      <point x="534" y="0"/>
      <point x="486" y="0" type="curve" smooth="yes"/>
      <point x="110" y="0" type="line" smooth="yes"/>
      <point x="55" y="0"/>
      <point x="21" y="38"/>
      <point x="21" y="92" type="curve" smooth="yes"/>
      <point x="21" y="144"/>
      <point x="44" y="172"/>
      <point x="91" y="201" type="curve" smooth="yes"/>
      <point x="135" y="228" type="line" smooth="yes"/>
      <point x="170" y="249"/>
      <point x="193" y="323"/>
      <point x="218" y="420" type="curve" smooth="yes"/>
      <point x="346" y="916" type="line" smooth="yes"/>
      <point x="370" y="1009"/>
      <point x="368" y="1095"/>
      <point x="317" y="1148" type="curve" smooth="yes"/>
      <point x="277" y="1190" type="line" smooth="yes"/>
      <point x="200" y="1271"/>
      <point x="218" y="1400"/>
      <point x="347" y="1400" type="curve" smooth="yes"/>
      <point x="586" y="1400" type="line" smooth="yes"/>
      <point x="702" y="1400"/>
      <point x="764" y="1340"/>
      <point x="816" y="1242" type="curve" smooth="yes"/>
      <point x="966" y="962"/>
      <point x="1130" y="648"/>
      <point x="1266" y="412" type="curve"/>
      <point x="1084" y="294" type="line"/>
      <point x="1246" y="1140" type="line" smooth="yes"/>
      <point x="1286" y="1352"/>
      <point x="1386" y="1458"/>
      <point x="1548" y="1458" type="curve" smooth="yes"/>
      <point x="1680" y="1458"/>
      <point x="1752" y="1396"/>
      <point x="1752" y="1266" type="curve" smooth="yes"/>
      <point x="1752" y="1160"/>
      <point x="1696" y="1077"/>
      <point x="1578" y="1010" type="curve" smooth="yes"/>
      <point x="1461" y="944"/>
      <point x="1393" y="841"/>
      <point x="1373" y="705" type="curve" smooth="yes"/>
      <point x="1340" y="478" type="line" smooth="yes"/>
      <point x="1331" y="413"/>
      <point x="1322" y="359"/>
      <point x="1348" y="298" type="curve" smooth="yes"/>
      <point x="1398" y="184" type="line" smooth="yes"/>
      <point x="1437" y="96"/>
      <point x="1400" y="0"/>
      <point x="1312" y="0" type="curve" smooth="yes"/>
      <point x="984" y="0" type="line" smooth="yes"/>
      <point x="904" y="0"/>
      <point x="854" y="48"/>
      <point x="854" y="138" type="curve" smooth="yes"/>
      <point x="854" y="224"/>
      <point x="838" y="302"/>
      <point x="792" y="384" type="curve" smooth="yes"/>
      <point x="732" y="490"/>
      <point x="574" y="764"/>
      <point x="390" y="1082" type="curve"/>
      <point x="601" y="1096" type="line"/>
    </contour>
  </outline>
</glyph>
<glyph name="O" format="2">
  <advance width="1610"/>
  <unicode hex="004F"/>
  <anchor x="994.0" y="1546.0" name="center"/>
  <outline>
    <contour>
      <point x="1061" y="1432" type="curve" smooth="yes"/>
      <point x="563" y="1432.0"/>
      <point x="216" y="1163"/>
      <point x="121" y="728" type="curve" smooth="yes"/>
      <point x="20" y="268"/>
      <point x="242" y="-30"/>
      <point x="651" y="-30.0" type="curve" smooth="yes"/>
      <point x="1071.668085106383" y="-30.0"/>
      <point x="1475.2183057620184" y="193.69879540819363"/>
      <point x="1597" y="708" type="curve" smooth="yes"/>
      <point x="1700.3245597204584" y="1145.1423680480934"/>
      <point x="1481.7094339622643" y="1432.0"/>
    </contour>
    <contour>
      <point x="708.0" y="188.0" type="curve" smooth="yes"/>
      <point x="630.0" y="188.0"/>
      <point x="582.0" y="292.0"/>
      <point x="686.0" y="716.0" type="curve" smooth="yes"/>
      <point x="772.0" y="1070.0"/>
      <point x="890.0" y="1214.0"/>
      <point x="1006.0" y="1214.0" type="curve" smooth="yes"/>
      <point x="1096.0" y="1214.0"/>
      <point x="1124.0" y="1086.0"/>
      <point x="1032.0" y="720.0" type="curve" smooth="yes"/>
      <point x="922.0" y="280.0"/>
      <point x="820.0" y="188.0"/>
    </contour>
  </outline>
</glyph>
<glyph name="P" format="2">
  <advance width="1475"/>
  <unicode hex="0050"/>
  <outline>
    <contour>
      <point x="1539" y="884" type="curve" smooth="yes"/>
      <point x="1571" y="1217"/>
      <point x="1365" y="1400"/>
      <point x="1017" y="1400" type="curve" smooth="yes"/>
      <point x="377" y="1400" type="line" smooth="yes"/>
      <point x="308" y="1400"/>
      <point x="265" y="1351"/>
      <point x="265" y="1294" type="curve" smooth="yes"/>
      <point x="265" y="1254"/>
      <point x="287" y="1212"/>
      <point x="313" y="1203" type="curve" smooth="yes"/>
      <point x="338" y="1194" type="line" smooth="yes"/>
      <point x="368" y="1183"/>
      <point x="384" y="1162"/>
      <point x="381" y="1126" type="curve" smooth="yes"/>
      <point x="372" y="1026"/>
      <point x="241" y="514"/>
      <point x="175" y="300" type="curve" smooth="yes"/>
      <point x="163" y="262"/>
      <point x="149" y="228"/>
      <point x="118" y="222" type="curve" smooth="yes"/>
      <point x="89" y="216" type="line" smooth="yes"/>
      <point x="47" y="207"/>
      <point x="17" y="160"/>
      <point x="17" y="105" type="curve" smooth="yes"/>
      <point x="17" y="37"/>
      <point x="49" y="0"/>
      <point x="109" y="0" type="curve" smooth="yes"/>
      <point x="660" y="0" type="line" smooth="yes"/>
      <point x="736" y="0"/>
      <point x="771" y="47"/>
      <point x="771" y="109" type="curve" smooth="yes"/>
      <point x="771" y="159"/>
      <point x="744" y="197"/>
      <point x="705" y="207" type="curve" smooth="yes"/>
      <point x="685" y="212" type="line" smooth="yes"/>
      <point x="642" y="223"/>
      <point x="630" y="269"/>
      <point x="641" y="320" type="curve" smooth="yes"/>
      <point x="688" y="548"/>
      <point x="810" y="990"/>
      <point x="819" y="1035" type="curve" smooth="yes"/>
      <point x="848" y="1142"/>
      <point x="902" y="1186"/>
      <point x="957" y="1186" type="curve" smooth="yes"/>
      <point x="1028" y="1186"/>
      <point x="1105" y="1110"/>
      <point x="1080" y="907" type="curve" smooth="yes"/>
      <point x="1055" y="706"/>
      <point x="968" y="615"/>
      <point x="829" y="615" type="curve" smooth="yes"/>
      <point x="720" y="615"/>
      <point x="612" y="660"/>
      <point x="527" y="741" type="curve"/>
      <point x="406" y="567" type="line"/>
      <point x="595" y="443"/>
      <point x="714" y="395"/>
      <point x="969" y="395" type="curve" smooth="yes"/>
      <point x="1276" y="395"/>
      <point x="1509" y="567"/>
    </contour>
  </outline>
</glyph>
<glyph name="Q" format="2">
  <advance width="1610"/>
  <unicode hex="0051"/>
  <outline>
    <contour>
      <point x="713" y="365" type="curve" smooth="yes"/>
      <point x="582.207465383291" y="-147.10307784542238"/>
      <point x="777.1635883905013" y="-396.0"/>
      <point x="1099" y="-396.0" type="curve" smooth="yes"/>
      <point x="1165" y="-396"/>
      <point x="1222" y="-348"/>
      <point x="1262" y="-292" type="curve" smooth="yes"/>
      <point x="1353" y="-166" type="line" smooth="yes"/>
      <point x="1376" y="-134"/>
      <point x="1367" y="-89"/>
      <point x="1345" y="-82" type="curve" smooth="yes"/>
      <point x="1313" y="-71"/>
      <point x="1271" y="-126"/>
      <point x="1171" y="-126" type="curve" smooth="yes"/>
      <point x="854.9455040871935" y="-126.0"/>
      <point x="736.6405796790672" y="19.703745398660146"/>
      <point x="813.0" y="342" type="curve" smooth="yes"/>
      <point x="823.5181263741483" y="389.3315686836675"/>
      <point x="815.4693231078276" y="417.2464216466986"/>
      <point x="779.0" y="424.0" type="curve" smooth="yes"/>
      <point x="745.6541855553669" y="430.6691628889266"/>
      <point x="723.4357376601191" y="405.7942472168293"/>
    </contour>
    <contour>
      <point x="1059" y="1432" type="curve" smooth="yes"/>
      <point x="544" y="1460"/>
      <point x="202" y="1182"/>
      <point x="101" y="728" type="curve" smooth="yes"/>
      <point x="2" y="282"/>
      <point x="211" y="-9"/>
      <point x="642" y="-30" type="curve" smooth="yes"/>
      <point x="1090" y="-51"/>
      <point x="1490" y="170"/>
      <point x="1617" y="708" type="curve" smooth="yes"/>
      <point x="1716" y="1129"/>
      <point x="1539" y="1406"/>
    </contour>
    <contour>
      <point x="714" y="187" type="curve" smooth="yes"/>
      <point x="609" y="201"/>
      <point x="561" y="285"/>
      <point x="666" y="716" type="curve" smooth="yes"/>
      <point x="763" y="1112"/>
      <point x="883" y="1230"/>
      <point x="1006" y="1214" type="curve" smooth="yes"/>
      <point x="1112" y="1200"/>
      <point x="1145" y="1093"/>
      <point x="1052" y="720" type="curve" smooth="yes"/>
      <point x="939" y="267"/>
      <point x="821" y="172"/>
    </contour>
  </outline>
</glyph>
<glyph name="R" format="2">
  <advance width="1578"/>
  <unicode hex="0052"/>
  <outline>
    <contour>
      <point x="463" y="570" type="line"/>
      <point x="564" y="512"/>
      <point x="679" y="482"/>
      <point x="847" y="486" type="curve" smooth="yes"/>
      <point x="1239" y="494"/>
      <point x="1506" y="650"/>
      <point x="1577" y="895" type="curve" smooth="yes"/>
      <point x="1668" y="1209"/>
      <point x="1432" y="1400"/>
      <point x="1001" y="1400" type="curve" smooth="yes"/>
      <point x="410" y="1400" type="line" smooth="yes"/>
      <point x="332" y="1400"/>
      <point x="288" y="1353"/>
      <point x="288" y="1285" type="curve" smooth="yes"/>
      <point x="288" y="1241"/>
      <point x="310" y="1216"/>
      <point x="345" y="1196" type="curve" smooth="yes"/>
      <point x="371" y="1181" type="line" smooth="yes"/>
      <point x="414" y="1156"/>
      <point x="399" y="1136"/>
      <point x="383" y="1060" type="curve" smooth="yes"/>
      <point x="354" y="927"/>
      <point x="206" y="415"/>
      <point x="172" y="303" type="curve" smooth="yes"/>
      <point x="159" y="260"/>
      <point x="149" y="241"/>
      <point x="120" y="227" type="curve" smooth="yes"/>
      <point x="88" y="211" type="line" smooth="yes"/>
      <point x="50" y="192"/>
      <point x="14" y="155"/>
      <point x="14" y="98" type="curve" smooth="yes"/>
      <point x="14" y="41"/>
      <point x="36" y="0"/>
      <point x="119" y="0" type="curve" smooth="yes"/>
      <point x="596" y="0" type="line" smooth="yes"/>
      <point x="676" y="0"/>
      <point x="716" y="45"/>
      <point x="716" y="112" type="curve" smooth="yes"/>
      <point x="716" y="160"/>
      <point x="691" y="185"/>
      <point x="656" y="212" type="curve" smooth="yes"/>
      <point x="633" y="230" type="line" smooth="yes"/>
      <point x="612" y="247"/>
      <point x="596" y="246"/>
      <point x="611" y="315" type="curve" smooth="yes"/>
      <point x="648" y="481"/>
      <point x="784" y="943"/>
      <point x="827" y="1086" type="curve" smooth="yes"/>
      <point x="849" y="1159"/>
      <point x="877" y="1210"/>
      <point x="966" y="1210" type="curve" smooth="yes"/>
      <point x="1071" y="1210"/>
      <point x="1153" y="1138"/>
      <point x="1132" y="975" type="curve" smooth="yes"/>
      <point x="1110" y="807"/>
      <point x="1004" y="660"/>
      <point x="825" y="660" type="curve" smooth="yes"/>
      <point x="732" y="660"/>
      <point x="664" y="676"/>
      <point x="613" y="714" type="curve"/>
    </contour>
    <contour>
      <point x="785" y="514" type="line"/>
      <point x="879" y="144" type="line" smooth="yes"/>
      <point x="911" y="17"/>
      <point x="981" y="-30"/>
      <point x="1106" y="-30" type="curve" smooth="yes"/>
      <point x="1286" y="-30"/>
      <point x="1448" y="75"/>
      <point x="1512" y="245" type="curve" smooth="yes"/>
      <point x="1537" y="312"/>
      <point x="1523" y="360"/>
      <point x="1480" y="377" type="curve" smooth="yes"/>
      <point x="1457" y="386"/>
      <point x="1426" y="375"/>
      <point x="1410" y="365" type="curve" smooth="yes"/>
      <point x="1383" y="348"/>
      <point x="1357" y="328"/>
      <point x="1329" y="328" type="curve" smooth="yes"/>
      <point x="1286" y="328"/>
      <point x="1262" y="370"/>
      <point x="1248" y="425" type="curve" smooth="yes"/>
      <point x="1204" y="592" type="line"/>
    </contour>
  </outline>
</glyph>
<glyph name="S" format="2">
  <advance width="1309"/>
  <unicode hex="0053"/>
  <outline>
    <contour>
      <point x="651" y="-30" type="curve" smooth="yes"/>
      <point x="997" y="-30"/>
      <point x="1208" y="158"/>
      <point x="1213" y="416" type="curve" smooth="yes"/>
      <point x="1216" y="581"/>
      <point x="1140" y="698"/>
      <point x="864" y="826" type="curve" smooth="yes"/>
      <point x="712" y="896"/>
      <point x="649" y="980"/>
      <point x="650" y="1084" type="curve" smooth="yes"/>
      <point x="651" y="1187"/>
      <point x="715" y="1244"/>
      <point x="813" y="1244" type="curve" smooth="yes"/>
      <point x="897" y="1244"/>
      <point x="973" y="1184"/>
      <point x="1006" y="1086" type="curve" smooth="yes"/>
      <point x="1029" y="1018" type="line" smooth="yes"/>
      <point x="1070" y="898"/>
      <point x="1111" y="872"/>
      <point x="1194" y="872" type="curve" smooth="yes"/>
      <point x="1299" y="872"/>
      <point x="1372" y="956"/>
      <point x="1374" y="1054" type="curve" smooth="yes"/>
      <point x="1378" y="1239"/>
      <point x="1214" y="1430"/>
      <point x="907" y="1430" type="curve" smooth="yes"/>
      <point x="478" y="1430"/>
      <point x="218" y="1206"/>
      <point x="214" y="928" type="curve" smooth="yes"/>
      <point x="211" y="723"/>
      <point x="310" y="611"/>
      <point x="505" y="520" type="curve" smooth="yes"/>
      <point x="681" y="438"/>
      <point x="734" y="362"/>
      <point x="733" y="294" type="curve" smooth="yes"/>
      <point x="732" y="226"/>
      <point x="673" y="184"/>
      <point x="593" y="184" type="curve" smooth="yes"/>
      <point x="485" y="184"/>
      <point x="404" y="240"/>
      <point x="368" y="334" type="curve" smooth="yes"/>
      <point x="339" y="410" type="line" smooth="yes"/>
      <point x="301" y="508"/>
      <point x="253" y="554"/>
      <point x="183" y="554" type="curve" smooth="yes"/>
      <point x="107" y="554"/>
      <point x="56" y="494"/>
      <point x="55" y="384" type="curve" smooth="yes"/>
      <point x="48" y="98" type="line" smooth="yes"/>
      <point x="46" y="4"/>
      <point x="83" y="-34"/>
      <point x="153" y="-34" type="curve" smooth="yes"/>
      <point x="255" y="-34"/>
      <point x="285" y="52"/>
      <point x="339" y="52" type="curve" smooth="yes"/>
      <point x="393" y="52"/>
      <point x="473" y="-30"/>
    </contour>
  </outline>
</glyph>
<glyph name="T" format="2">
  <advance width="1358"/>
  <unicode hex="0054"/>
  <outline>
    <contour>
      <point x="563" y="1434" type="curve" smooth="yes"/>
      <point x="306" y="1434"/>
      <point x="155" y="1290"/>
      <point x="155" y="1098" type="curve" smooth="yes"/>
      <point x="155" y="963"/>
      <point x="230" y="887"/>
      <point x="337" y="887" type="curve" smooth="yes"/>
      <point x="434" y="887"/>
      <point x="499" y="960"/>
      <point x="499" y="1033" type="curve" smooth="yes"/>
      <point x="499" y="1083"/>
      <point x="493" y="1108"/>
      <point x="493" y="1146" type="curve" smooth="yes"/>
      <point x="493" y="1209"/>
      <point x="525" y="1246"/>
      <point x="585" y="1246" type="curve" smooth="yes"/>
      <point x="741" y="1246"/>
      <point x="1123" y="1068"/>
      <point x="1291" y="1068" type="curve" smooth="yes"/>
      <point x="1477" y="1068"/>
      <point x="1579" y="1186"/>
      <point x="1579" y="1334" type="curve" smooth="yes"/>
      <point x="1579" y="1440"/>
      <point x="1515" y="1488"/>
      <point x="1435" y="1488" type="curve" smooth="yes"/>
      <point x="1354" y="1488"/>
      <point x="1320" y="1463"/>
      <point x="1273" y="1412" type="curve" smooth="yes"/>
      <point x="1235" y="1369"/>
      <point x="1209" y="1330"/>
      <point x="1131" y="1330" type="curve" smooth="yes"/>
      <point x="995" y="1330"/>
      <point x="795" y="1434"/>
    </contour>
    <contour>
      <point x="905" y="400" type="curve" smooth="yes"/>
      <point x="939" y="534"/>
      <point x="1074" y="1046"/>
      <point x="1131" y="1240" type="curve"/>
      <point x="721" y="1316" type="line"/>
      <point x="672" y="1123"/>
      <point x="491" y="553"/>
      <point x="425" y="352" type="curve" smooth="yes"/>
      <point x="400" y="277"/>
      <point x="376" y="246"/>
      <point x="347" y="230" type="curve" smooth="yes"/>
      <point x="311" y="210" type="line" smooth="yes"/>
      <point x="266" y="185"/>
      <point x="241" y="154"/>
      <point x="237" y="100" type="curve" smooth="yes"/>
      <point x="233" y="34"/>
      <point x="263" y="0"/>
      <point x="315" y="0" type="curve" smooth="yes"/>
      <point x="893" y="0" type="line" smooth="yes"/>
      <point x="961" y="0"/>
      <point x="1007" y="32"/>
      <point x="1007" y="100" type="curve" smooth="yes"/>
      <point x="1007" y="150"/>
      <point x="991" y="189"/>
      <point x="949" y="214" type="curve" smooth="yes"/>
      <point x="924" y="229" type="line" smooth="yes"/>
      <point x="893" y="247"/>
      <point x="879" y="296"/>
    </contour>
  </outline>
</glyph>
<glyph name="U" format="2">
  <advance width="1575"/>
  <unicode hex="0055"/>
  <anchor x="1137" y="1476.0" name="center"/>
  <outline>
    <contour>
      <point x="1141" y="480" type="line" smooth="yes"/>
      <point x="1081" y="268"/>
      <point x="985" y="206"/>
      <point x="863" y="206" type="curve" smooth="yes"/>
      <point x="753" y="206"/>
      <point x="687" y="268"/>
      <point x="687" y="390" type="curve" smooth="yes"/>
      <point x="687" y="450"/>
      <point x="701" y="518"/>
      <point x="735" y="646" type="curve" smooth="yes"/>
      <point x="831" y="1006" type="line" smooth="yes"/>
      <point x="858" y="1107"/>
      <point x="886" y="1170"/>
      <point x="945" y="1196" type="curve" smooth="yes"/>
      <point x="963" y="1204" type="line" smooth="yes"/>
      <point x="1015" y="1227"/>
      <point x="1047" y="1270"/>
      <point x="1047" y="1312" type="curve" smooth="yes"/>
      <point x="1047" y="1370"/>
      <point x="1013" y="1400"/>
      <point x="945" y="1400" type="curve" smooth="yes"/>
      <point x="349" y="1400" type="line" smooth="yes"/>
      <point x="295" y="1400"/>
      <point x="261" y="1356"/>
      <point x="261" y="1306" type="curve" smooth="yes"/>
      <point x="261" y="1256"/>
      <point x="276" y="1236"/>
      <point x="321" y="1198" type="curve" smooth="yes"/>
      <point x="335" y="1186" type="line" smooth="yes"/>
      <point x="360" y="1165"/>
      <point x="367" y="1088"/>
      <point x="347" y="1012" type="curve" smooth="yes"/>
      <point x="251" y="646" type="line" smooth="yes"/>
      <point x="225" y="550"/>
      <point x="183" y="406"/>
      <point x="183" y="332" type="curve" smooth="yes"/>
      <point x="183" y="122"/>
      <point x="351" y="-30"/>
      <point x="703" y="-30" type="curve" smooth="yes"/>
      <point x="1045" y="-30"/>
      <point x="1267" y="112"/>
      <point x="1361" y="462" type="curve" smooth="yes"/>
      <point x="1501" y="978" type="line" smooth="yes"/>
      <point x="1529" y="1079"/>
      <point x="1548" y="1115"/>
      <point x="1615" y="1152" type="curve" smooth="yes"/>
      <point x="1633" y="1162" type="line" smooth="yes"/>
      <point x="1689" y="1193"/>
      <point x="1725" y="1226"/>
      <point x="1725" y="1306" type="curve" smooth="yes"/>
      <point x="1725" y="1360"/>
      <point x="1687" y="1400"/>
      <point x="1627" y="1400" type="curve" smooth="yes"/>
      <point x="1271" y="1400" type="line" smooth="yes"/>
      <point x="1195" y="1400"/>
      <point x="1159" y="1362"/>
      <point x="1159" y="1306" type="curve" smooth="yes"/>
      <point x="1159" y="1254"/>
      <point x="1177" y="1217"/>
      <point x="1243" y="1180" type="curve" smooth="yes"/>
      <point x="1261" y="1170" type="line" smooth="yes"/>
      <point x="1303" y="1147"/>
      <point x="1309" y="1081"/>
      <point x="1285" y="996" type="curve" smooth="yes"/>
    </contour>
  </outline>
</glyph>
<glyph name="V" format="2">
  <advance width="1470"/>
  <unicode hex="0056"/>
  <outline>
    <contour>
      <point x="1096.0" y="1292.0" type="curve" smooth="yes"/>
      <point x="1096.0" y="1250.0"/>
      <point x="1119" y="1215"/>
      <point x="1156.0" y="1188.0" type="curve" smooth="yes"/>
      <point x="1180.0" y="1170.0" type="line" smooth="yes"/>
      <point x="1236" y="1128"/>
      <point x="1228" y="1092"/>
      <point x="1150.0" y="966.0" type="curve" smooth="yes"/>
      <point x="631.0" y="126.0" type="line"/>
      <point x="795.0" y="158.0" type="line"/>
      <point x="788.9992140805432" y="461.0396889325701"/>
      <point x="759.9990749820054" y="849.9648493162031"/>
      <point x="764.0" y="1002.0" type="curve" smooth="yes"/>
      <point x="767" y="1124"/>
      <point x="784" y="1162"/>
      <point x="827.0" y="1176.0" type="curve" smooth="yes"/>
      <point x="851.0" y="1184.0" type="line" smooth="yes"/>
      <point x="898" y="1200"/>
      <point x="925.0" y="1238.0"/>
      <point x="925.0" y="1304.0" type="curve" smooth="yes"/>
      <point x="925.0" y="1366.0"/>
      <point x="889" y="1400"/>
      <point x="835.0" y="1400.0" type="curve" smooth="yes"/>
      <point x="326.0" y="1400.0" type="line" smooth="yes"/>
      <point x="262" y="1400"/>
      <point x="204.0" y="1350.0"/>
      <point x="204.0" y="1290.0" type="curve" smooth="yes"/>
      <point x="204.0" y="1236"/>
      <point x="232" y="1206"/>
      <point x="260.0" y="1178.0" type="curve" smooth="yes"/>
      <point x="270.0" y="1168.0" type="line" smooth="yes"/>
      <point x="295" y="1143"/>
      <point x="313" y="1114"/>
      <point x="316.0" y="1054.0" type="curve" smooth="yes"/>
      <point x="322.704056596813" y="907.4684772410867"/>
      <point x="344.9972364897116" y="470.05803371605657"/>
      <point x="349.0" y="386.0" type="curve" smooth="yes"/>
      <point x="351.0" y="342.0"/>
      <point x="361" y="265"/>
      <point x="349.0" y="220.0" type="curve" smooth="yes"/>
      <point x="327.0" y="140.0" type="line" smooth="yes"/>
      <point x="306" y="62"/>
      <point x="338" y="0"/>
      <point x="405.0" y="0.0" type="curve" smooth="yes"/>
      <point x="784.0" y="0.0" type="line" smooth="yes"/>
      <point x="858" y="0"/>
      <point x="884" y="56"/>
      <point x="900.0" y="114.0" type="curve" smooth="yes"/>
      <point x="917.0" y="176.0" type="line" smooth="yes"/>
      <point x="928" y="215"/>
      <point x="939" y="246"/>
      <point x="967.0" y="288.0" type="curve" smooth="yes"/>
      <point x="1382.0" y="916.0" type="line" smooth="yes"/>
      <point x="1476" y="1058"/>
      <point x="1512" y="1089"/>
      <point x="1570.0" y="1134.0" type="curve" smooth="yes"/>
      <point x="1588.0" y="1148.0" type="line" smooth="yes"/>
      <point x="1638" y="1187"/>
      <point x="1664.0" y="1222.0"/>
      <point x="1664.0" y="1282.0" type="curve" smooth="yes"/>
      <point x="1664.0" y="1358.0"/>
      <point x="1626" y="1400"/>
      <point x="1554.0" y="1400.0" type="curve" smooth="yes"/>
      <point x="1182.0" y="1400.0" type="line" smooth="yes"/>
      <point x="1130" y="1400"/>
      <point x="1096.0" y="1356.0"/>
    </contour>
  </outline>
</glyph>
<glyph name="W" format="2">
  <advance width="2210"/>
  <unicode hex="0057"/>
  <anchor x="1360.0" y="1478.0" name="center"/>
  <outline>
    <contour>
      <point x="1196" y="1118" type="line"/>
      <point x="637" y="258" type="line"/>
      <point x="752" y="238" type="line"/>
      <point x="741" y="517"/>
      <point x="753" y="910"/>
      <point x="757" y="1071" type="curve" smooth="yes"/>
      <point x="758" y="1123"/>
      <point x="774" y="1158"/>
      <point x="816" y="1174" type="curve" smooth="yes"/>
      <point x="839" y="1183" type="line" smooth="yes"/>
      <point x="888" y="1202"/>
      <point x="915" y="1238"/>
      <point x="915" y="1291" type="curve" smooth="yes"/>
      <point x="915" y="1360"/>
      <point x="877" y="1400"/>
      <point x="810" y="1400" type="curve" smooth="yes"/>
      <point x="287" y="1400" type="line" smooth="yes"/>
      <point x="227" y="1400"/>
      <point x="182" y="1355"/>
      <point x="182" y="1293" type="curve" smooth="yes"/>
      <point x="182" y="1245"/>
      <point x="198" y="1210"/>
      <point x="237" y="1185" type="curve" smooth="yes"/>
      <point x="251" y="1176" type="line" smooth="yes"/>
      <point x="279" y="1158"/>
      <point x="288" y="1126"/>
      <point x="289" y="1096" type="curve" smooth="yes"/>
      <point x="300" y="856"/>
      <point x="300" y="482"/>
      <point x="305" y="329" type="curve" smooth="yes"/>
      <point x="307" y="267"/>
      <point x="301" y="232"/>
      <point x="291" y="195" type="curve" smooth="yes"/>
      <point x="269" y="114" type="line" smooth="yes"/>
      <point x="248" y="38"/>
      <point x="288" y="0"/>
      <point x="377" y="0" type="curve" smooth="yes"/>
      <point x="648" y="0" type="line" smooth="yes"/>
      <point x="744" y="0"/>
      <point x="776" y="37"/>
      <point x="798" y="104" type="curve" smooth="yes"/>
      <point x="819" y="167" type="line" smooth="yes"/>
      <point x="836" y="218"/>
      <point x="854" y="252"/>
      <point x="878" y="288" type="curve" smooth="yes"/>
      <point x="1304" y="926" type="line"/>
    </contour>
    <contour>
      <point x="1881" y="1297" type="curve" smooth="yes"/>
      <point x="1881" y="1249"/>
      <point x="1895" y="1229"/>
      <point x="1926" y="1203" type="curve" smooth="yes"/>
      <point x="1962" y="1172" type="line" smooth="yes"/>
      <point x="2015" y="1127"/>
      <point x="2004" y="1060"/>
      <point x="1959" y="989" type="curve" smooth="yes"/>
      <point x="1529" y="302" type="line"/>
      <point x="1665" y="238" type="line"/>
      <point x="1637" y="477"/>
      <point x="1610" y="893"/>
      <point x="1603" y="1026" type="curve" smooth="yes"/>
      <point x="1599" y="1104"/>
      <point x="1626" y="1149"/>
      <point x="1661" y="1169" type="curve" smooth="yes"/>
      <point x="1677" y="1178" type="line" smooth="yes"/>
      <point x="1729" y="1207"/>
      <point x="1760" y="1241"/>
      <point x="1760" y="1298" type="curve" smooth="yes"/>
      <point x="1760" y="1367"/>
      <point x="1714" y="1400"/>
      <point x="1646" y="1400" type="curve" smooth="yes"/>
      <point x="1159" y="1400" type="line" smooth="yes"/>
      <point x="1079" y="1400"/>
      <point x="1034" y="1355"/>
      <point x="1034" y="1278" type="curve" smooth="yes"/>
      <point x="1034" y="1243"/>
      <point x="1056" y="1210"/>
      <point x="1087" y="1189" type="curve" smooth="yes"/>
      <point x="1096" y="1183" type="line" smooth="yes"/>
      <point x="1123" y="1165"/>
      <point x="1136" y="1150"/>
      <point x="1143" y="1090" type="curve" smooth="yes"/>
      <point x="1174" y="828"/>
      <point x="1209" y="486"/>
      <point x="1224" y="280" type="curve" smooth="yes"/>
      <point x="1226" y="252"/>
      <point x="1217" y="223"/>
      <point x="1210" y="196" type="curve" smooth="yes"/>
      <point x="1193" y="130" type="line" smooth="yes"/>
      <point x="1175" y="62"/>
      <point x="1215" y="0"/>
      <point x="1286" y="0" type="curve" smooth="yes"/>
      <point x="1600" y="0" type="line" smooth="yes"/>
      <point x="1666" y="0"/>
      <point x="1715" y="42"/>
      <point x="1726" y="111" type="curve" smooth="yes"/>
      <point x="1736" y="171" type="line" smooth="yes"/>
      <point x="1745" y="227"/>
      <point x="1753" y="267"/>
      <point x="1784" y="318" type="curve" smooth="yes"/>
      <point x="2186" y="971" type="line" smooth="yes"/>
      <point x="2243.183347006822" y="1063.887377103121"/>
      <point x="2280" y="1113"/>
      <point x="2331" y="1143" type="curve" smooth="yes"/>
      <point x="2375" y="1169" type="line" smooth="yes"/>
      <point x="2429.4942280077225" y="1201.201134731836"/>
      <point x="2449.0" y="1227.5"/>
      <point x="2449" y="1299" type="curve" smooth="yes"/>
      <point x="2449.0" y="1358.144144144144"/>
      <point x="2414.3109243697477" y="1400"/>
      <point x="2320" y="1400" type="curve" smooth="yes"/>
      <point x="1977" y="1400" type="line" smooth="yes"/>
      <point x="1915" y="1400"/>
      <point x="1881" y="1351"/>
    </contour>
  </outline>
</glyph>
<glyph name="X" format="2">
  <advance width="1636"/>
  <unicode hex="0058"/>
  <outline>
    <contour>
      <point x="656" y="790" type="line"/>
      <point x="312" y="406" type="line" smooth="yes"/>
      <point x="233" y="317"/>
      <point x="167.88834903804423" y="267.53613789157305"/>
      <point x="83" y="234" type="curve" smooth="yes"/>
      <point x="14" y="206"/>
      <point x="-22" y="171"/>
      <point x="-22" y="112" type="curve" smooth="yes"/>
      <point x="-22" y="42"/>
      <point x="16" y="0"/>
      <point x="102" y="0" type="curve" smooth="yes"/>
      <point x="478" y="0" type="line" smooth="yes"/>
      <point x="541" y="0"/>
      <point x="591" y="44"/>
      <point x="591" y="106" type="curve" smooth="yes"/>
      <point x="591" y="156"/>
      <point x="569" y="186"/>
      <point x="541" y="207" type="curve" smooth="yes"/>
      <point x="526" y="218" type="line" smooth="yes"/>
      <point x="466" y="262"/>
      <point x="487" y="318"/>
      <point x="551" y="395" type="curve" smooth="yes"/>
      <point x="760" y="646" type="line"/>
    </contour>
    <contour>
      <point x="990" y="1100" type="curve" smooth="yes"/>
      <point x="975" y="1143"/>
      <point x="1003" y="1171"/>
      <point x="1030" y="1186" type="curve" smooth="yes"/>
      <point x="1052" y="1198" type="line" smooth="yes"/>
      <point x="1104" y="1226"/>
      <point x="1142" y="1248"/>
      <point x="1142" y="1306" type="curve" smooth="yes"/>
      <point x="1142" y="1366"/>
      <point x="1112.0" y="1400.0"/>
      <point x="1056" y="1400" type="curve" smooth="yes"/>
      <point x="410" y="1400" type="line" smooth="yes"/>
      <point x="336" y="1400"/>
      <point x="286.0" y="1362.0"/>
      <point x="286" y="1306" type="curve" smooth="yes"/>
      <point x="286" y="1260"/>
      <point x="304" y="1223"/>
      <point x="355" y="1201" type="curve" smooth="yes"/>
      <point x="412.58959155911003" y="1177.4940442615878"/>
      <point x="448.14342578593414" y="1165.9872521766329"/>
      <point x="474" y="1106" type="curve" smooth="yes"/>
      <point x="564.1376831414007" y="895.0183900096887"/>
      <point x="745.3648875149266" y="392.0035764015467"/>
      <point x="771" y="322" type="curve" smooth="yes"/>
      <point x="790" y="269"/>
      <point x="783" y="232"/>
      <point x="736" y="208" type="curve" smooth="yes"/>
      <point x="716" y="198" type="line" smooth="yes"/>
      <point x="676" y="178"/>
      <point x="642" y="149"/>
      <point x="642" y="108" type="curve" smooth="yes"/>
      <point x="642" y="48"/>
      <point x="685" y="0"/>
      <point x="748" y="0" type="curve" smooth="yes"/>
      <point x="1357" y="0" type="line" smooth="yes"/>
      <point x="1440.0" y="0.0"/>
      <point x="1488" y="42"/>
      <point x="1488" y="100" type="curve" smooth="yes"/>
      <point x="1488.0" y="158.0"/>
      <point x="1452" y="185"/>
      <point x="1382" y="210" type="curve" smooth="yes"/>
      <point x="1346" y="223"/>
      <point x="1312" y="248"/>
      <point x="1285" y="310" type="curve" smooth="yes"/>
      <point x="1189" y="534"/>
      <point x="1034" y="973"/>
    </contour>
    <contour>
      <point x="1082" y="655" type="line"/>
      <point x="1272" y="869" type="line" smooth="yes"/>
      <point x="1320" y="923"/>
      <point x="1361" y="956"/>
      <point x="1410" y="956" type="curve" smooth="yes"/>
      <point x="1464.0" y="956.0"/>
      <point x="1496.0" y="946.0"/>
      <point x="1564" y="946" type="curve" smooth="yes"/>
      <point x="1680" y="946"/>
      <point x="1800" y="1044"/>
      <point x="1800" y="1196" type="curve" smooth="yes"/>
      <point x="1800" y="1328"/>
      <point x="1730" y="1431"/>
      <point x="1590" y="1431" type="curve" smooth="yes"/>
      <point x="1478.0" y="1431.0"/>
      <point x="1385" y="1363"/>
      <point x="1277" y="1218" type="curve" smooth="yes"/>
      <point x="950" y="780" type="line"/>
    </contour>
  </outline>
</glyph>
<glyph name="Y" format="2">
  <advance width="1339"/>
  <unicode hex="0059"/>
  <anchor x="790" y="1496.0" name="center"/>
  <outline>
    <contour>
      <point x="732" y="568" type="line"/>
      <point x="851" y="576" type="line"/>
      <point x="821" y="694"/>
      <point x="753" y="1160"/>
      <point x="725" y="1291" type="curve" smooth="yes"/>
      <point x="706" y="1377"/>
      <point x="654" y="1400"/>
      <point x="576" y="1400" type="curve" smooth="yes"/>
      <point x="287" y="1400" type="line" smooth="yes"/>
      <point x="230" y="1400"/>
      <point x="196" y="1368"/>
      <point x="196" y="1306" type="curve" smooth="yes"/>
      <point x="196" y="1262"/>
      <point x="219" y="1242"/>
      <point x="257" y="1224" type="curve" smooth="yes"/>
      <point x="282" y="1212"/>
      <point x="294" y="1188"/>
      <point x="310" y="1139" type="curve" smooth="yes"/>
      <point x="338" y="1047"/>
      <point x="390" y="701"/>
      <point x="406" y="621" type="curve" smooth="yes"/>
      <point x="417" y="567"/>
      <point x="418" y="505"/>
      <point x="407" y="454" type="curve" smooth="yes"/>
      <point x="381" y="332" type="line" smooth="yes"/>
      <point x="370" y="281"/>
      <point x="346" y="248"/>
      <point x="312" y="230" type="curve" smooth="yes"/>
      <point x="289" y="218" type="line" smooth="yes"/>
      <point x="241" y="193"/>
      <point x="206" y="165"/>
      <point x="203" y="106" type="curve" smooth="yes"/>
      <point x="200" y="35"/>
      <point x="237" y="0"/>
      <point x="308" y="0" type="curve" smooth="yes"/>
      <point x="820" y="0" type="line" smooth="yes"/>
      <point x="888" y="0"/>
      <point x="934" y="31"/>
      <point x="934" y="108" type="curve" smooth="yes"/>
      <point x="934" y="144"/>
      <point x="919" y="172"/>
      <point x="876" y="206" type="curve" smooth="yes"/>
      <point x="862" y="217" type="line" smooth="yes"/>
      <point x="842" y="232"/>
      <point x="830" y="264"/>
      <point x="845" y="345" type="curve" smooth="yes"/>
      <point x="860" y="421" type="line" smooth="yes"/>
      <point x="867" y="458"/>
      <point x="880" y="502"/>
      <point x="911" y="564" type="curve" smooth="yes"/>
      <point x="1042" y="827" type="line" smooth="yes"/>
      <point x="1092" y="927"/>
      <point x="1169" y="986"/>
      <point x="1298" y="1013" type="curve" smooth="yes"/>
      <point x="1446" y="1043"/>
      <point x="1530" y="1113"/>
      <point x="1530" y="1251" type="curve" smooth="yes"/>
      <point x="1530" y="1366"/>
      <point x="1471" y="1449"/>
      <point x="1358" y="1449" type="curve" smooth="yes"/>
      <point x="1211" y="1449"/>
      <point x="1102" y="1343"/>
      <point x="1014" y="1158" type="curve" smooth="yes"/>
    </contour>
  </outline>
</glyph>
<glyph name="Z" format="2">
  <advance width="1446"/>
  <unicode hex="005A"/>
  <outline>
    <contour>
      <point x="786" y="0" type="line" smooth="yes"/>
      <point x="884" y="0"/>
      <point x="942" y="-42"/>
      <point x="1010" y="-42" type="curve" smooth="yes"/>
      <point x="1207" y="-42"/>
      <point x="1382" y="152"/>
      <point x="1382" y="366" type="curve" smooth="yes"/>
      <point x="1382" y="514"/>
      <point x="1348" y="580"/>
      <point x="1284" y="580" type="curve" smooth="yes"/>
      <point x="1226" y="580"/>
      <point x="1183" y="556"/>
      <point x="1137" y="467" type="curve" smooth="yes"/>
      <point x="1028" y="258"/>
      <point x="884" y="198"/>
      <point x="713" y="198" type="curve" smooth="yes"/>
      <point x="580" y="198" type="line"/>
      <point x="585" y="166" type="line"/>
      <point x="835" y="471"/>
      <point x="1311" y="983"/>
      <point x="1403" y="1082" type="curve" smooth="yes"/>
      <point x="1472" y="1157"/>
      <point x="1528" y="1218"/>
      <point x="1528" y="1282" type="curve" smooth="yes"/>
      <point x="1528" y="1366"/>
      <point x="1488" y="1402"/>
      <point x="1394" y="1402" type="curve" smooth="yes"/>
      <point x="684" y="1402" type="line" smooth="yes"/>
      <point x="604" y="1402"/>
      <point x="568" y="1448"/>
      <point x="514" y="1448" type="curve" smooth="yes"/>
      <point x="434" y="1448"/>
      <point x="405" y="1408"/>
      <point x="348" y="1310" type="curve" smooth="yes"/>
      <point x="251" y="1143" type="line" smooth="yes"/>
      <point x="200" y="1055"/>
      <point x="217" y="964"/>
      <point x="280" y="936" type="curve" smooth="yes"/>
      <point x="332" y="913"/>
      <point x="424" y="930"/>
      <point x="489" y="1015" type="curve" smooth="yes"/>
      <point x="603" y="1162"/>
      <point x="742" y="1223"/>
      <point x="860" y="1224" type="curve" smooth="yes"/>
      <point x="1083" y="1226" type="line"/>
      <point x="1042" y="1302" type="line"/>
      <point x="901" y="1142"/>
      <point x="329" y="515"/>
      <point x="160" y="336" type="curve" smooth="yes"/>
      <point x="92" y="264"/>
      <point x="36" y="190"/>
      <point x="36" y="122" type="curve" smooth="yes"/>
      <point x="36" y="38"/>
      <point x="78" y="0"/>
      <point x="174" y="0" type="curve" smooth="yes"/>
    </contour>
  </outline>
</glyph>
<glyph name="bracketleft" format="2">
  <advance width="776"/>
  <unicode hex="005B"/>
  <outline>
    <contour>
      <point x="672" y="1186" type="line" smooth="yes"/>
      <point x="693" y="1266"/>
      <point x="732" y="1294"/>
      <point x="817" y="1294" type="curve" smooth="yes"/>
      <point x="900" y="1294" type="line" smooth="yes"/>
      <point x="972" y="1294"/>
      <point x="1012" y="1327"/>
      <point x="1028" y="1387" type="curve" smooth="yes"/>
      <point x="1042" y="1439"/>
      <point x="1021" y="1479"/>
      <point x="949" y="1479" type="curve" smooth="yes"/>
      <point x="546" y="1479" type="line" smooth="yes"/>
      <point x="458" y="1479"/>
      <point x="415" y="1437"/>
      <point x="389" y="1341" type="curve" smooth="yes"/>
      <point x="-2" y="-118" type="line" smooth="yes"/>
      <point x="-27" y="-214"/>
      <point x="-7" y="-256"/>
      <point x="81" y="-256" type="curve" smooth="yes"/>
      <point x="484" y="-256" type="line" smooth="yes"/>
      <point x="556" y="-256"/>
      <point x="598" y="-216"/>
      <point x="612" y="-164" type="curve" smooth="yes"/>
      <point x="628" y="-104"/>
      <point x="606" y="-71"/>
      <point x="534" y="-71" type="curve" smooth="yes"/>
      <point x="451" y="-71" type="line" smooth="yes"/>
      <point x="366" y="-71"/>
      <point x="342" y="-43"/>
      <point x="364" y="37" type="curve" smooth="yes"/>
    </contour>
  </outline>
</glyph>
<glyph name="grave" format="2">
  <advance width="812"/>
  <unicode hex="0060"/>
  <anchor x="492" y="972" name="center"/>
  <outline>
    <contour>
      <point x="648" y="1332" type="line" smooth="yes"/>
      <point x="563" y="1452"/>
      <point x="477" y="1532"/>
      <point x="367" y="1512" type="curve" smooth="yes"/>
      <point x="273" y="1495"/>
      <point x="244" y="1407"/>
      <point x="282" y="1323" type="curve" smooth="yes"/>
      <point x="318" y="1241"/>
      <point x="379" y="1193"/>
      <point x="506" y="1139" type="curve" smooth="yes"/>
      <point x="682" y="1063" type="line" smooth="yes"/>
      <point x="725" y="1045"/>
      <point x="771" y="1045"/>
      <point x="788" y="1071" type="curve" smooth="yes"/>
      <point x="807" y="1100"/>
      <point x="788" y="1136"/>
      <point x="759" y="1176" type="curve" smooth="yes"/>
    </contour>
  </outline>
</glyph>
<glyph name="a" format="2">
  <advance width="672"/>
  <unicode hex="0061"/>
  <anchor x="389" y="520" name="center"/>
  <outline>
    <contour>
      <point x="552" y="181" type="curve" smooth="yes"/>
      <point x="552" y="208"/>
      <point x="572" y="274"/>
      <point x="587" y="318" type="curve" smooth="yes"/>
      <point x="600" y="357"/>
      <point x="644" y="360"/>
      <point x="644" y="408" type="curve" smooth="yes"/>
      <point x="644" y="466"/>
      <point x="598" y="498"/>
      <point x="456" y="498" type="curve" smooth="yes"/>
      <point x="186" y="498"/>
      <point x="24" y="330"/>
      <point x="24" y="145" type="curve" smooth="yes"/>
      <point x="24" y="32"/>
      <point x="79" y="-15"/>
      <point x="156" y="-15" type="curve" smooth="yes"/>
      <point x="263" y="-15"/>
      <point x="330" y="32"/>
      <point x="389" y="138" type="curve"/>
      <point x="371" y="199" type="line"/>
      <point x="362" y="157"/>
      <point x="348" y="123"/>
      <point x="348" y="82" type="curve" smooth="yes"/>
      <point x="348" y="22"/>
      <point x="383" y="-15"/>
      <point x="436" y="-15" type="curve" smooth="yes"/>
      <point x="536" y="-15"/>
      <point x="611" y="32"/>
      <point x="638" y="109" type="curve" smooth="yes"/>
      <point x="651" y="148"/>
      <point x="647" y="169"/>
      <point x="634" y="176" type="curve" smooth="yes"/>
      <point x="622" y="183"/>
      <point x="609" y="182"/>
      <point x="599" y="174" type="curve" smooth="yes"/>
      <point x="588" y="165"/>
      <point x="582" y="160"/>
      <point x="569" y="160" type="curve" smooth="yes"/>
      <point x="557" y="160"/>
      <point x="552" y="168"/>
    </contour>
    <contour>
      <point x="247" y="169" type="curve" smooth="yes"/>
      <point x="247" y="257"/>
      <point x="315" y="376"/>
      <point x="362" y="376" type="curve" smooth="yes"/>
      <point x="378" y="376"/>
      <point x="387" y="368"/>
      <point x="387" y="336" type="curve" smooth="yes"/>
      <point x="387" y="249"/>
      <point x="317" y="125"/>
      <point x="274" y="125" type="curve" smooth="yes"/>
      <point x="257" y="125"/>
      <point x="247" y="144"/>
    </contour>
  </outline>
</glyph>
<glyph name="b" format="2">
  <advance width="1234"/>
  <unicode hex="0062"/>
  <outline>
    <contour>
      <point x="642" y="1018" type="line" smooth="yes"/>
      <point x="680" y="1176"/>
      <point x="755" y="1216"/>
      <point x="817" y="1216" type="curve" smooth="yes"/>
      <point x="910" y="1216"/>
      <point x="1039" y="1034"/>
      <point x="1160" y="1034" type="curve" smooth="yes"/>
      <point x="1270" y="1034"/>
      <point x="1354" y="1116"/>
      <point x="1354" y="1218" type="curve" smooth="yes"/>
      <point x="1354" y="1354"/>
      <point x="1259" y="1452"/>
      <point x="1056" y="1452" type="curve" smooth="yes"/>
      <point x="608" y="1452"/>
      <point x="316" y="1274"/>
      <point x="210" y="874" type="curve" smooth="yes"/>
      <point x="76" y="366" type="line" smooth="yes"/>
      <point x="41" y="232"/>
      <point x="14" y="186"/>
      <point x="14" y="134" type="curve" smooth="yes"/>
      <point x="14" y="38"/>
      <point x="64" y="-24"/>
      <point x="124" y="-24" type="curve" smooth="yes"/>
      <point x="186" y="-24"/>
      <point x="218" y="-2"/>
      <point x="282" y="62" type="curve" smooth="yes"/>
      <point x="412" y="190" type="line"/>
      <point x="318" y="266" type="line"/>
      <point x="318" y="56"/>
      <point x="441" y="-26"/>
      <point x="604" y="-26" type="curve" smooth="yes"/>
      <point x="916" y="-26"/>
      <point x="1214" y="254"/>
      <point x="1214" y="654" type="curve" smooth="yes"/>
      <point x="1214" y="880"/>
      <point x="1108" y="968"/>
      <point x="948" y="968" type="curve" smooth="yes"/>
      <point x="743" y="968"/>
      <point x="591" y="842"/>
      <point x="500" y="642" type="curve"/>
      <point x="549" y="630" type="line"/>
    </contour>
    <contour>
      <point x="726" y="742" type="curve" smooth="yes"/>
      <point x="757" y="742"/>
      <point x="792" y="726"/>
      <point x="792" y="639" type="curve" smooth="yes"/>
      <point x="792" y="370"/>
      <point x="640" y="164"/>
      <point x="544" y="164" type="curve" smooth="yes"/>
      <point x="505" y="164"/>
      <point x="486" y="194"/>
      <point x="486" y="258" type="curve" smooth="yes"/>
      <point x="486" y="480"/>
      <point x="628" y="742"/>
    </contour>
  </outline>
</glyph>
<glyph name="c" format="2">
  <advance width="511"/>
  <unicode hex="0063"/>
  <anchor x="380" y="532" name="center"/>
  <outline>
    <contour>
      <point x="351" y="385" type="curve" smooth="yes"/>
      <point x="368" y="385"/>
      <point x="379" y="364"/>
      <point x="379" y="336" type="curve" smooth="yes"/>
      <point x="379" y="322"/>
      <point x="374" y="306"/>
      <point x="374" y="295" type="curve" smooth="yes"/>
      <point x="374" y="250"/>
      <point x="404" y="221"/>
      <point x="447" y="221" type="curve" smooth="yes"/>
      <point x="519" y="221"/>
      <point x="577" y="273"/>
      <point x="577" y="358" type="curve" smooth="yes"/>
      <point x="577" y="427"/>
      <point x="522" y="497"/>
      <point x="411" y="497" type="curve" smooth="yes"/>
      <point x="226" y="497"/>
      <point x="74" y="354"/>
      <point x="74" y="170" type="curve" smooth="yes"/>
      <point x="74" y="72"/>
      <point x="155" y="-15"/>
      <point x="284" y="-15" type="curve" smooth="yes"/>
      <point x="438" y="-15"/>
      <point x="534" y="70"/>
      <point x="534" y="159" type="curve" smooth="yes"/>
      <point x="534" y="203"/>
      <point x="519" y="228"/>
      <point x="492" y="228" type="curve" smooth="yes"/>
      <point x="466" y="228"/>
      <point x="447" y="210"/>
      <point x="434" y="189" type="curve" smooth="yes"/>
      <point x="408" y="144"/>
      <point x="381" y="111"/>
      <point x="336" y="111" type="curve" smooth="yes"/>
      <point x="307" y="111"/>
      <point x="286" y="157"/>
      <point x="286" y="226" type="curve" smooth="yes"/>
      <point x="286" y="324"/>
      <point x="317" y="385"/>
    </contour>
  </outline>
</glyph>
<glyph name="d" format="2">
  <advance width="1286"/>
  <unicode hex="0064"/>
  <outline>
    <contour>
      <point x="1112" y="686" type="line"/>
      <point x="1117" y="837"/>
      <point x="1031" y="966"/>
      <point x="778" y="966" type="curve" smooth="yes"/>
      <point x="340" y="966"/>
      <point x="89" y="701"/>
      <point x="47" y="382" type="curve" smooth="yes"/>
      <point x="12" y="117"/>
      <point x="126" y="-30"/>
      <point x="323" y="-30" type="curve" smooth="yes"/>
      <point x="519" y="-30"/>
      <point x="653" y="75"/>
      <point x="756" y="298" type="curve"/>
      <point x="710" y="272" type="line"/>
      <point x="703.9685533035318" y="246.15094272942218"/>
      <point x="702" y="195"/>
      <point x="702" y="144" type="curve" smooth="yes"/>
      <point x="702.0" y="40"/>
      <point x="761" y="-30"/>
      <point x="870" y="-30" type="curve" smooth="yes"/>
      <point x="1085.0" y="-30.0"/>
      <point x="1241.0" y="141.0"/>
      <point x="1241" y="250" type="curve" smooth="yes"/>
      <point x="1241" y="304"/>
      <point x="1216.9803921568628" y="336.0"/>
      <point x="1192" y="336" type="curve" smooth="yes"/>
      <point x="1172.340425531915" y="336.0"/>
      <point x="1163.0901328370862" y="332.1087286573069"/>
      <point x="1150" y="326" type="curve" smooth="yes"/>
      <point x="1132.430233271976" y="317.6774789183044"/>
      <point x="1123.6976744186047" y="314.0"/>
      <point x="1111" y="314" type="curve" smooth="yes"/>
      <point x="1093.3157894736842" y="314.0"/>
      <point x="1079.0" y="333.7894736842105"/>
      <point x="1079" y="361" type="curve" smooth="yes"/>
      <point x="1079.0" y="400.93288590604027"/>
      <point x="1092.3327110832454" y="434.70419129682"/>
      <point x="1109" y="480" type="curve" smooth="yes"/>
      <point x="1194" y="711" type="line" smooth="yes"/>
      <point x="1261" y="894"/>
      <point x="1127" y="965"/>
      <point x="1127" y="1048" type="curve" smooth="yes"/>
      <point x="1127" y="1100"/>
      <point x="1153" y="1126"/>
      <point x="1205" y="1126" type="curve" smooth="yes"/>
      <point x="1260" y="1126"/>
      <point x="1292" y="1048"/>
      <point x="1401" y="1048" type="curve" smooth="yes"/>
      <point x="1507" y="1048"/>
      <point x="1585" y="1132"/>
      <point x="1585" y="1264" type="curve" smooth="yes"/>
      <point x="1585" y="1386"/>
      <point x="1520" y="1490"/>
      <point x="1382" y="1490" type="curve" smooth="yes"/>
      <point x="1159" y="1490"/>
      <point x="1012" y="1370"/>
      <point x="919" y="1088" type="curve" smooth="yes"/>
      <point x="713" y="464" type="line" smooth="yes"/>
      <point x="657.5376112947898" y="295.99742450460616"/>
      <point x="578.4980853844376" y="232.10182471969915"/>
      <point x="521" y="236" type="curve" smooth="yes"/>
      <point x="477" y="239"/>
      <point x="444" y="282"/>
      <point x="458" y="394" type="curve" smooth="yes"/>
      <point x="482.65662421867194" y="593.3077124342651"/>
      <point x="603.6224899598394" y="768.0"/>
      <point x="717" y="768" type="curve" smooth="yes"/>
      <point x="772" y="768"/>
      <point x="791" y="741"/>
      <point x="791" y="669" type="curve"/>
    </contour>
  </outline>
</glyph>
<glyph name="e" format="2">
  <advance width="1080"/>
  <unicode hex="0065"/>
  <anchor x="589" y="1077" name="center"/>
  <outline>
    <contour>
      <point x="232" y="437" type="curve"/>
      <point x="242" y="359" type="line"/>
      <point x="242" y="359"/>
      <point x="839" y="520"/>
      <point x="999" y="559" type="curve" smooth="yes"/>
      <point x="1051" y="573"/>
      <point x="1067" y="599"/>
      <point x="1067" y="627" type="curve" smooth="yes"/>
      <point x="1067" y="646"/>
      <point x="1057" y="657"/>
      <point x="1040" y="663" type="curve" smooth="yes"/>
      <point x="1019" y="670"/>
      <point x="1012" y="692"/>
      <point x="1009" y="716" type="curve" smooth="yes"/>
      <point x="995" y="865"/>
      <point x="900" y="982"/>
      <point x="684" y="982" type="curve" smooth="yes"/>
      <point x="325" y="982"/>
      <point x="73" y="731"/>
      <point x="39" y="406" type="curve" smooth="yes"/>
      <point x="10" y="139"/>
      <point x="143" y="-26"/>
      <point x="425" y="-26" type="curve" smooth="yes"/>
      <point x="750" y="-26"/>
      <point x="953" y="135"/>
      <point x="1009" y="350" type="curve" smooth="yes"/>
      <point x="1012" y="377"/>
      <point x="1001" y="404"/>
      <point x="973" y="404" type="curve" smooth="yes"/>
      <point x="945" y="406"/>
      <point x="928" y="394"/>
      <point x="899" y="358" type="curve" smooth="yes"/>
      <point x="832" y="259"/>
      <point x="744" y="205"/>
      <point x="640" y="205" type="curve" smooth="yes"/>
      <point x="493" y="205"/>
      <point x="429" y="312"/>
      <point x="451" y="510" type="curve" smooth="yes"/>
      <point x="474" y="729"/>
      <point x="551" y="862"/>
      <point x="627" y="862" type="curve" smooth="yes"/>
      <point x="670" y="862"/>
      <point x="692" y="822"/>
      <point x="692" y="752" type="curve" smooth="yes"/>
      <point x="690" y="661"/>
      <point x="677" y="584"/>
      <point x="655" y="533" type="curve"/>
      <point x="688" y="562" type="line"/>
      <point x="547" y="520"/>
      <point x="232" y="437"/>
    </contour>
  </outline>
</glyph>
<glyph name="f" format="2">
  <advance width="814"/>
  <unicode hex="0066"/>
  <outline>
    <contour>
      <point x="434" y="592" type="line"/>
      <point x="678" y="592" type="line" smooth="yes"/>
      <point x="788.0" y="592"/>
      <point x="866.0" y="665.9906542056075"/>
      <point x="866" y="766" type="curve" smooth="yes"/>
      <point x="866.0" y="843.0270270270271"/>
      <point x="812.9473684210526" y="880"/>
      <point x="722" y="880" type="curve" smooth="yes"/>
      <point x="526" y="880" type="line"/>
    </contour>
    <contour>
      <point x="49" y="778" type="curve" smooth="yes"/>
      <point x="49" y="731"/>
      <point x="90" y="694"/>
      <point x="151" y="646" type="curve" smooth="yes"/>
      <point x="196" y="610"/>
      <point x="214" y="570"/>
      <point x="189" y="490" type="curve" smooth="yes"/>
      <point x="-4" y="-126" type="line" smooth="yes"/>
      <point x="-61" y="-308"/>
      <point x="-18" y="-424"/>
      <point x="127" y="-424" type="curve" smooth="yes"/>
      <point x="325" y="-424"/>
      <point x="532.0" y="-324.0"/>
      <point x="532" y="-192" type="curve" smooth="yes"/>
      <point x="532" y="-104"/>
      <point x="434" y="-88"/>
      <point x="434" y="-10" type="curve" smooth="yes"/>
      <point x="434" y="12"/>
      <point x="435" y="45"/>
      <point x="446" y="86" type="curve" smooth="yes"/>
      <point x="634" y="779" type="line" smooth="yes"/>
      <point x="672" y="921"/>
      <point x="485" y="998"/>
      <point x="505" y="1092" type="curve" smooth="yes"/>
      <point x="514" y="1133"/>
      <point x="542.0" y="1158.0"/>
      <point x="594" y="1158.0" type="curve" smooth="yes"/>
      <point x="676" y="1158"/>
      <point x="732" y="1044.0"/>
      <point x="866" y="1044" type="curve" smooth="yes"/>
      <point x="968" y="1044"/>
      <point x="1040" y="1123"/>
      <point x="1040" y="1252" type="curve" smooth="yes"/>
      <point x="1040" y="1376"/>
      <point x="953" y="1482"/>
      <point x="792" y="1482" type="curve" smooth="yes"/>
      <point x="476.5849802371542" y="1482.0"/>
      <point x="317.8461453869457" y="1278.025587450656"/>
      <point x="267" y="956" type="curve" smooth="yes"/>
      <point x="255" y="880" type="line"/>
      <point x="177" y="880" type="line" smooth="yes"/>
      <point x="99" y="880"/>
      <point x="49" y="838"/>
    </contour>
  </outline>
</glyph>
<glyph name="g" format="2">
  <advance width="619"/>
  <unicode hex="0067"/>
  <outline>
    <contour>
      <point x="532" y="-6" type="curve" smooth="yes"/>
      <point x="546" y="65"/>
      <point x="546" y="132"/>
      <point x="555" y="211" type="curve" smooth="yes"/>
      <point x="562" y="295"/>
      <point x="619" y="322"/>
      <point x="619" y="399" type="curve" smooth="yes"/>
      <point x="619" y="460"/>
      <point x="562" y="497"/>
      <point x="458" y="497" type="curve" smooth="yes"/>
      <point x="186.0" y="497"/>
      <point x="17" y="326.0"/>
      <point x="17" y="132" type="curve" smooth="yes"/>
      <point x="17" y="35"/>
      <point x="74" y="-15"/>
      <point x="162" y="-15" type="curve" smooth="yes"/>
      <point x="233" y="-15"/>
      <point x="353" y="20"/>
      <point x="386" y="128" type="curve"/>
      <point x="367" y="171" type="line"/>
      <point x="367" y="153"/>
      <point x="355" y="122"/>
      <point x="311" y="-70" type="curve" smooth="yes"/>
      <point x="302" y="-108"/>
      <point x="280" y="-124"/>
      <point x="255" y="-124" type="curve" smooth="yes"/>
      <point x="179" y="-124"/>
      <point x="141" y="-28"/>
      <point x="58" y="-28" type="curve" smooth="yes"/>
      <point x="-2" y="-28"/>
      <point x="-32" y="-76"/>
      <point x="-32" y="-128" type="curve" smooth="yes"/>
      <point x="-32" y="-187"/>
      <point x="25" y="-245"/>
      <point x="148" y="-245" type="curve" smooth="yes"/>
      <point x="346" y="-245"/>
      <point x="501" y="-156"/>
    </contour>
    <contour>
      <point x="242" y="162" type="curve" smooth="yes"/>
      <point x="242" y="259"/>
      <point x="308" y="376"/>
      <point x="356" y="376" type="curve" smooth="yes"/>
      <point x="374" y="376"/>
      <point x="383" y="362"/>
      <point x="383" y="341" type="curve" smooth="yes"/>
      <point x="383" y="268"/>
      <point x="321" y="126"/>
      <point x="271" y="126" type="curve" smooth="yes"/>
      <point x="252" y="126"/>
      <point x="242" y="139"/>
    </contour>
  </outline>
</glyph>
<glyph name="h" format="2">
  <advance width="677"/>
  <unicode hex="0068"/>
  <outline>
    <contour>
      <point x="262" y="183" type="curve" smooth="yes"/>
      <point x="259" y="172"/>
      <point x="255" y="154"/>
      <point x="255" y="142" type="curve" smooth="yes"/>
      <point x="255" y="113"/>
      <point x="267" y="97"/>
      <point x="267" y="73" type="curve" smooth="yes"/>
      <point x="267" y="20"/>
      <point x="190" y="-15"/>
      <point x="108" y="-15" type="curve" smooth="yes"/>
      <point x="41" y="-15"/>
      <point x="9" y="8"/>
      <point x="9" y="57" type="curve" smooth="yes"/>
      <point x="9" y="74"/>
      <point x="9" y="96"/>
      <point x="24" y="141" type="curve" smooth="yes"/>
      <point x="141" y="495" type="line" smooth="yes"/>
      <point x="189" y="640"/>
      <point x="330" y="745"/>
      <point x="575" y="745" type="curve" smooth="yes"/>
      <point x="680" y="745"/>
      <point x="734" y="695"/>
      <point x="734" y="620" type="curve" smooth="yes"/>
      <point x="734" y="572"/>
      <point x="694" y="532"/>
      <point x="637" y="532" type="curve" smooth="yes"/>
      <point x="546" y="532"/>
      <point x="512" y="640"/>
      <point x="447" y="640" type="curve" smooth="yes"/>
      <point x="421" y="640"/>
      <point x="383" y="594"/>
      <point x="375" y="564" type="curve" smooth="yes"/>
      <point x="345" y="450"/>
      <point x="329" y="393"/>
      <point x="320" y="357" type="curve"/>
      <point x="304" y="360" type="line"/>
      <point x="368" y="459"/>
      <point x="460" y="493"/>
      <point x="534" y="493" type="curve" smooth="yes"/>
      <point x="595" y="493"/>
      <point x="632" y="458"/>
      <point x="632" y="415" type="curve" smooth="yes"/>
      <point x="632" y="381"/>
      <point x="626" y="349"/>
      <point x="610" y="311" type="curve" smooth="yes"/>
      <point x="568" y="213" type="line" smooth="yes"/>
      <point x="563" y="200"/>
      <point x="562" y="193"/>
      <point x="560" y="180" type="curve" smooth="yes"/>
      <point x="559" y="172"/>
      <point x="558" y="158"/>
      <point x="570" y="158" type="curve" smooth="yes"/>
      <point x="574" y="158"/>
      <point x="575" y="157"/>
      <point x="581" y="159" type="curve" smooth="yes"/>
      <point x="606" y="173"/>
      <point x="612" y="182"/>
      <point x="628" y="182" type="curve" smooth="yes"/>
      <point x="648" y="182"/>
      <point x="658" y="165"/>
      <point x="657" y="150" type="curve" smooth="yes"/>
      <point x="655" y="65"/>
      <point x="568" y="-15"/>
      <point x="436" y="-15" type="curve" smooth="yes"/>
      <point x="364" y="-15"/>
      <point x="322" y="14"/>
      <point x="324" y="87" type="curve" smooth="yes"/>
      <point x="326" y="112"/>
      <point x="334" y="138"/>
      <point x="343" y="164" type="curve" smooth="yes"/>
      <point x="370" y="241" type="line" smooth="yes"/>
      <point x="376" y="258"/>
      <point x="381" y="281"/>
      <point x="381" y="291" type="curve" smooth="yes"/>
      <point x="381" y="305"/>
      <point x="373" y="314"/>
      <point x="365" y="314" type="curve" smooth="yes"/>
      <point x="315" y="314"/>
      <point x="284" y="262"/>
    </contour>
  </outline>
</glyph>
<glyph name="i" format="2">
  <advance width="760"/>
  <unicode hex="0069"/>
  <outline>
    <contour>
      <point x="526" y="326" type="curve" smooth="yes"/>
      <point x="526" y="306"/>
      <point x="538" y="296"/>
      <point x="552" y="296" type="curve" smooth="yes"/>
      <point x="566" y="296"/>
      <point x="576" y="300"/>
      <point x="588" y="306" type="curve" smooth="yes"/>
      <point x="606" y="315"/>
      <point x="617" y="316"/>
      <point x="633" y="316" type="curve" smooth="yes"/>
      <point x="657" y="316"/>
      <point x="677" y="286"/>
      <point x="675" y="246" type="curve" smooth="yes"/>
      <point x="669" y="96"/>
      <point x="503" y="-30"/>
      <point x="252" y="-30" type="curve" smooth="yes"/>
      <point x="134" y="-30"/>
      <point x="62" y="44"/>
      <point x="62" y="140" type="curve" smooth="yes"/>
      <point x="62" y="204"/>
      <point x="84" y="263"/>
      <point x="110" y="322" type="curve" smooth="yes"/>
      <point x="228" y="592" type="line" smooth="yes"/>
      <point x="241" y="622"/>
      <point x="248" y="632"/>
      <point x="248" y="646" type="curve" smooth="yes"/>
      <point x="248" y="656"/>
      <point x="242" y="666"/>
      <point x="230" y="666" type="curve" smooth="yes"/>
      <point x="220" y="666"/>
      <point x="210" y="662"/>
      <point x="201" y="657" type="curve" smooth="yes"/>
      <point x="189" y="651"/>
      <point x="183" y="648"/>
      <point x="166" y="648" type="curve" smooth="yes"/>
      <point x="130" y="648"/>
      <point x="90" y="678"/>
      <point x="90" y="740" type="curve" smooth="yes"/>
      <point x="90.0" y="843.0"/>
      <point x="242" y="970.0"/>
      <point x="514" y="970" type="curve" smooth="yes"/>
      <point x="629" y="970.0"/>
      <point x="672.0" y="889.0"/>
      <point x="672" y="800" type="curve" smooth="yes"/>
      <point x="672" y="738"/>
      <point x="648" y="661"/>
      <point x="618" y="582" type="curve" smooth="yes"/>
      <point x="536" y="368" type="line" smooth="yes"/>
      <point x="531" y="356"/>
      <point x="526" y="340"/>
    </contour>
    <contour>
      <point x="541" y="1064.0" type="curve" smooth="yes"/>
      <point x="725.0" y="1064.0"/>
      <point x="845.0" y="1164"/>
      <point x="845.0" y="1286" type="curve" smooth="yes"/>
      <point x="845" y="1393"/>
      <point x="781" y="1474"/>
      <point x="634" y="1474.0" type="curve" smooth="yes"/>
      <point x="434.0" y="1474.0"/>
      <point x="315.0" y="1359"/>
      <point x="315.0" y="1238" type="curve" smooth="yes"/>
      <point x="315.0" y="1140"/>
      <point x="393.0" y="1064.0"/>
    </contour>
  </outline>
</glyph>
<glyph name="k" format="2">
  <advance width="1282"/>
  <unicode hex="006B"/>
  <outline>
    <contour>
      <point x="524" y="656" type="line"/>
      <point x="602" y="853"/>
      <point x="810" y="970"/>
      <point x="1010" y="970" type="curve" smooth="yes"/>
      <point x="1185" y="970"/>
      <point x="1274" y="879"/>
      <point x="1253" y="727" type="curve" smooth="yes"/>
      <point x="1224" y="518"/>
      <point x="949" y="394"/>
      <point x="404" y="326" type="curve"/>
      <point x="400" y="444" type="line"/>
      <point x="717" y="474"/>
      <point x="827" y="544"/>
      <point x="847" y="630" type="curve" smooth="yes"/>
      <point x="863" y="699"/>
      <point x="829" y="740"/>
      <point x="762" y="740" type="curve" smooth="yes"/>
      <point x="650" y="740"/>
      <point x="556" y="644"/>
      <point x="516" y="494" type="curve" smooth="yes"/>
      <point x="467" y="314"/>
      <point x="454" y="276"/>
      <point x="454" y="248" type="curve" smooth="yes"/>
      <point x="454" y="178"/>
      <point x="468" y="146"/>
      <point x="468" y="104" type="curve" smooth="yes"/>
      <point x="468" y="25"/>
      <point x="344" y="-30"/>
      <point x="206" y="-30" type="curve" smooth="yes"/>
      <point x="53" y="-30"/>
      <point x="0" y="62"/>
      <point x="56" y="254" type="curve" smooth="yes"/>
      <point x="266" y="979" type="line" smooth="yes"/>
      <point x="357" y="1294"/>
      <point x="636.0" y="1440.0"/>
      <point x="1056" y="1440" type="curve" smooth="yes"/>
      <point x="1267" y="1440"/>
      <point x="1368" y="1332"/>
      <point x="1368" y="1215" type="curve" smooth="yes"/>
      <point x="1368" y="1121"/>
      <point x="1294" y="1035"/>
      <point x="1160" y="1035" type="curve" smooth="yes"/>
      <point x="988" y="1035"/>
      <point x="919" y="1210"/>
      <point x="825" y="1210" type="curve" smooth="yes"/>
      <point x="754" y="1210"/>
      <point x="711" y="1182"/>
      <point x="678" y="1053" type="curve" smooth="yes"/>
      <point x="638.8030750589" y="901.1119158532374"/>
      <point x="576.6041004567152" y="710.6143515985032"/>
      <point x="557" y="642" type="curve"/>
    </contour>
    <contour>
      <point x="556" y="374" type="line"/>
      <point x="864" y="430" type="line"/>
      <point x="898" y="357" type="line" smooth="yes"/>
      <point x="915" y="320"/>
      <point x="937" y="303"/>
      <point x="967" y="299" type="curve" smooth="yes"/>
      <point x="1002" y="295"/>
      <point x="1029" y="310"/>
      <point x="1057" y="330" type="curve" smooth="yes"/>
      <point x="1085" y="350"/>
      <point x="1120" y="356"/>
      <point x="1146" y="346" type="curve" smooth="yes"/>
      <point x="1185" y="331"/>
      <point x="1199" y="299"/>
      <point x="1190" y="217" type="curve" smooth="yes"/>
      <point x="1172" y="54"/>
      <point x="1034" y="-47"/>
      <point x="858" y="-34" type="curve" smooth="yes"/>
      <point x="701" y="-22"/>
      <point x="631" y="63"/>
      <point x="601" y="187" type="curve" smooth="yes"/>
    </contour>
  </outline>
</glyph>
<glyph name="l" format="2">
  <advance width="773"/>
  <unicode hex="006C"/>
  <outline>
    <contour>
      <point x="760" y="1482" type="curve" smooth="yes"/>
      <point x="525" y="1482"/>
      <point x="355" y="1328"/>
      <point x="296" y="1120" type="curve" smooth="yes"/>
      <point x="81" y="364" type="line" smooth="yes"/>
      <point x="60" y="291"/>
      <point x="49" y="248"/>
      <point x="49" y="184" type="curve" smooth="yes"/>
      <point x="49" y="56"/>
      <point x="132" y="-30"/>
      <point x="296" y="-30" type="curve" smooth="yes"/>
      <point x="526" y="-30"/>
      <point x="679" y="65"/>
      <point x="720" y="201" type="curve" smooth="yes"/>
      <point x="739" y="264"/>
      <point x="718" y="308"/>
      <point x="686" y="316" type="curve" smooth="yes"/>
      <point x="650" y="325"/>
      <point x="638" y="317"/>
      <point x="617" y="298" type="curve" smooth="yes"/>
      <point x="598" y="281"/>
      <point x="586" y="271"/>
      <point x="554" y="271" type="curve" smooth="yes"/>
      <point x="522" y="271"/>
      <point x="505" y="293"/>
      <point x="505" y="326" type="curve" smooth="yes"/>
      <point x="505" y="353"/>
      <point x="514" y="400"/>
      <point x="543" y="495" type="curve" smooth="yes"/>
      <point x="612" y="718" type="line" smooth="yes"/>
      <point x="663" y="883"/>
      <point x="520" y="985"/>
      <point x="520" y="1051" type="curve" smooth="yes"/>
      <point x="520" y="1104"/>
      <point x="542" y="1127"/>
      <point x="586" y="1127" type="curve" smooth="yes"/>
      <point x="642" y="1127"/>
      <point x="679" y="1053"/>
      <point x="788" y="1053" type="curve" smooth="yes"/>
      <point x="917" y="1053"/>
      <point x="974" y="1158"/>
      <point x="974" y="1274" type="curve" smooth="yes"/>
      <point x="974" y="1384"/>
      <point x="909" y="1482"/>
    </contour>
  </outline>
</glyph>
<glyph name="m" format="2">
  <advance width="1928"/>
  <unicode hex="006D"/>
  <outline>
    <contour>
      <point x="712" y="298" type="line" smooth="yes"/>
      <point x="691" y="243"/>
      <point x="682" y="212"/>
      <point x="682" y="144" type="curve" smooth="yes"/>
      <point x="682" y="30"/>
      <point x="748" y="-26"/>
      <point x="856" y="-26" type="curve" smooth="yes"/>
      <point x="1006" y="-26"/>
      <point x="1134" y="38"/>
      <point x="1138" y="148" type="curve" smooth="yes"/>
      <point x="1142" y="200"/>
      <point x="1112" y="242"/>
      <point x="1112" y="294" type="curve" smooth="yes"/>
      <point x="1112.0" y="314.36842105263156"/>
      <point x="1124.5439534684413" y="356.21630349921986"/>
      <point x="1168" y="466" type="curve" smooth="yes"/>
      <point x="1206" y="569"/>
      <point x="1278" y="630"/>
      <point x="1352" y="630" type="curve" smooth="yes"/>
      <point x="1385" y="630"/>
      <point x="1398" y="608"/>
      <point x="1398" y="586" type="curve" smooth="yes"/>
      <point x="1398" y="548"/>
      <point x="1382" y="503"/>
      <point x="1364" y="456" type="curve" smooth="yes"/>
      <point x="1318" y="336" type="line" smooth="yes"/>
      <point x="1294" y="272"/>
      <point x="1276" y="204"/>
      <point x="1278" y="142" type="curve" smooth="yes"/>
      <point x="1280" y="32"/>
      <point x="1350" y="-26"/>
      <point x="1474" y="-26" type="curve" smooth="yes"/>
      <point x="1708" y="-26"/>
      <point x="1870" y="131"/>
      <point x="1878" y="284" type="curve" smooth="yes"/>
      <point x="1880" y="320"/>
      <point x="1854" y="346"/>
      <point x="1822" y="346" type="curve" smooth="yes"/>
      <point x="1804" y="346"/>
      <point x="1794" y="342"/>
      <point x="1774" y="326" type="curve" smooth="yes"/>
      <point x="1763" y="319"/>
      <point x="1748" y="314"/>
      <point x="1738" y="314" type="curve" smooth="yes"/>
      <point x="1720" y="314"/>
      <point x="1708" y="328"/>
      <point x="1708" y="342" type="curve" smooth="yes"/>
      <point x="1708" y="368"/>
      <point x="1721" y="392"/>
      <point x="1732" y="420" type="curve" smooth="yes"/>
      <point x="1822" y="646" type="line" smooth="yes"/>
      <point x="1842" y="696"/>
      <point x="1856" y="740"/>
      <point x="1856" y="788" type="curve" smooth="yes"/>
      <point x="1856" y="892"/>
      <point x="1790" y="960"/>
      <point x="1672" y="960" type="curve" smooth="yes"/>
      <point x="1440" y="960"/>
      <point x="1207" y="766"/>
      <point x="1066" y="468" type="curve"/>
      <point x="1106" y="452" type="line"/>
      <point x="1108" y="582"/>
      <point x="1248" y="718"/>
      <point x="1248" y="856" type="curve" smooth="yes"/>
      <point x="1248" y="918"/>
      <point x="1192" y="962"/>
      <point x="1088" y="962" type="curve" smooth="yes"/>
      <point x="832" y="962"/>
      <point x="633" y="802"/>
      <point x="472" y="462" type="curve"/>
      <point x="516" y="454" type="line"/>
      <point x="538" y="646"/>
      <point x="654" y="728"/>
      <point x="654" y="840" type="curve" smooth="yes"/>
      <point x="654" y="912"/>
      <point x="596" y="964"/>
      <point x="476" y="964" type="curve" smooth="yes"/>
      <point x="232" y="964"/>
      <point x="56" y="804"/>
      <point x="56" y="682" type="curve" smooth="yes"/>
      <point x="56" y="642"/>
      <point x="78" y="614"/>
      <point x="116" y="614" type="curve" smooth="yes"/>
      <point x="144" y="614"/>
      <point x="160" y="620"/>
      <point x="178" y="636" type="curve" smooth="yes"/>
      <point x="184" y="643"/>
      <point x="200" y="650"/>
      <point x="214" y="650" type="curve" smooth="yes"/>
      <point x="232" y="650"/>
      <point x="244" y="632"/>
      <point x="242" y="606" type="curve" smooth="yes"/>
      <point x="240" y="576"/>
      <point x="236" y="566"/>
      <point x="226" y="542" type="curve" smooth="yes"/>
      <point x="110" y="274" type="line" smooth="yes"/>
      <point x="90" y="226"/>
      <point x="72" y="184"/>
      <point x="78" y="136" type="curve" smooth="yes"/>
      <point x="80" y="28"/>
      <point x="130" y="-26"/>
      <point x="220" y="-26" type="curve" smooth="yes"/>
      <point x="404" y="-26"/>
      <point x="544" y="42"/>
      <point x="544" y="146" type="curve" smooth="yes"/>
      <point x="544" y="194"/>
      <point x="522" y="240"/>
      <point x="520" y="290" type="curve" smooth="yes"/>
      <point x="517.736227939552" y="328.4841250276168"/>
      <point x="541.6405149934666" y="381.82786831808875"/>
      <point x="576" y="462" type="curve" smooth="yes"/>
      <point x="622" y="573"/>
      <point x="692" y="632"/>
      <point x="758" y="632" type="curve" smooth="yes"/>
      <point x="787" y="632"/>
      <point x="806" y="612"/>
      <point x="806" y="584" type="curve" smooth="yes"/>
      <point x="806" y="558"/>
      <point x="797" y="525"/>
      <point x="782" y="486" type="curve" smooth="yes"/>
    </contour>
  </outline>
</glyph>
<glyph name="n" format="2">
  <advance width="1344"/>
  <unicode hex="006E"/>
  <outline>
    <contour>
      <point x="80" y="628" type="curve" smooth="yes"/>
      <point x="102" y="609"/>
      <point x="143" y="613"/>
      <point x="167" y="633" type="curve" smooth="yes"/>
      <point x="184" y="647"/>
      <point x="198" y="650"/>
      <point x="214" y="650" type="curve" smooth="yes"/>
      <point x="231" y="650"/>
      <point x="242" y="635"/>
      <point x="242" y="604" type="curve" smooth="yes"/>
      <point x="242" y="579"/>
      <point x="237" y="554"/>
      <point x="222" y="522" type="curve" smooth="yes"/>
      <point x="110" y="284" type="line" smooth="yes"/>
      <point x="84" y="230"/>
      <point x="76" y="180"/>
      <point x="76" y="122" type="curve" smooth="yes"/>
      <point x="76" y="9"/>
      <point x="136" y="-30"/>
      <point x="224" y="-30" type="curve" smooth="yes"/>
      <point x="430" y="-30"/>
      <point x="552" y="38"/>
      <point x="552" y="144" type="curve" smooth="yes"/>
      <point x="552" y="202"/>
      <point x="528" y="244"/>
      <point x="528" y="292" type="curve" smooth="yes"/>
      <point x="528.0" y="332.8"/>
      <point x="545.8981261421391" y="375.72833637903733"/>
      <point x="582" y="472" type="curve" smooth="yes"/>
      <point x="621.0" y="581.0"/>
      <point x="707.0" y="642.0"/>
      <point x="776" y="642" type="curve" smooth="yes"/>
      <point x="798" y="642"/>
      <point x="814" y="624"/>
      <point x="814" y="596" type="curve" smooth="yes"/>
      <point x="814" y="576"/>
      <point x="809" y="548"/>
      <point x="798" y="518" type="curve" smooth="yes"/>
      <point x="722" y="310" type="line" smooth="yes"/>
      <point x="704" y="261"/>
      <point x="694" y="212"/>
      <point x="692" y="136" type="curve" smooth="yes"/>
      <point x="690" y="34"/>
      <point x="770" y="-30"/>
      <point x="906" y="-30" type="curve" smooth="yes"/>
      <point x="1086" y="-30"/>
      <point x="1197" y="55"/>
      <point x="1266" y="182" type="curve" smooth="yes"/>
      <point x="1302" y="250"/>
      <point x="1299" y="299"/>
      <point x="1272" y="322" type="curve" smooth="yes"/>
      <point x="1250" y="341"/>
      <point x="1229" y="340"/>
      <point x="1204" y="326" type="curve" smooth="yes"/>
      <point x="1179" y="313"/>
      <point x="1170" y="310"/>
      <point x="1154" y="310" type="curve" smooth="yes"/>
      <point x="1136" y="310"/>
      <point x="1124" y="320"/>
      <point x="1124" y="340" type="curve" smooth="yes"/>
      <point x="1124" y="362"/>
      <point x="1129" y="381"/>
      <point x="1144" y="418" type="curve" smooth="yes"/>
      <point x="1220" y="602" type="line" smooth="yes"/>
      <point x="1253" y="682"/>
      <point x="1268" y="738"/>
      <point x="1268" y="806" type="curve" smooth="yes"/>
      <point x="1268" y="902"/>
      <point x="1206" y="970"/>
      <point x="1090" y="970" type="curve" smooth="yes"/>
      <point x="879" y="970"/>
      <point x="666" y="843"/>
      <point x="476" y="464" type="curve"/>
      <point x="524" y="452" type="line"/>
      <point x="530" y="588"/>
      <point x="662" y="736"/>
      <point x="662" y="838" type="curve" smooth="yes"/>
      <point x="662" y="924"/>
      <point x="606" y="970"/>
      <point x="488" y="970" type="curve" smooth="yes"/>
      <point x="310" y="970"/>
      <point x="165" y="894"/>
      <point x="84" y="766" type="curve" smooth="yes"/>
      <point x="46" y="706"/>
      <point x="50" y="654"/>
    </contour>
  </outline>
</glyph>
<glyph name="o" format="1">
  <advance width="600"/>
  <unicode hex="006F"/>
  <outline>
    <contour>
      <point x="423" y="497" type="curve" smooth="yes"/>
      <point x="184" y="497"/>
      <point x="77" y="293"/>
      <point x="77" y="197" type="curve" smooth="yes"/>
      <point x="77" y="71"/>
      <point x="153" y="-15"/>
      <point x="292" y="-15" type="curve" smooth="yes"/>
      <point x="503" y="-15"/>
      <point x="653" y="144"/>
      <point x="653" y="311" type="curve" smooth="yes"/>
      <point x="653" y="421"/>
      <point x="590" y="497"/>
    </contour>
    <contour>
      <point x="348" y="117" type="curve" smooth="yes"/>
      <point x="308" y="117"/>
      <point x="296" y="151"/>
      <point x="296" y="238" type="curve" smooth="yes"/>
      <point x="296" y="321"/>
      <point x="350" y="378"/>
      <point x="376" y="378" type="curve" smooth="yes"/>
      <point x="419" y="378"/>
      <point x="431" y="352"/>
      <point x="431" y="276" type="curve" smooth="yes"/>
      <point x="431" y="182"/>
      <point x="372" y="117"/>
    </contour>
  </outline>
</glyph>
<glyph name="p" format="1">
  <advance width="614"/>
  <unicode hex="0070"/>
  <outline>
    <contour>
      <point x="365" y="430" type="line" smooth="yes"/>
      <point x="387" y="510"/>
      <point x="389" y="518"/>
      <point x="389" y="529" type="curve" smooth="yes"/>
      <point x="389" y="559"/>
      <point x="366" y="582"/>
      <point x="335" y="582" type="curve" smooth="yes"/>
      <point x="265" y="582"/>
      <point x="216" y="549"/>
      <point x="186" y="437" type="curve" smooth="yes"/>
      <point x="53" y="-100" type="line" smooth="yes"/>
      <point x="48" y="-118"/>
      <point x="33" y="-130"/>
      <point x="10" y="-142" type="curve" smooth="yes"/>
      <point x="-25" y="-161"/>
      <point x="-37" y="-178"/>
      <point x="-37" y="-193" type="curve" smooth="yes"/>
      <point x="-37" y="-222"/>
      <point x="-22" y="-235"/>
      <point x="-3" y="-235" type="curve" smooth="yes"/>
      <point x="264" y="-230" type="line" smooth="yes"/>
      <point x="285" y="-230"/>
      <point x="300" y="-213"/>
      <point x="300" y="-188" type="curve" smooth="yes"/>
      <point x="300" y="-169"/>
      <point x="297" y="-150"/>
      <point x="276" y="-141" type="curve" smooth="yes"/>
      <point x="252" y="-132"/>
      <point x="244" y="-122"/>
      <point x="244" y="-105" type="curve" smooth="yes"/>
      <point x="244" y="-90"/>
      <point x="252" y="-70"/>
      <point x="255" y="-52" type="curve" smooth="yes"/>
    </contour>
    <contour>
      <point x="123" y="285" type="curve" smooth="yes"/>
      <point x="159" y="285"/>
      <point x="188" y="303"/>
      <point x="216" y="323" type="curve" smooth="yes"/>
      <point x="273" y="365"/>
      <point x="284" y="370"/>
      <point x="362" y="370" type="curve" smooth="yes"/>
      <point x="415" y="370"/>
      <point x="467" y="318"/>
      <point x="467" y="233" type="curve" smooth="yes"/>
      <point x="467" y="148"/>
      <point x="441" y="107"/>
      <point x="355" y="107" type="curve" smooth="yes"/>
      <point x="305" y="107"/>
      <point x="277" y="114"/>
      <point x="232" y="216" type="curve"/>
      <point x="120" y="158" type="line"/>
      <point x="139" y="59"/>
      <point x="212" y="-17"/>
      <point x="346" y="-17" type="curve" smooth="yes"/>
      <point x="539" y="-17"/>
      <point x="665" y="122"/>
      <point x="665" y="265" type="curve" smooth="yes"/>
      <point x="665" y="403"/>
      <point x="581" y="497"/>
      <point x="470" y="497" type="curve" smooth="yes"/>
      <point x="282" y="497"/>
      <point x="195" y="459"/>
      <point x="119" y="395" type="curve" smooth="yes"/>
      <point x="107" y="383"/>
      <point x="89" y="359"/>
      <point x="89" y="334" type="curve" smooth="yes"/>
      <point x="89" y="301"/>
      <point x="105" y="285"/>
    </contour>
  </outline>
</glyph>
<glyph name="q" format="2">
  <advance width="1219"/>
  <unicode hex="0071"/>
  <outline>
    <contour>
      <point x="688" y="292" type="line"/>
      <point x="534" y="-188" type="line" smooth="yes"/>
      <point x="520" y="-232"/>
      <point x="485" y="-260"/>
      <point x="419" y="-282" type="curve" smooth="yes"/>
      <point x="360" y="-302"/>
      <point x="319" y="-351"/>
      <point x="319" y="-400" type="curve" smooth="yes"/>
      <point x="319" y="-461"/>
      <point x="350" y="-491"/>
      <point x="419" y="-490" type="curve" smooth="yes"/>
      <point x="925" y="-480" type="line" smooth="yes"/>
      <point x="992" y="-479"/>
      <point x="1037" y="-450"/>
      <point x="1037" y="-375" type="curve" smooth="yes"/>
      <point x="1037" y="-348"/>
      <point x="1015" y="-326"/>
      <point x="990" y="-303" type="curve" smooth="yes"/>
      <point x="957" y="-272" type="line" smooth="yes"/>
      <point x="925" y="-241"/>
      <point x="931" y="-185"/>
      <point x="945" y="-130" type="curve" smooth="yes"/>
      <point x="1123" y="592" type="line" smooth="yes"/>
      <point x="1148" y="694"/>
      <point x="1233" y="698"/>
      <point x="1233" y="810" type="curve" smooth="yes"/>
      <point x="1233.0" y="919.0"/>
      <point x="1114" y="975.0"/>
      <point x="858" y="975" type="curve" smooth="yes"/>
      <point x="371" y="975"/>
      <point x="98" y="699"/>
      <point x="58" y="351" type="curve" smooth="yes"/>
      <point x="27" y="90.0"/>
      <point x="141.0" y="-29.0"/>
      <point x="315" y="-29" type="curve" smooth="yes"/>
      <point x="482" y="-29"/>
      <point x="628" y="86"/>
      <point x="727" y="260" type="curve"/>
    </contour>
    <contour>
      <point x="467" y="340" type="curve" smooth="yes"/>
      <point x="485.29161932922597" y="546.5877006594927"/>
      <point x="615.6299212598425" y="767.0"/>
      <point x="731" y="767" type="curve" smooth="yes"/>
      <point x="772" y="767"/>
      <point x="796" y="731"/>
      <point x="790" y="666" type="curve" smooth="yes"/>
      <point x="769.5105924290684" y="460.0814539121378"/>
      <point x="620.125" y="245.0"/>
      <point x="520" y="245" type="curve" smooth="yes"/>
      <point x="488" y="245"/>
      <point x="461" y="275"/>
    </contour>
  </outline>
</glyph>
<glyph name="r" format="2">
  <advance width="1145"/>
  <unicode hex="0072"/>
  <outline>
    <contour>
      <point x="116" y="614" type="curve" smooth="yes"/>
      <point x="135" y="614"/>
      <point x="158" y="625"/>
      <point x="173" y="638" type="curve" smooth="yes"/>
      <point x="185" y="648"/>
      <point x="194" y="652"/>
      <point x="209" y="652" type="curve" smooth="yes"/>
      <point x="231" y="652"/>
      <point x="242" y="633"/>
      <point x="242" y="606" type="curve" smooth="yes"/>
      <point x="242" y="576"/>
      <point x="234" y="548"/>
      <point x="222" y="522" type="curve" smooth="yes"/>
      <point x="122" y="308" type="line" smooth="yes"/>
      <point x="86" y="230"/>
      <point x="76" y="182"/>
      <point x="76" y="120" type="curve" smooth="yes"/>
      <point x="76" y="40"/>
      <point x="112" y="-26"/>
      <point x="220" y="-26" type="curve" smooth="yes"/>
      <point x="448" y="-26"/>
      <point x="600" y="44"/>
      <point x="600" y="148" type="curve" smooth="yes"/>
      <point x="600" y="194"/>
      <point x="562" y="226"/>
      <point x="562" y="288" type="curve" smooth="yes"/>
      <point x="562" y="352"/>
      <point x="570" y="412"/>
      <point x="606" y="506" type="curve" smooth="yes"/>
      <point x="650" y="619"/>
      <point x="692" y="670"/>
      <point x="750" y="670" type="curve" smooth="yes"/>
      <point x="770" y="670"/>
      <point x="781" y="656"/>
      <point x="781" y="635" type="curve" smooth="yes"/>
      <point x="781" y="591"/>
      <point x="761" y="555"/>
      <point x="761" y="516" type="curve" smooth="yes"/>
      <point x="761" y="482"/>
      <point x="789" y="426"/>
      <point x="881" y="426" type="curve" smooth="yes"/>
      <point x="1009" y="426"/>
      <point x="1146" y="559"/>
      <point x="1146" y="742" type="curve" smooth="yes"/>
      <point x="1146" y="882"/>
      <point x="1064" y="968"/>
      <point x="934" y="968" type="curve" smooth="yes"/>
      <point x="734" y="968"/>
      <point x="565" y="762"/>
      <point x="468" y="384" type="curve"/>
      <point x="516" y="370" type="line"/>
      <point x="524" y="486"/>
      <point x="630" y="710"/>
      <point x="630" y="834" type="curve" smooth="yes"/>
      <point x="630" y="918"/>
      <point x="582" y="974"/>
      <point x="496" y="974" type="curve" smooth="yes"/>
      <point x="258" y="974"/>
      <point x="56" y="819"/>
      <point x="56" y="688" type="curve" smooth="yes"/>
      <point x="56" y="640"/>
      <point x="82" y="614"/>
    </contour>
  </outline>
</glyph>
<glyph name="s" format="2">
  <advance width="518"/>
  <unicode hex="0073"/>
  <outline>
    <contour>
      <point x="241" y="77" type="curve" smooth="yes"/>
      <point x="209" y="77"/>
      <point x="182" y="89"/>
      <point x="152" y="134" type="curve" smooth="yes"/>
      <point x="126" y="171"/>
      <point x="102" y="194"/>
      <point x="64" y="194" type="curve" smooth="yes"/>
      <point x="30" y="194"/>
      <point x="8" y="167"/>
      <point x="7" y="119" type="curve" smooth="yes"/>
      <point x="6" y="44"/>
      <point x="67" y="-13"/>
      <point x="216" y="-13" type="curve" smooth="yes"/>
      <point x="372" y="-13"/>
      <point x="467" y="53"/>
      <point x="463" y="150" type="curve" smooth="yes"/>
      <point x="461" y="212"/>
      <point x="434" y="246"/>
      <point x="340" y="295" type="curve" smooth="yes"/>
      <point x="277" y="328"/>
      <point x="260" y="350"/>
      <point x="258" y="369" type="curve" smooth="yes"/>
      <point x="258" y="388"/>
      <point x="270" y="396"/>
      <point x="291" y="396" type="curve" smooth="yes"/>
      <point x="327" y="396"/>
      <point x="354" y="371"/>
      <point x="383" y="330" type="curve" smooth="yes"/>
      <point x="411" y="288"/>
      <point x="431" y="275"/>
      <point x="460" y="275" type="curve" smooth="yes"/>
      <point x="495" y="275"/>
      <point x="515" y="300"/>
      <point x="515" y="354" type="curve" smooth="yes"/>
      <point x="515.0" y="436"/>
      <point x="454.0" y="488.0"/>
      <point x="327" y="488" type="curve" smooth="yes"/>
      <point x="154" y="488"/>
      <point x="63" y="408"/>
      <point x="66" y="310" type="curve" smooth="yes"/>
      <point x="69" y="243"/>
      <point x="104" y="208"/>
      <point x="188" y="172" type="curve" smooth="yes"/>
      <point x="258" y="142"/>
      <point x="272" y="128"/>
      <point x="273" y="105" type="curve" smooth="yes"/>
      <point x="273" y="90"/>
      <point x="262" y="77"/>
    </contour>
  </outline>
</glyph>
<glyph name="t" format="2">
  <advance width="900"/>
  <unicode hex="0074"/>
  <outline>
    <contour>
      <point x="180" y="704" type="line" smooth="yes"/>
      <point x="204" y="692"/>
      <point x="212" y="668"/>
      <point x="212" y="640" type="curve" smooth="yes"/>
      <point x="212" y="608"/>
      <point x="208" y="574"/>
      <point x="192" y="534" type="curve" smooth="yes"/>
      <point x="150" y="428" type="line" smooth="yes"/>
      <point x="98" y="298"/>
      <point x="92" y="242"/>
      <point x="92" y="184" type="curve" smooth="yes"/>
      <point x="92" y="48"/>
      <point x="176" y="-26"/>
      <point x="324" y="-26" type="curve" smooth="yes"/>
      <point x="640" y="-26"/>
      <point x="816" y="136"/>
      <point x="816" y="282" type="curve" smooth="yes"/>
      <point x="816" y="322"/>
      <point x="796" y="348"/>
      <point x="760" y="348" type="curve" smooth="yes"/>
      <point x="734" y="348"/>
      <point x="720" y="340"/>
      <point x="684" y="312" type="curve" smooth="yes"/>
      <point x="644" y="278"/>
      <point x="622" y="264"/>
      <point x="584" y="264" type="curve" smooth="yes"/>
      <point x="540" y="264"/>
      <point x="524" y="286"/>
      <point x="524" y="326" type="curve" smooth="yes"/>
      <point x="524" y="348"/>
      <point x="530" y="380"/>
      <point x="544" y="428" type="curve" smooth="yes"/>
      <point x="690" y="908" type="line" smooth="yes"/>
      <point x="712" y="978"/>
      <point x="716" y="1036"/>
      <point x="716" y="1076" type="curve" smooth="yes"/>
      <point x="716" y="1124"/>
      <point x="686" y="1164"/>
      <point x="638" y="1164" type="curve" smooth="yes"/>
      <point x="580" y="1164"/>
      <point x="526" y="1152"/>
      <point x="500" y="1120" type="curve" smooth="yes"/>
      <point x="408" y="1008" type="line" smooth="yes"/>
      <point x="354" y="942"/>
      <point x="308" y="928"/>
      <point x="238" y="928" type="curve" smooth="yes"/>
      <point x="220" y="928" type="line" smooth="yes"/>
      <point x="140" y="928"/>
      <point x="90" y="888"/>
      <point x="90" y="824" type="curve" smooth="yes"/>
      <point x="90" y="780"/>
      <point x="110" y="742"/>
      <point x="150" y="720" type="curve" smooth="yes"/>
    </contour>
    <contour>
      <point x="532" y="688" type="line"/>
      <point x="732" y="688" type="line" smooth="yes"/>
      <point x="844" y="688"/>
      <point x="916" y="748"/>
      <point x="916" y="842" type="curve" smooth="yes"/>
      <point x="916" y="890"/>
      <point x="894" y="916"/>
      <point x="848" y="916" type="curve" smooth="yes"/>
      <point x="606" y="916" type="line"/>
    </contour>
  </outline>
</glyph>
<glyph name="u" format="1">
  <advance width="640"/>
  <unicode hex="0075"/>
  <outline>
    <component base="n" xScale="-1.0" yScale="-1.0" xOffset="769" yOffset="485"/>
    <contour>
      <point x="466" y="508" type="move" name="center"/>
    </contour>
  </outline>
</glyph>
<glyph name="v" format="2">
  <advance width="1285"/>
  <unicode hex="0076"/>
  <outline>
    <contour>
      <point x="1276" y="749" type="curve" smooth="yes"/>
      <point x="1276" y="897"/>
      <point x="1212" y="977"/>
      <point x="1097" y="977" type="curve" smooth="yes"/>
      <point x="982" y="977"/>
      <point x="898" y="882"/>
      <point x="894" y="774" type="curve" smooth="yes"/>
      <point x="891" y="711"/>
      <point x="910" y="667"/>
      <point x="968" y="624" type="curve" smooth="yes"/>
      <point x="1007" y="588"/>
      <point x="1030" y="565"/>
      <point x="1026" y="500" type="curve" smooth="yes"/>
      <point x="1017" y="336"/>
      <point x="864" y="160"/>
      <point x="780" y="160" type="curve" smooth="yes"/>
      <point x="735" y="161"/>
      <point x="704" y="195"/>
      <point x="704" y="279" type="curve" smooth="yes"/>
      <point x="704" y="469"/>
      <point x="825" y="740"/>
      <point x="825" y="912" type="curve" smooth="yes"/>
      <point x="825" y="953"/>
      <point x="808" y="974"/>
      <point x="785" y="974" type="curve" smooth="yes"/>
      <point x="732" y="974"/>
      <point x="715" y="930"/>
      <point x="663" y="930" type="curve" smooth="yes"/>
      <point x="595" y="930"/>
      <point x="503" y="978"/>
      <point x="395" y="978" type="curve" smooth="yes"/>
      <point x="189" y="978"/>
      <point x="44" y="837"/>
      <point x="27" y="644" type="curve" smooth="yes"/>
      <point x="16" y="506"/>
      <point x="88" y="416"/>
      <point x="191" y="416" type="curve" smooth="yes"/>
      <point x="249" y="416"/>
      <point x="298" y="454"/>
      <point x="300" y="516" type="curve" smooth="yes"/>
      <point x="305" y="571"/>
      <point x="271" y="607"/>
      <point x="207" y="630" type="curve" smooth="yes"/>
      <point x="160" y="646"/>
      <point x="141" y="673"/>
      <point x="145" y="704" type="curve" smooth="yes"/>
      <point x="149" y="729"/>
      <point x="166" y="751"/>
      <point x="209" y="748" type="curve" smooth="yes"/>
      <point x="318" y="743"/>
      <point x="464" y="609"/>
      <point x="682" y="609" type="curve"/>
      <point x="682" y="642" type="line"/>
      <point x="603" y="499"/>
      <point x="211" y="442"/>
      <point x="211" y="170" type="curve" smooth="yes"/>
      <point x="211" y="42"/>
      <point x="313" y="-26"/>
      <point x="479" y="-26" type="curve" smooth="yes"/>
      <point x="916" y="-26"/>
      <point x="1276" y="362"/>
    </contour>
  </outline>
</glyph>
<glyph name="w" format="2">
  <advance width="880"/>
  <unicode hex="0077"/>
  <outline>
    <contour>
      <point x="628" y="497" type="curve" smooth="yes"/>
      <point x="600" y="497"/>
      <point x="569" y="479"/>
      <point x="542" y="444" type="curve" smooth="yes"/>
      <point x="504" y="388"/>
      <point x="473" y="294"/>
      <point x="473" y="167" type="curve" smooth="yes"/>
      <point x="473" y="51"/>
      <point x="518" y="-15"/>
      <point x="617" y="-15" type="curve" smooth="yes"/>
      <point x="730" y="-15"/>
      <point x="946" y="144"/>
      <point x="946" y="348" type="curve" smooth="yes"/>
      <point x="946" y="458"/>
      <point x="906" y="498"/>
      <point x="849" y="498" type="curve" smooth="yes"/>
      <point x="776" y="498"/>
      <point x="719" y="447"/>
      <point x="719" y="381" type="curve" smooth="yes"/>
      <point x="719" y="349"/>
      <point x="722" y="327"/>
      <point x="751" y="294" type="curve" smooth="yes"/>
      <point x="765" y="276"/>
      <point x="779" y="249"/>
      <point x="779" y="191" type="curve" smooth="yes"/>
      <point x="779" y="132"/>
      <point x="747" y="112"/>
      <point x="673" y="112" type="curve" smooth="yes"/>
      <point x="641" y="112"/>
      <point x="600" y="158"/>
      <point x="604" y="231" type="curve"/>
      <point x="528" y="138"/>
      <point x="480" y="107"/>
      <point x="417" y="107" type="curve" smooth="yes"/>
      <point x="380" y="107"/>
      <point x="362" y="141"/>
      <point x="362" y="183" type="curve" smooth="yes"/>
      <point x="362" y="210"/>
      <point x="377" y="238"/>
      <point x="432" y="288" type="curve" smooth="yes"/>
      <point x="479" y="348"/>
      <point x="478" y="400"/>
      <point x="478" y="439" type="curve" smooth="yes"/>
      <point x="478" y="479"/>
      <point x="455" y="497"/>
      <point x="414" y="497" type="curve" smooth="yes"/>
      <point x="387" y="497"/>
      <point x="368" y="482"/>
      <point x="333" y="482" type="curve" smooth="yes"/>
      <point x="316" y="482"/>
      <point x="279" y="506"/>
      <point x="260" y="506" type="curve" smooth="yes"/>
      <point x="151" y="506"/>
      <point x="76" y="389"/>
      <point x="76" y="274" type="curve" smooth="yes"/>
      <point x="76" y="202"/>
      <point x="110" y="160"/>
      <point x="160" y="160" type="curve" smooth="yes"/>
      <point x="207" y="160"/>
      <point x="233" y="180"/>
      <point x="233" y="220" type="curve" smooth="yes"/>
      <point x="233" y="255"/>
      <point x="206" y="278"/>
      <point x="181" y="280" type="curve" smooth="yes"/>
      <point x="164" y="282"/>
      <point x="156" y="290"/>
      <point x="156" y="296" type="curve" smooth="yes"/>
      <point x="156" y="303"/>
      <point x="161" y="311"/>
      <point x="170" y="311" type="curve" smooth="yes"/>
      <point x="201" y="311"/>
      <point x="251" y="297"/>
      <point x="288" y="297" type="curve" smooth="yes"/>
      <point x="311" y="297"/>
      <point x="378" y="375"/>
      <point x="345" y="440" type="curve"/>
      <point x="345" y="338"/>
      <point x="300" y="262"/>
      <point x="269" y="246" type="curve" smooth="yes"/>
      <point x="152" y="159"/>
      <point x="127" y="138"/>
      <point x="127" y="68" type="curve" smooth="yes"/>
      <point x="127" y="20"/>
      <point x="183" y="-15"/>
      <point x="272" y="-15" type="curve" smooth="yes"/>
      <point x="423" y="-15"/>
      <point x="589" y="106"/>
      <point x="666" y="252" type="curve" smooth="yes"/>
      <point x="690" y="297"/>
      <point x="704" y="342"/>
      <point x="704" y="384" type="curve" smooth="yes"/>
      <point x="704" y="463"/>
      <point x="674" y="497"/>
    </contour>
  </outline>
</glyph>
<glyph name="x" format="2">
  <advance width="1397"/>
  <unicode hex="0078"/>
  <outline>
    <contour>
      <point x="500" y="452" type="line"/>
      <point x="500" y="285"/>
      <point x="433" y="231"/>
      <point x="393" y="231" type="curve" smooth="yes"/>
      <point x="378" y="231"/>
      <point x="357" y="242"/>
      <point x="357" y="274" type="curve" smooth="yes"/>
      <point x="357" y="296"/>
      <point x="361" y="308"/>
      <point x="361" y="326" type="curve" smooth="yes"/>
      <point x="361" y="416"/>
      <point x="303" y="474"/>
      <point x="211" y="474" type="curve" smooth="yes"/>
      <point x="90" y="474"/>
      <point x="-12" y="374"/>
      <point x="-14" y="213" type="curve" smooth="yes"/>
      <point x="-16" y="72"/>
      <point x="58" y="-30"/>
      <point x="202" y="-30" type="curve" smooth="yes"/>
      <point x="415" y="-30"/>
      <point x="587" y="112"/>
      <point x="587" y="411" type="curve"/>
    </contour>
    <contour>
      <point x="873" y="679" type="line" smooth="yes"/>
      <point x="877.839197644018" y="842.9950312694979"/>
      <point x="782.4451827242525" y="970.0"/>
      <point x="592" y="970" type="curve" smooth="yes"/>
      <point x="315" y="970"/>
      <point x="129" y="806"/>
      <point x="129" y="668" type="curve" smooth="yes"/>
      <point x="129" y="613"/>
      <point x="169" y="592"/>
      <point x="201" y="592" type="curve" smooth="yes"/>
      <point x="239" y="592"/>
      <point x="261" y="609"/>
      <point x="283" y="631" type="curve" smooth="yes"/>
      <point x="330" y="678"/>
      <point x="369" y="702"/>
      <point x="403" y="702" type="curve" smooth="yes"/>
      <point x="459" y="702"/>
      <point x="502" y="669"/>
      <point x="501" y="591" type="curve" smooth="yes"/>
      <point x="499" y="302" type="line" smooth="yes"/>
      <point x="497.47748867775374" y="81.99711393541867"/>
      <point x="629.6984126984128" y="-30.0"/>
      <point x="857" y="-30" type="curve" smooth="yes"/>
      <point x="1077" y="-30"/>
      <point x="1255" y="152"/>
      <point x="1257" y="294" type="curve" smooth="yes"/>
      <point x="1257" y="340"/>
      <point x="1231" y="370"/>
      <point x="1191" y="370" type="curve" smooth="yes"/>
      <point x="1141" y="370"/>
      <point x="1127" y="357"/>
      <point x="1085" y="325" type="curve" smooth="yes"/>
      <point x="1044" y="293"/>
      <point x="1024" y="262"/>
      <point x="967" y="262" type="curve" smooth="yes"/>
      <point x="906" y="262"/>
      <point x="862" y="307"/>
      <point x="864" y="374" type="curve" smooth="yes"/>
    </contour>
    <contour>
      <point x="866" y="426" type="line"/>
      <point x="866" y="583"/>
      <point x="958" y="694"/>
      <point x="1036" y="694" type="curve" smooth="yes"/>
      <point x="1062" y="694"/>
      <point x="1078" y="674"/>
      <point x="1078" y="648" type="curve" smooth="yes"/>
      <point x="1078" y="625"/>
      <point x="1067" y="590"/>
      <point x="1067" y="573" type="curve" smooth="yes"/>
      <point x="1067" y="505"/>
      <point x="1123" y="464"/>
      <point x="1202" y="464" type="curve" smooth="yes"/>
      <point x="1326" y="464"/>
      <point x="1426" y="553"/>
      <point x="1426" y="712" type="curve" smooth="yes"/>
      <point x="1426" y="860"/>
      <point x="1351" y="970"/>
      <point x="1208" y="970" type="curve" smooth="yes"/>
      <point x="974" y="970"/>
      <point x="782" y="761"/>
      <point x="782" y="453" type="curve"/>
    </contour>
  </outline>
</glyph>
<glyph name="y" format="2">
  <advance width="559"/>
  <unicode hex="0079"/>
  <outline>
    <contour>
      <point x="403" y="217" type="curve" smooth="yes"/>
      <point x="375" y="82" type="line"/>
      <point x="379" y="66" type="line"/>
      <point x="374" y="145"/>
      <point x="330" y="261"/>
      <point x="307" y="338" type="curve" smooth="yes"/>
      <point x="279" y="464"/>
      <point x="240" y="498"/>
      <point x="173" y="498" type="curve" smooth="yes"/>
      <point x="99" y="498"/>
      <point x="35" y="447"/>
      <point x="35" y="395" type="curve" smooth="yes"/>
      <point x="35" y="363"/>
      <point x="54" y="345"/>
      <point x="82" y="345" type="curve" smooth="yes"/>
      <point x="94" y="345"/>
      <point x="104" y="341"/>
      <point x="115" y="341" type="curve" smooth="yes"/>
      <point x="122" y="341"/>
      <point x="125" y="339"/>
      <point x="134" y="324" type="curve" smooth="yes"/>
      <point x="173" y="234"/>
      <point x="248" y="-34"/>
      <point x="248" y="-112" type="curve" smooth="yes"/>
      <point x="248" y="-133"/>
      <point x="245" y="-142"/>
      <point x="229" y="-142" type="curve" smooth="yes"/>
      <point x="164" y="-142"/>
      <point x="120" y="-24"/>
      <point x="34" y="-24" type="curve" smooth="yes"/>
      <point x="-30" y="-24"/>
      <point x="-66" y="-78"/>
      <point x="-66" y="-131" type="curve" smooth="yes"/>
      <point x="-66" y="-195"/>
      <point x="-5" y="-245"/>
      <point x="96" y="-245" type="curve" smooth="yes"/>
      <point x="243" y="-245"/>
      <point x="366" y="-182"/>
      <point x="423" y="-18" type="curve" smooth="yes"/>
      <point x="472" y="117"/>
      <point x="502" y="227"/>
      <point x="529" y="231" type="curve" smooth="yes"/>
      <point x="615" y="258"/>
      <point x="675" y="321"/>
      <point x="675" y="399" type="curve" smooth="yes"/>
      <point x="675" y="449"/>
      <point x="639" y="495"/>
      <point x="583" y="495" type="curve" smooth="yes"/>
      <point x="531" y="495"/>
      <point x="459" y="453"/>
    </contour>
  </outline>
</glyph>
<glyph name="z" format="2">
  <advance width="1191"/>
  <unicode hex="007A"/>
  <outline>
    <contour>
      <point x="599" y="313" type="curve"/>
      <point x="619" y="374" type="line"/>
      <point x="659" y="374"/>
      <point x="778" y="334"/>
      <point x="837" y="334" type="curve" smooth="yes"/>
      <point x="900" y="334"/>
      <point x="950" y="370"/>
      <point x="989" y="432" type="curve" smooth="yes"/>
      <point x="1008" y="462"/>
      <point x="1034" y="472"/>
      <point x="1061" y="472" type="curve" smooth="yes"/>
      <point x="1093" y="472"/>
      <point x="1113" y="446"/>
      <point x="1113" y="381" type="curve" smooth="yes"/>
      <point x="1113" y="142"/>
      <point x="930" y="-30"/>
      <point x="689" y="-30" type="curve" smooth="yes"/>
      <point x="464" y="-30"/>
      <point x="413" y="104"/>
      <point x="359" y="104" type="curve" smooth="yes"/>
      <point x="297" y="104"/>
      <point x="277" y="-30"/>
      <point x="153" y="-30" type="curve" smooth="yes"/>
      <point x="77" y="-30"/>
      <point x="27" y="20"/>
      <point x="27" y="124" type="curve" smooth="yes"/>
      <point x="27" y="214"/>
      <point x="96" y="321"/>
      <point x="250" y="353" type="curve" smooth="yes"/>
      <point x="392" y="382"/>
      <point x="462" y="429"/>
      <point x="518" y="478" type="curve" smooth="yes"/>
      <point x="605" y="555"/>
      <point x="662" y="600"/>
      <point x="685" y="624" type="curve"/>
      <point x="683" y="553" type="line"/>
      <point x="610" y="553"/>
      <point x="414" y="650"/>
      <point x="327" y="650" type="curve" smooth="yes"/>
      <point x="285" y="650"/>
      <point x="267" y="630"/>
      <point x="267" y="608" type="curve" smooth="yes"/>
      <point x="267" y="592"/>
      <point x="275" y="574"/>
      <point x="301" y="564" type="curve" smooth="yes"/>
      <point x="327" y="554"/>
      <point x="337" y="520"/>
      <point x="337" y="490" type="curve" smooth="yes"/>
      <point x="337" y="444"/>
      <point x="286" y="416"/>
      <point x="235" y="416" type="curve" smooth="yes"/>
      <point x="139" y="416"/>
      <point x="75" y="480"/>
      <point x="75" y="596" type="curve" smooth="yes"/>
      <point x="75" y="785"/>
      <point x="212" y="970"/>
      <point x="455" y="970" type="curve" smooth="yes"/>
      <point x="683" y="970"/>
      <point x="741" y="844"/>
      <point x="821" y="844" type="curve" smooth="yes"/>
      <point x="932" y="844"/>
      <point x="925" y="970"/>
      <point x="1057" y="970" type="curve" smooth="yes"/>
      <point x="1171" y="970"/>
      <point x="1220" y="903"/>
      <point x="1217" y="800" type="curve" smooth="yes"/>
      <point x="1212" y="678"/>
      <point x="1139" y="615"/>
      <point x="1026" y="598" type="curve" smooth="yes"/>
      <point x="934" y="584"/>
      <point x="892" y="554"/>
      <point x="831" y="504" type="curve" smooth="yes"/>
      <point x="628" y="340"/>
      <point x="600" y="325"/>
    </contour>
  </outline>
</glyph>
<glyph name="braceleft" format="1">
  <advance width="467"/>
  <unicode hex="007B"/>
  <outline>
    <contour>
      <point x="353" y="289" type="curve" smooth="yes"/>
      <point x="357" y="303"/>
      <point x="372" y="316"/>
      <point x="391" y="316" type="curve" smooth="yes"/>
      <point x="424" y="316"/>
      <point x="455" y="353"/>
      <point x="470" y="407" type="curve" smooth="yes"/>
      <point x="487" y="476"/>
      <point x="464" y="535"/>
      <point x="481" y="598" type="curve" smooth="yes"/>
      <point x="491" y="635"/>
      <point x="534" y="664"/>
      <point x="578" y="664" type="curve" smooth="yes"/>
      <point x="568" y="664" type="line" smooth="yes"/>
      <point x="605" y="664"/>
      <point x="634" y="680"/>
      <point x="643" y="710" type="curve" smooth="yes"/>
      <point x="650" y="735"/>
      <point x="635" y="755"/>
      <point x="593" y="755" type="curve" smooth="yes"/>
      <point x="501" y="755" type="line" smooth="yes"/>
      <point x="391" y="755"/>
      <point x="296" y="692"/>
      <point x="272" y="600" type="curve" smooth="yes"/>
      <point x="250" y="522"/>
      <point x="336" y="471"/>
      <point x="321" y="409" type="curve" smooth="yes"/>
      <point x="310" y="373"/>
      <point x="275" y="352"/>
      <point x="249" y="350" type="curve" smooth="yes"/>
      <point x="207" y="350"/>
      <point x="225" y="378"/>
      <point x="183" y="378" type="curve" smooth="yes"/>
      <point x="148" y="378"/>
      <point x="110" y="339"/>
      <point x="97" y="290" type="curve" smooth="yes"/>
      <point x="83" y="237"/>
      <point x="98" y="203"/>
      <point x="134" y="203" type="curve" smooth="yes"/>
      <point x="183" y="203"/>
      <point x="191" y="230"/>
      <point x="221" y="230" type="curve" smooth="yes"/>
      <point x="247" y="228"/>
      <point x="264" y="202"/>
      <point x="255" y="166" type="curve" smooth="yes"/>
      <point x="239" y="107"/>
      <point x="125" y="54"/>
      <point x="104" y="-30" type="curve" smooth="yes"/>
      <point x="80" y="-120"/>
      <point x="140" y="-185"/>
      <point x="251" y="-185" type="curve" smooth="yes"/>
      <point x="342" y="-185" type="line" smooth="yes"/>
      <point x="383" y="-185"/>
      <point x="409" y="-160"/>
      <point x="415" y="-140" type="curve" smooth="yes"/>
      <point x="423" y="-106"/>
      <point x="403" y="-93"/>
      <point x="366" y="-93" type="curve" smooth="yes"/>
      <point x="376" y="-93" type="line" smooth="yes"/>
      <point x="332" y="-93"/>
      <point x="304" y="-64"/>
      <point x="314" y="-28" type="curve" smooth="yes"/>
      <point x="333" y="39"/>
      <point x="388" y="103"/>
      <point x="406" y="169" type="curve" smooth="yes"/>
      <point x="419" y="220"/>
      <point x="410" y="261"/>
      <point x="374" y="261" type="curve" smooth="yes"/>
      <point x="356" y="261"/>
      <point x="348" y="270"/>
    </contour>
  </outline>
</glyph>
<glyph name="exclamdown" format="2">
  <advance width="518"/>
  <unicode hex="00A1"/>
  <outline>
    <contour>
      <point x="164.0" y="-464.0" type="curve" smooth="yes"/>
      <point x="40.0" y="-464.0"/>
      <point x="-60.0" y="-350.0"/>
      <point x="-60.0" y="-214.0" type="curve" smooth="yes"/>
      <point x="-60.0" y="-190.0"/>
      <point x="-66.0" y="-172.0"/>
      <point x="-38.0" y="-124.0" type="curve" smooth="yes"/>
      <point x="252.0" y="384.0" type="line" smooth="yes"/>
      <point x="304.0" y="492.0"/>
      <point x="352.0" y="520.0"/>
      <point x="416.0" y="520.0" type="curve" smooth="yes"/>
      <point x="478.0" y="520.0"/>
      <point x="514.0" y="462.0"/>
      <point x="504.0" y="374.0" type="curve" smooth="yes"/>
      <point x="476.0" y="-172.0" type="line" smooth="yes"/>
      <point x="472.0" y="-198.0"/>
      <point x="468.0" y="-216.0"/>
      <point x="462.0" y="-234.0" type="curve" smooth="yes"/>
      <point x="420.0" y="-362.0"/>
      <point x="298.0" y="-464.0"/>
    </contour>
    <contour>
      <point x="530.502" y="983.99" type="curve" smooth="yes"/>
      <point x="351.36600000000004" y="983.99"/>
      <point x="231.942" y="881.36"/>
      <point x="231.942" y="760.07" type="curve" smooth="yes"/>
      <point x="231.942" y="649.976"/>
      <point x="319.644" y="573.47"/>
      <point x="453.99600000000004" y="573.47" type="curve" smooth="yes"/>
      <point x="634.998" y="573.47"/>
      <point x="754.422" y="694.76"/>
      <point x="754.422" y="793.658" type="curve" smooth="yes"/>
      <point x="754.422" y="903.752"/>
      <point x="662.988" y="983.99"/>
    </contour>
  </outline>
</glyph>
